<svg width="48" height="48" viewBox="0 0 48 48" fill="none" xmlns="http://www.w3.org/2000/svg">
<path d="M0 24C0 10.7452 10.7452 0 24 0C37.2548 0 48 10.7452 48 24C48 37.2548 37.2548 48 24 48C10.7452 48 0 37.2548 0 24Z" fill="url(#paint0_linear_835_22715)"/>
<path d="M13.5 16.5C13.5 15.6703 14.1703 15 15 15H33C33.8297 15 34.5 15.6703 34.5 16.5C34.5 17.3297 33.8297 18 33 18H15C14.1703 18 13.5 17.3297 13.5 16.5ZM13.5 24C13.5 23.1703 14.1703 22.5 15 22.5H33C33.8297 22.5 34.5 23.1703 34.5 24C34.5 24.8297 33.8297 25.5 33 25.5H15C14.1703 25.5 13.5 24.8297 13.5 24ZM34.5 31.5C34.5 32.3297 33.8297 33 33 33H15C14.1703 33 13.5 32.3297 13.5 31.5C13.5 30.6703 14.1703 30 15 30H33C33.8297 30 34.5 30.6703 34.5 31.5Z" fill="white"/>
<defs>
<linearGradient id="paint0_linear_835_22715" x1="24" y1="0" x2="24" y2="48" gradientUnits="userSpaceOnUse">
<stop stop-color="#3395FF"/>
<stop offset="0.5" stop-color="#007AFF"/>
<stop offset="1" stop-color="#0062CC"/>
</linearGradient>
</defs>
</svg>
