<svg width="119" height="64" viewBox="0 0 119 64" fill="none" xmlns="http://www.w3.org/2000/svg">
<path d="M34.1685 62.1974C33.833 62.3814 33.3951 62.4734 32.8547 62.4734C32.4501 62.4734 32.0762 62.3993 31.7279 62.251C31.3822 62.1028 31.0826 61.9034 30.8342 61.6504C30.5858 61.3974 30.3886 61.1035 30.2477 60.7636C30.1069 60.4237 30.0352 60.0633 30.0352 59.68V59.6595C30.0352 59.2762 30.1069 58.9133 30.2477 58.5708C30.3886 58.2283 30.5832 57.9293 30.8342 57.6738C31.0826 57.4182 31.3822 57.2163 31.7279 57.0681C32.0736 56.9198 32.4578 56.8457 32.8752 56.8457C33.3874 56.8457 33.8099 56.9275 34.148 57.0885C34.4835 57.2495 34.7805 57.4719 35.0366 57.753L34.0968 58.7599C33.9226 58.5785 33.7408 58.4328 33.5564 58.3255C33.372 58.2181 33.1415 58.1644 32.865 58.1644C32.6703 58.1644 32.4936 58.2028 32.3349 58.2795C32.1761 58.3561 32.0378 58.4635 31.92 58.5964C31.8022 58.7318 31.7126 58.8877 31.6485 59.0641C31.5845 59.2404 31.5538 59.4321 31.5538 59.634V59.6544C31.5538 59.864 31.5845 60.0582 31.6485 60.2397C31.7126 60.4211 31.8047 60.5796 31.9251 60.7125C32.0455 60.8479 32.1914 60.9527 32.3605 61.0294C32.5295 61.1061 32.7164 61.1444 32.9264 61.1444C33.1825 61.1444 33.4053 61.0933 33.5974 60.9885C33.7894 60.8837 33.979 60.7457 34.1685 60.5694L35.0673 61.4766C34.8036 61.7654 34.5039 62.0031 34.1685 62.1871V62.1974Z" fill="#00182B"/>
<path d="M39.5113 58.4507C38.9992 58.4507 38.5971 58.6066 38.3051 58.9133C38.0132 59.2226 37.8647 59.703 37.8647 60.3547V62.3507H36.3281V56.948H37.8647V58.0367C38.0183 57.6661 38.2309 57.3722 38.4998 57.1499C38.7687 56.9275 39.1323 56.8279 39.5907 56.8483V58.4507H39.5088H39.5113Z" fill="#00182B"/>
<path d="M45.8816 59.9957C45.8791 60.0494 45.874 60.1132 45.8663 60.1874H42.0992C42.1734 60.5375 42.3271 60.8007 42.5576 60.9796C42.7906 61.1585 43.0774 61.2454 43.4206 61.2454C43.6767 61.2454 43.9046 61.202 44.1069 61.1151C44.3092 61.0282 44.5167 60.8876 44.7344 60.6908L45.6127 61.4678C45.3567 61.7847 45.0468 62.03 44.6831 62.2089C44.3195 62.3878 43.8918 62.4773 43.4001 62.4773C42.9955 62.4773 42.6216 62.4108 42.2733 62.2754C41.9276 62.1399 41.628 61.9482 41.3744 61.7003C41.1209 61.4524 40.9263 61.1585 40.7829 60.8186C40.642 60.4787 40.5703 60.1005 40.5703 59.6839V59.6634C40.5703 59.2801 40.6369 58.9172 40.7675 58.5747C40.8981 58.2322 41.0825 57.9332 41.3181 57.6777C41.5537 57.4221 41.8354 57.2202 42.1606 57.072C42.4859 56.9237 42.8495 56.8496 43.2465 56.8496C43.6972 56.8496 44.089 56.9314 44.4194 57.0924C44.7497 57.2534 45.0237 57.4706 45.2414 57.7415C45.4591 58.015 45.6204 58.3268 45.7254 58.6795C45.8304 59.0322 45.8816 59.4002 45.8816 59.7836V59.804C45.8816 59.8781 45.8816 59.942 45.8765 59.9957H45.8816ZM44.0275 58.3984C43.8329 58.1862 43.5743 58.0815 43.249 58.0815C42.9238 58.0815 42.6651 58.1862 42.4654 58.3933C42.2656 58.6003 42.1376 58.8814 42.0761 59.229H44.3886C44.3425 58.8865 44.2196 58.6079 44.025 58.3984H44.0275Z" fill="#00182B"/>
<path d="M51.1997 62.1974C50.8642 62.3814 50.4263 62.4734 49.886 62.4734C49.4813 62.4734 49.1075 62.3993 48.7592 62.251C48.4134 62.1028 48.1138 61.9034 47.8654 61.6504C47.617 61.3974 47.4198 61.1035 47.279 60.7636C47.1381 60.4237 47.0664 60.0633 47.0664 59.68V59.6595C47.0664 59.2762 47.1381 58.9133 47.279 58.5708C47.4198 58.2283 47.6144 57.9293 47.8654 57.6738C48.1138 57.4182 48.4134 57.2163 48.7592 57.0681C49.1049 56.9198 49.489 56.8457 49.9065 56.8457C50.4186 56.8457 50.8412 56.9275 51.1792 57.0885C51.5147 57.2495 51.8118 57.4719 52.0679 57.753L51.128 58.7599C50.9539 58.5785 50.772 58.4328 50.5877 58.3255C50.4033 58.2181 50.1728 58.1644 49.8962 58.1644C49.7016 58.1644 49.5249 58.2028 49.3661 58.2795C49.2073 58.3561 49.069 58.4635 48.9512 58.5964C48.8334 58.7293 48.7438 58.8877 48.6798 59.0641C48.6158 59.2404 48.585 59.4321 48.585 59.634V59.6544C48.585 59.864 48.6158 60.0582 48.6798 60.2397C48.7438 60.4211 48.836 60.5796 48.9564 60.7125C49.0767 60.8479 49.2227 60.9527 49.3917 61.0294C49.5607 61.1061 49.7477 61.1444 49.9577 61.1444C50.2138 61.1444 50.4366 61.0933 50.6286 60.9885C50.8207 60.8837 51.0102 60.7457 51.1997 60.5694L52.0986 61.4766C51.8348 61.7654 51.5352 62.0031 51.1997 62.1871V62.1974Z" fill="#00182B"/>
<path d="M53.3516 56.3557V54.9961H54.9675V56.3557H53.3516ZM53.3925 62.354V56.9512H54.9291V62.354H53.3925Z" fill="#00182B"/>
<path d="M61.7137 59.9957C61.7111 60.0494 61.706 60.1132 61.6983 60.1874H57.9312C58.0055 60.5375 58.1591 60.8007 58.3896 60.9796C58.6227 61.1585 58.9095 61.2454 59.2526 61.2454C59.5087 61.2454 59.7366 61.202 59.939 61.1151C60.1413 61.0282 60.3487 60.8876 60.5664 60.6908L61.4448 61.4678C61.1887 61.7847 60.8788 62.03 60.5152 62.2089C60.1515 62.3878 59.7238 62.4773 59.2321 62.4773C58.8275 62.4773 58.4536 62.4108 58.1053 62.2754C57.7571 62.1399 57.46 61.9482 57.2065 61.7003C56.9529 61.4524 56.7557 61.1585 56.6149 60.8186C56.474 60.4787 56.4023 60.1005 56.4023 59.6839V59.6634C56.4023 59.2801 56.4689 58.9172 56.5995 58.5747C56.7301 58.2322 56.9145 57.9332 57.1501 57.6777C57.3857 57.4221 57.6674 57.2202 57.9927 57.072C58.3179 56.9237 58.6816 56.8496 59.0785 56.8496C59.5292 56.8496 59.921 56.9314 60.2514 57.0924C60.5817 57.2534 60.8558 57.4706 61.0734 57.7415C61.2911 58.015 61.455 58.3268 61.5575 58.6795C61.6625 59.0322 61.7137 59.4002 61.7137 59.7836V59.804C61.7137 59.8781 61.7137 59.942 61.7085 59.9957H61.7137ZM59.8596 58.3984C59.6649 58.1862 59.4037 58.0815 59.0811 58.0815C58.7584 58.0815 58.4972 58.1862 58.2974 58.3933C58.0977 58.6003 57.9696 58.8814 57.9082 59.229H60.2207C60.1746 58.8865 60.0516 58.6079 59.857 58.3984H59.8596Z" fill="#00182B"/>
<path d="M66.5984 62.354V59.3485C66.5984 58.9856 66.5164 58.7121 66.3551 58.5281C66.1937 58.3441 65.9633 58.2521 65.6688 58.2521C65.3743 58.2521 65.1387 58.3441 64.9671 58.5281C64.7955 58.7121 64.7084 58.9856 64.7084 59.3485V62.354H63.1719V56.9512H64.7084V57.7231C64.7955 57.6081 64.8928 57.4982 64.9952 57.3934C65.1002 57.2886 65.2155 57.1966 65.3435 57.1148C65.4716 57.033 65.6124 56.9691 65.7686 56.9231C65.9223 56.8746 66.099 56.8516 66.2936 56.8516C66.8801 56.8516 67.3333 57.0305 67.6509 57.3857C67.9685 57.7409 68.1298 58.2316 68.1298 58.8578V62.3566H66.5932L66.5984 62.354Z" fill="#00182B"/>
<path d="M73.7176 62.3534V61.5841C73.5281 61.8371 73.3028 62.0467 73.0364 62.2103C72.7701 62.3738 72.4346 62.4556 72.0326 62.4556C71.715 62.4556 71.4103 62.3943 71.1132 62.2741C70.8161 62.154 70.5549 61.9726 70.3244 61.7349C70.0965 61.4972 69.9121 61.2033 69.7738 60.8583C69.6356 60.5133 69.5664 60.1146 69.5664 59.6648V59.6443C69.5664 59.1945 69.6356 58.7958 69.7738 58.4508C69.9121 58.1058 70.094 57.8119 70.3193 57.5742C70.5447 57.3365 70.8059 57.1551 71.103 57.0349C71.4 56.9148 71.7099 56.8535 72.0326 56.8535C72.4423 56.8535 72.7803 56.9327 73.0467 57.0937C73.313 57.2547 73.5358 57.4413 73.7176 57.6534V54.998H75.2542V62.3559H73.7176V62.3534ZM73.7381 59.6418C73.7381 59.4194 73.7023 59.215 73.6331 59.0284C73.5614 58.8418 73.4692 58.6834 73.3514 58.5505C73.2336 58.4176 73.0953 58.3179 72.9366 58.2464C72.7778 58.1748 72.6088 58.139 72.4269 58.139C72.2451 58.139 72.0761 58.1748 71.9173 58.2464C71.7585 58.3179 71.6203 58.4176 71.4973 58.5505C71.377 58.6834 71.2796 58.8393 71.2105 59.0233C71.1414 59.2073 71.1055 59.4118 71.1055 59.6418V59.6622C71.1055 59.8846 71.1414 60.0916 71.2105 60.2756C71.2796 60.4596 71.377 60.6206 71.4973 60.7535C71.6177 60.8864 71.7585 60.9861 71.9173 61.0576C72.0761 61.1292 72.2451 61.165 72.4269 61.165C72.6088 61.165 72.7778 61.1292 72.9366 61.0576C73.0953 60.9861 73.2336 60.8864 73.3514 60.7535C73.4692 60.6206 73.564 60.4622 73.6331 60.2756C73.7048 60.089 73.7381 59.8846 73.7381 59.6622V59.6418Z" fill="#00182B"/>
<path d="M82.3214 60.7573C82.1728 61.0972 81.968 61.3937 81.7042 61.6492C81.4404 61.9048 81.1306 62.1067 80.7746 62.2549C80.4186 62.4032 80.0268 62.4773 79.6017 62.4773C79.1766 62.4773 78.7976 62.4057 78.439 62.26C78.0831 62.1169 77.7732 61.9176 77.5145 61.6646C77.2559 61.4115 77.051 61.1176 76.9025 60.7777C76.754 60.4378 76.6797 60.0749 76.6797 59.6839V59.6634C76.6797 59.275 76.754 58.9095 76.9025 58.5696C77.051 58.2297 77.2559 57.9332 77.5197 57.6777C77.7834 57.4221 78.0907 57.2202 78.4493 57.072C78.8078 56.9237 79.1971 56.8496 79.6222 56.8496C80.0473 56.8496 80.4263 56.9212 80.7848 57.0668C81.1408 57.2125 81.4507 57.4093 81.7093 57.6623C81.968 57.9153 82.1728 58.2092 82.3214 58.5492C82.4699 58.8891 82.5442 59.252 82.5442 59.643V59.6634C82.5442 60.0545 82.4699 60.4174 82.3214 60.7573ZM81.0281 59.6634C81.0281 59.4615 80.9948 59.2724 80.9282 59.0935C80.8616 58.9146 80.7643 58.7587 80.6363 58.6207C80.5082 58.4827 80.3572 58.3728 80.183 58.2936C80.0089 58.2118 79.8168 58.1735 79.6068 58.1735C79.384 58.1735 79.1868 58.2118 79.0152 58.2885C78.8437 58.3651 78.6977 58.4725 78.5748 58.6054C78.4518 58.7383 78.3622 58.8967 78.2982 59.0731C78.2342 59.2494 78.2009 59.4411 78.2009 59.643V59.6634C78.2009 59.8653 78.2342 60.0545 78.3007 60.2334C78.3673 60.4123 78.4646 60.5707 78.5927 60.7062C78.7207 60.8442 78.8693 60.9541 79.0408 61.0333C79.2124 61.1151 79.4071 61.1534 79.6222 61.1534C79.8373 61.1534 80.0422 61.1151 80.2137 61.0384C80.3853 60.9617 80.5313 60.8544 80.6542 60.7215C80.7746 60.5861 80.8668 60.4302 80.9308 60.2538C80.9948 60.0749 81.0281 59.8858 81.0281 59.6839V59.6634Z" fill="#00182B"/>
<path d="M88.4794 57.1425V62.6577C88.4794 63.5752 87.9954 63.9995 87.2067 63.9995C87.0248 63.9995 86.8942 63.9892 86.7227 63.9483V63.312C86.843 63.3324 86.9967 63.3426 87.1068 63.3426C87.4602 63.3426 87.7035 63.1305 87.7035 62.6475V57.1425H88.482H88.4794ZM87.6523 56.0026V55.1465H88.5409V56.0026H87.6523Z" fill="#00182B"/>
<path d="M94.3813 57.1438H95.1496V62.3549H94.3813V61.4476C94.0279 62.0124 93.4927 62.4648 92.5938 62.4648C91.3313 62.4648 90.5938 61.6188 90.5938 60.3768V57.1412H91.3723V60.1851C91.3723 61.1537 91.8973 61.7568 92.8166 61.7568C93.736 61.7568 94.3813 61.1026 94.3813 60.1237V57.1387V57.1438Z" fill="#00182B"/>
<path d="M98.0559 62.3542H97.2773V57.1431H98.0559V58.0504C98.399 57.4856 98.9445 57.0332 99.8434 57.0332C101.106 57.0332 101.843 57.8791 101.843 59.1212V62.3567H101.065V59.3129C101.065 58.3443 100.54 57.7411 99.6206 57.7411C98.7012 57.7411 98.0559 58.3954 98.0559 59.3742V62.3593V62.3542Z" fill="#00182B"/>
<path d="M104.936 60.8715C104.936 61.5053 105.289 61.7378 105.814 61.7378C106.078 61.7378 106.298 61.6867 106.572 61.5564V62.2209C106.298 62.3614 106.006 62.4432 105.632 62.4432C104.795 62.4432 104.157 62.0292 104.157 60.9711V57.825H103.43V57.1401H104.157V55.5684H104.936V57.1401H106.592V57.825H104.936V60.8689V60.8715Z" fill="#00182B"/>
<path d="M110.582 62.4749C109.017 62.4749 107.875 61.2456 107.875 59.7633C107.875 58.281 109.027 57.0312 110.602 57.0312C112.177 57.0312 113.319 58.2605 113.319 59.7429C113.319 61.2252 112.157 62.4749 110.582 62.4749ZM110.582 57.7162C109.45 57.7162 108.671 58.6132 108.671 59.7429C108.671 60.8725 109.499 61.7798 110.6 61.7798C111.701 61.7798 112.518 60.8827 112.518 59.7633C112.518 58.6439 111.681 57.7162 110.579 57.7162H110.582Z" fill="#00182B"/>
<path d="M116.833 62.4528C116.085 62.4528 115.258 62.1614 114.672 61.6861L115.066 61.1315C115.632 61.5557 116.257 61.796 116.874 61.796C117.491 61.796 117.955 61.474 117.955 60.9679V60.9475C117.955 60.4236 117.338 60.2217 116.651 60.03C115.835 59.7974 114.925 59.5163 114.925 58.5579V58.5375C114.925 57.6404 115.673 57.0449 116.703 57.0449C117.34 57.0449 118.047 57.2673 118.582 57.62L118.229 58.2052C117.745 57.8934 117.189 57.7017 116.685 57.7017C116.068 57.7017 115.673 58.0238 115.673 58.4582V58.4787C115.673 58.9719 116.319 59.1636 117.018 59.3757C117.827 59.6185 118.695 59.9303 118.695 60.8683V60.8887C118.695 61.8778 117.878 62.4502 116.836 62.4502L116.833 62.4528Z" fill="#00182B"/>
<path d="M70.0273 24.4C70.0273 10.9242 81.0375 0 94.5133 0C107.989 0 118.999 10.9242 118.999 24.4C118.999 37.8758 107.989 48.8 94.5133 48.8C81.0375 48.8 70.0273 37.8758 70.0273 24.4Z" fill="white"/>
<path d="M75.7736 0C72.5677 0 69.9688 2.60489 69.9688 5.81818V43.1108C69.9688 46.3241 72.5677 48.929 75.7736 48.929H113.195C116.401 48.929 119 46.3241 119 43.1108V5.81818C119 2.60489 116.401 0 113.195 0H75.7736ZM106.802 27.6502C106.802 31.5528 105.709 34.456 103.524 36.3498C101.34 38.2462 98.3206 39.1943 94.4664 39.1943C90.6122 39.1943 87.5289 38.2538 85.3854 36.3703C83.2419 34.4842 82.1664 31.5783 82.1664 27.6476V12.9137C82.1664 11.1551 83.5887 9.72958 85.3432 9.72958C87.0977 9.72958 88.52 11.1551 88.52 12.9137V27.6502C88.52 28.4348 88.5866 29.2015 88.7223 29.9529C88.8555 30.7068 89.1397 31.3739 89.57 31.9515C90.0027 32.529 90.5994 33.0018 91.3703 33.3622C92.136 33.7251 93.1706 33.9066 94.4664 33.9066C96.7303 33.9066 98.2924 33.4031 99.1554 32.3936C100.021 31.3841 100.451 29.8021 100.451 27.6476V12.9124C100.451 11.1546 101.873 9.72958 103.627 9.72958C105.381 9.72958 106.802 11.1546 106.802 12.9124V27.6502Z" fill="url(#paint0_linear_655_27578)"/>
<path d="M27.2188 34.4667V31.3488H30.0153V30.0351C30.0153 28.5272 30.4865 27.2877 31.4289 26.3293C32.3687 25.3658 33.7977 24.8828 35.703 24.8828C36.1205 24.8828 36.5353 24.9007 36.9528 24.9339C37.3702 24.9672 37.7723 24.9953 38.1692 25.0157V28.494C37.6212 28.4301 37.0501 28.3944 36.4585 28.3944C35.8234 28.3944 35.3701 28.5426 35.0961 28.8365C34.8195 29.133 34.6838 29.6288 34.6838 30.3265V31.3462H37.9054V34.4642H34.6838V48.311H30.0153V34.4642H27.2188V34.4667Z" fill="#00182B"/>
<path d="M37.9426 36.156C38.36 35.0519 38.9516 34.1114 39.7173 33.337C40.483 32.5575 41.405 31.957 42.478 31.5302C43.551 31.1034 44.7572 30.8887 46.0965 30.8887C47.4359 30.8887 48.6421 31.1034 49.7279 31.5302C50.8112 31.957 51.7382 32.5575 52.5091 33.337C53.2748 34.114 53.8689 35.0545 54.2838 36.156C54.6986 37.2626 54.9061 38.4919 54.9061 39.8464C54.9061 41.201 54.6986 42.4277 54.2838 43.5215C53.8663 44.6154 53.2748 45.5533 52.5091 46.3277C51.7382 47.1021 50.8137 47.7001 49.7279 48.1167C48.6447 48.5333 47.4333 48.7403 46.0965 48.7403C44.7598 48.7403 43.551 48.5333 42.478 48.1167C41.405 47.7001 40.483 47.1021 39.7173 46.3277C38.9516 45.5533 38.3575 44.6154 37.9426 43.5215C37.5252 42.4277 37.3203 41.2035 37.3203 39.8464C37.3203 38.4893 37.5277 37.2601 37.9426 36.156ZM42.186 41.8348C42.3141 42.4788 42.542 43.059 42.8596 43.5752C43.1771 44.0889 43.5971 44.4953 44.1246 44.8045C44.6496 45.1112 45.3103 45.262 46.0991 45.262C46.8879 45.262 47.5511 45.1086 48.0864 44.8045C48.6242 44.4953 49.0493 44.0889 49.3668 43.5752C49.6844 43.059 49.9072 42.4788 50.0403 41.8348C50.171 41.1882 50.2375 40.5288 50.2375 39.849C50.2375 39.1692 50.171 38.5047 50.0403 37.8479C49.9072 37.191 49.6844 36.6135 49.3668 36.1074C49.0493 35.6065 48.6216 35.195 48.0864 34.8756C47.5486 34.5612 46.8853 34.4028 46.0991 34.4028C45.3129 34.4028 44.6496 34.5612 44.1246 34.8756C43.5997 35.195 43.1771 35.6065 42.8596 36.1074C42.542 36.6135 42.3141 37.191 42.186 37.8479C42.0554 38.5047 41.9889 39.1717 41.9889 39.849C41.9889 40.5262 42.0554 41.1882 42.186 41.8348Z" fill="#00182B"/>
<path d="M60.4979 31.3487V34.4973H60.5644C60.7821 33.9734 61.0766 33.4853 61.4505 33.0355C61.8244 32.5882 62.2495 32.2049 62.731 31.888C63.215 31.571 63.7272 31.3231 64.2778 31.1519C64.8284 30.9756 65.3969 30.8887 65.9859 30.8887C66.2958 30.8887 66.6312 30.9449 67.0051 31.0548V35.3842C66.7849 35.3407 66.5211 35.3024 66.2164 35.2717C65.9091 35.2385 65.612 35.2206 65.3277 35.2206C64.4724 35.2206 63.7502 35.3663 63.1561 35.65C62.5645 35.9362 62.0882 36.3221 61.7271 36.8128C61.366 37.3061 61.1099 37.8811 60.9537 38.5353C60.8 39.1922 60.7258 39.9052 60.7258 40.6719V48.316H56.0547V31.3487H60.4953H60.4979Z" fill="#00182B"/>
<path d="M17.7281 11.8682C17.7921 10.7744 18.0662 9.86712 18.5502 9.14385C19.0316 8.42059 19.6462 7.843 20.3889 7.40341C21.1341 6.96894 21.9741 6.65459 22.9063 6.46803C23.8384 6.28401 24.7757 6.18945 25.7181 6.18945C26.5709 6.18945 27.4391 6.25079 28.3149 6.37091C29.1933 6.49103 29.9949 6.72615 30.717 7.07628C31.4392 7.42642 32.0308 7.91456 32.4892 8.53815C32.9476 9.15919 33.1806 9.98723 33.1806 11.0121V19.8395C33.1806 20.6062 33.2242 21.3422 33.3112 22.0374C33.3983 22.7402 33.5545 23.2641 33.7722 23.6143H29.0371C28.95 23.351 28.8783 23.0852 28.8245 22.8092C28.7682 22.5358 28.7272 22.2597 28.7093 21.9761C27.9641 22.7402 27.0882 23.2769 26.0792 23.581C25.0702 23.8903 24.0408 24.0411 22.9908 24.0411C22.1764 24.0411 21.4209 23.9414 20.7218 23.7446C20.0176 23.5504 19.4055 23.2411 18.8805 22.8246C18.3555 22.408 17.9432 21.8841 17.6487 21.2502C17.3491 20.6164 17.2031 19.8625 17.2031 18.9884C17.2031 18.0249 17.3721 17.2327 17.7153 16.6091C18.0533 15.9855 18.4938 15.4897 19.0265 15.1165C19.5643 14.746 20.1789 14.4648 20.8678 14.2808C21.5592 14.0943 22.2532 13.9486 22.9549 13.8361C23.6566 13.7262 24.3481 13.6393 25.0293 13.5754C25.7079 13.509 26.3123 13.4093 26.8398 13.279C27.3648 13.1486 27.7822 12.9544 28.087 12.704C28.3943 12.4535 28.5351 12.0855 28.5147 11.6024C28.5147 11.1015 28.4327 10.7028 28.2688 10.4038C28.1049 10.1099 27.8872 9.87989 27.6107 9.71888C27.3392 9.55276 27.0216 9.44543 26.6554 9.3892C26.2944 9.33297 25.9051 9.30742 25.4902 9.30742C24.5709 9.30742 23.8461 9.50165 23.3186 9.89778C22.7936 10.2888 22.4863 10.9482 22.3992 11.8657H17.7307L17.7281 11.8682ZM28.5121 15.3159C28.3149 15.4897 28.0691 15.6277 27.7746 15.7248C27.4775 15.8219 27.1599 15.9037 26.8193 15.9701C26.4813 16.034 26.1228 16.0903 25.7514 16.1337C25.3801 16.1772 25.0062 16.2334 24.6349 16.2998C24.284 16.3663 23.9383 16.4506 23.6003 16.5605C23.2597 16.673 22.9652 16.8186 22.7142 17.0052C22.4607 17.1918 22.2558 17.4269 22.1021 17.7131C21.9485 17.9994 21.8742 18.3572 21.8742 18.7942C21.8742 19.2312 21.9485 19.5609 22.1021 19.8446C22.2532 20.1308 22.4684 20.3557 22.7296 20.5193C22.9933 20.6854 23.2981 20.7979 23.6489 20.8643C23.9998 20.9308 24.3634 20.9614 24.7373 20.9614C25.6567 20.9614 26.3661 20.8107 26.8706 20.504C27.3751 20.1947 27.7464 19.8318 27.9897 19.405C28.2304 18.9757 28.3815 18.5463 28.4327 18.1093C28.489 17.6722 28.5147 17.3196 28.5147 17.0589V15.321L28.5121 15.3159Z" fill="#00182B"/>
<path d="M38.891 19.4007C39.0984 19.761 39.3699 20.0575 39.6951 20.2849C40.0229 20.5175 40.4019 20.6862 40.8296 20.7961C41.2573 20.906 41.7003 20.9596 42.1613 20.9596C42.4891 20.9596 42.8348 20.9239 43.1959 20.8472C43.5595 20.7705 43.8873 20.6478 44.1818 20.4868C44.4814 20.3207 44.7273 20.1035 44.9245 19.83C45.1191 19.5565 45.219 19.2115 45.219 18.7949C45.219 18.0972 44.7555 17.5708 43.8207 17.2206C42.8886 16.8705 41.5902 16.5229 39.9256 16.1702C39.2444 16.0195 38.5811 15.838 37.9358 15.631C37.2879 15.424 36.7142 15.148 36.2123 14.8106C35.7052 14.4707 35.3006 14.0439 34.9958 13.5302C34.6885 13.0191 34.5323 12.3878 34.5323 11.6466C34.5323 10.5502 34.75 9.65574 35.1751 8.95548C35.6028 8.25521 36.1636 7.70318 36.8679 7.29682C37.5696 6.89046 38.3609 6.60678 39.2367 6.44322C40.1125 6.27965 41.0114 6.19531 41.9333 6.19531C42.8553 6.19531 43.7465 6.28476 44.6121 6.45855C45.4776 6.63489 46.251 6.9288 46.9297 7.34282C47.6083 7.75941 48.1717 8.31144 48.6224 9.00148C49.0732 9.68896 49.342 10.5579 49.4291 11.6083H44.9911C44.9245 10.7138 44.5839 10.1055 43.9693 9.78608C43.3572 9.46917 42.6325 9.31327 41.7976 9.31327C41.5364 9.31327 41.2496 9.32861 40.9448 9.35928C40.635 9.3925 40.3558 9.46406 40.1049 9.57396C39.8513 9.68385 39.6388 9.84231 39.4646 10.0493C39.2879 10.2563 39.2009 10.5375 39.2009 10.8876C39.2009 11.3042 39.3545 11.6441 39.6593 11.9048C39.9666 12.168 40.3661 12.3801 40.8603 12.5437C41.352 12.7098 41.9154 12.8555 42.5531 12.9858C43.1882 13.1162 43.8335 13.2593 44.4943 13.4126C45.1729 13.566 45.8362 13.75 46.4815 13.9698C47.1269 14.1896 47.7031 14.4809 48.2076 14.8387C48.7121 15.2016 49.1167 15.6489 49.424 16.183C49.7287 16.7197 49.885 17.3816 49.885 18.1688C49.885 19.2856 49.657 20.221 49.2089 20.9724C48.7607 21.7289 48.1743 22.3346 47.4495 22.7946C46.7274 23.2521 45.9002 23.5741 44.9655 23.7632C44.0333 23.9473 43.0857 24.0418 42.1228 24.0418C41.1599 24.0418 40.1714 23.9421 39.229 23.7454C38.2866 23.5511 37.4466 23.2214 36.7142 22.7614C35.9792 22.3014 35.38 21.6957 34.9088 20.9392C34.4376 20.1827 34.1763 19.2371 34.1328 18.0998H38.5734C38.5734 18.6033 38.6759 19.0326 38.8859 19.3955L38.891 19.4007Z" fill="#00182B"/>
<path d="M50.5078 23.6023V0.255859H55.7982V9.44186H56.0887C56.4659 8.46527 57.103 7.69723 58 7.13773C58.897 6.57823 59.9572 6.29848 61.1804 6.29848C63.0356 6.29848 64.4678 6.85289 65.4769 7.96172C66.4963 9.06038 67.0059 10.6372 67.0059 12.6921V23.6023H61.6085V13.9128C61.6085 12.865 61.374 12.0664 60.9051 11.5171C60.4362 10.9678 59.7533 10.6931 58.8563 10.6931C57.9388 10.6931 57.2151 10.9932 56.6851 11.5934C56.1652 12.1936 55.9053 12.9871 55.9053 13.9738V23.6023H50.5078Z" fill="#00182B"/>
<path d="M16.6459 12.8588H11.6134C11.4999 12.0501 11.1953 11.4256 10.6998 10.9854C10.2043 10.5349 9.54365 10.3097 8.71781 10.3097C6.57062 10.3097 5.49702 11.8914 5.49702 15.0548C5.49702 18.2488 6.57062 19.8459 8.71781 19.8459C10.4005 19.8459 11.3657 19.0371 11.6134 17.4196H16.6459C16.4807 19.4773 15.6962 21.0949 14.2923 22.2722C12.8986 23.4392 11.0405 24.0228 8.71781 24.0228C5.87897 24.0228 3.7163 23.2601 2.22978 21.7347C0.743259 20.1991 0 17.9724 0 15.0548C0 12.1473 0.743259 9.93603 2.22978 8.42088C3.7163 6.8955 5.87897 6.13281 8.71781 6.13281C11.0715 6.13281 12.9348 6.72658 14.3077 7.91413C15.691 9.10167 16.4704 10.7499 16.6459 12.8588Z" fill="#00182B"/>
<defs>
<linearGradient id="paint0_linear_655_27578" x1="94.4843" y1="0" x2="94.4843" y2="48.929" gradientUnits="userSpaceOnUse">
<stop stop-color="#66CBFF"/>
<stop offset="0.5" stop-color="#00A9FF"/>
<stop offset="1" stop-color="#0277D9"/>
</linearGradient>
</defs>
</svg>
