<svg width="1733" height="543" viewBox="0 0 1733 543" fill="none" xmlns="http://www.w3.org/2000/svg">
<rect width="1733" height="336" fill="white"/>
<g opacity="0.16">
<path d="M748.508 241.012C783.002 254.169 815.895 276.091 845.136 305.41C888.374 349.248 893.756 380.901 930.773 403.146C966.746 424.744 1009.06 423.332 1039.53 405.164C1081.1 380.361 1074.09 340.153 1117.33 264.127C1142.76 219.449 1190.43 135.587 1266.8 125.309C1305.38 120.121 1348.1 134.143 1387.8 147.163C1436.46 163.122 1445.61 174.922 1470.1 175.751C1499.2 176.748 1540.47 161.963 1586.82 83.4398" stroke="url(#paint0_linear_678_29177)" stroke-miterlimit="10"/>
<path d="M749.352 248.518C780.332 259.923 810.119 278.385 837.224 302.98C839.825 305.371 842.443 307.839 845.094 310.382C888.292 352.544 893.81 382.685 930.28 404.294C946.189 413.761 963.014 419.254 979.777 420.454C991.782 421.301 1003.62 420.103 1015 416.893C1023.51 414.486 1031.65 410.807 1039.29 405.926C1047.84 400.655 1055.47 393.475 1061.87 384.675C1073.65 368.429 1079.99 348.669 1090.87 323.211C1099.07 304.049 1108.64 286.054 1119.47 269.427C1125.18 260.522 1131.79 249.85 1139.69 238.659C1160.81 208.653 1188.89 174.886 1227.65 156.624C1240.77 150.34 1254.6 146.095 1268.86 143.97C1271.05 143.638 1273.23 143.388 1275.4 143.184C1296.84 141.129 1318.3 143.717 1340.71 148.535C1357.46 152.049 1373.78 157.47 1389.85 162.391C1396.6 164.517 1402.65 166.474 1408.13 168.353C1441.28 179.758 1451.02 187.701 1471.83 187.415C1487.63 187.195 1507.01 182.196 1529.18 165.153C1547.36 151.195 1567.57 128.9 1589.39 94.6653" stroke="url(#paint1_linear_678_29177)" stroke-miterlimit="10"/>
<path d="M750.211 256.045C780.761 266.851 810.215 284.542 837.139 308.255C839.722 310.546 842.32 312.903 844.933 315.325C888.169 355.812 893.843 384.397 929.751 405.434C945.727 415.056 962.638 420.71 979.51 422.07C991.586 422.923 1003.49 421.656 1014.9 418.305C1023.39 415.762 1031.48 411.853 1038.99 406.664C1047.41 401.027 1054.94 393.651 1061.34 384.788C1073.62 368.017 1080.65 348.697 1091.68 324.726C1100.15 306.51 1110.14 289.679 1121.5 274.488C1127.4 266.404 1134.01 256.636 1142.07 246.622C1163.54 219.928 1190.52 190.915 1229.29 174.643C1242.67 168.918 1256.58 164.877 1270.85 162.57C1273.06 162.232 1275.25 161.94 1277.43 161.713C1299.17 159.363 1319.9 161.048 1342.49 164.735C1359.51 167.53 1375.66 172.825 1391.82 177.602C1398.54 179.572 1404.61 181.379 1410.18 183.094C1443.15 193.306 1452.98 200.407 1473.46 199.043C1489.07 198.005 1508.13 192.296 1530.4 175.086C1548.58 161.004 1569.17 138.952 1591.92 105.926" stroke="url(#paint2_linear_678_29177)" stroke-miterlimit="10"/>
<path d="M750.938 263.494C781.124 273.711 810.307 290.667 837.098 313.555C839.659 315.77 842.244 318.02 844.827 320.332C888.124 359.119 893.891 386.202 929.232 406.587C945.966 416.231 961.681 422.344 979.244 423.72C991.402 424.584 1003.38 423.247 1014.84 419.745C1023.31 417.061 1031.34 412.915 1038.72 407.41C1047.01 401.41 1054.46 393.835 1060.87 384.903C1073.62 367.614 1081.33 348.777 1092.53 326.309C1101.28 309.027 1111.71 293.388 1123.61 279.711C1129.76 272.431 1136.32 263.58 1144.53 254.746C1166.44 231.14 1192.22 207.047 1231 192.726C1244.61 187.568 1258.62 183.733 1272.92 181.248C1275.14 180.887 1277.4 180.559 1279.51 180.325C1300.81 177.865 1322.5 178.108 1344.29 181.049C1361.57 183.105 1377.58 188.349 1393.88 192.871C1400.57 194.723 1406.65 196.364 1412.32 197.912C1445.09 206.914 1455.01 213.131 1475.17 210.751C1490.6 208.931 1509.38 202.444 1531.7 185.077C1549.93 170.985 1570.81 148.99 1594.46 117.074" stroke="url(#paint3_linear_678_29177)" stroke-miterlimit="10"/>
<path d="M751.727 270.977C781.513 280.62 810.391 296.819 837.029 318.827C839.572 320.963 842.145 323.093 844.691 325.31C887.995 362.492 893.917 387.875 928.709 407.747C945.783 417.458 961.099 423.929 978.983 425.355C991.214 426.239 1003.26 424.825 1014.74 421.158C1023.23 418.35 1031.22 413.967 1038.49 408.135C1046.64 401.807 1054.01 394.075 1060.42 385.12C1073.64 367.293 1082.12 348.98 1093.39 327.853C1101.35 312.968 1111.64 299.2 1125.73 284.896C1132.12 278.385 1138.7 270.415 1147.01 262.791C1169.49 242.16 1193.94 223.137 1232.66 210.784C1246.49 206.181 1260.6 202.545 1274.91 199.889C1277.16 199.501 1279.39 199.16 1281.53 198.877C1302.77 195.96 1324.39 195.424 1346.15 197.273C1363.73 198.583 1379.52 203.815 1395.9 208.029C1402.49 209.781 1408.69 211.291 1414.45 212.636C1447.03 220.531 1457.02 225.765 1476.88 222.342C1492.13 219.721 1510.6 212.501 1533 194.994C1551.19 180.765 1572.44 158.996 1596.98 128.234" stroke="url(#paint4_linear_678_29177)" stroke-miterlimit="10"/>
<path d="M752.555 278.459C781.938 287.542 810.505 302.985 836.985 324.102C839.506 326.141 842.051 328.153 844.571 330.253C887.886 365.644 893.975 389.652 928.171 408.878C945.59 418.676 960.508 425.504 978.698 426.984C991.012 427.88 1003.13 426.388 1014.65 422.557C1023.11 419.628 1031.03 415.023 1038.14 408.893C1046.16 402.218 1053.44 394.293 1059.86 385.269C1073.57 366.941 1082.85 349.207 1094.16 329.427C1102.53 314.86 1113.42 302.436 1127.75 290.091C1134.42 284.342 1141.01 277.292 1149.36 270.79C1172.59 252.971 1195.58 239.173 1234.3 228.731C1247.76 225.098 1262.62 221.001 1276.91 218.434C1279.18 218.021 1281.37 217.666 1283.56 217.335C1304.7 213.967 1326.19 212.656 1347.88 213.412C1365.72 213.984 1381.4 219.181 1397.9 223.202C1404.54 224.82 1410.67 226.121 1416.53 227.338C1448.94 234.222 1459.15 238.894 1478.55 234.055C1493.54 230.319 1511.79 222.657 1534.24 204.953C1552.4 190.545 1574.04 169.039 1599.48 139.45" stroke="url(#paint5_linear_678_29177)" stroke-miterlimit="10"/>
<path d="M753.367 285.93C782.356 294.465 810.616 309.158 836.944 329.382C839.442 331.323 841.98 333.234 844.458 335.22C887.83 368.953 894.037 391.372 927.656 410.03C945.366 419.885 959.92 427.084 978.45 428.631C990.82 429.523 1002.99 427.958 1014.53 423.991C1022.99 420.922 1030.85 416.083 1037.83 409.65C1045.69 402.611 1052.89 394.502 1059.33 385.439C1073.5 366.573 1083.61 349.328 1094.92 330.99C1103.7 316.659 1115.22 305.693 1129.77 295.294C1136.73 290.301 1144.67 286.522 1151.74 278.973C1178.51 271.307 1196.63 252.326 1235.92 246.895C1249.8 244.996 1264.68 239.868 1278.86 237.138C1281.16 236.718 1283.39 236.314 1285.54 235.97C1308.55 232.243 1326.29 229.96 1349.61 229.638C1367.71 229.451 1383.24 234.642 1399.85 238.392C1406.39 239.909 1412.6 241.047 1418.56 242.097C1450.72 247.785 1460.91 250.979 1480.16 245.58C1495.05 241.352 1512.94 232.642 1535.45 214.82C1553.65 200.405 1575.58 178.975 1601.95 150.552" stroke="url(#paint6_linear_678_29177)" stroke-miterlimit="10"/>
<path d="M754.164 293.416C782.755 301.404 810.705 315.333 836.878 334.638C839.373 336.497 841.885 338.291 844.322 340.163C887.814 372.183 894.135 393.055 927.18 411.165C945.289 421.073 959.386 428.643 978.226 430.263C990.706 431.176 1002.97 429.52 1014.57 425.358C1024.02 422.08 1031.1 416.4 1037.67 410.342C1045.38 402.95 1052.5 394.653 1058.97 385.539C1073.61 366.155 1084.65 349.482 1095.9 332.492C1105.11 318.537 1117.31 308.918 1131.94 300.434C1139.24 296.205 1147.29 293.78 1154.27 287.011C1182.02 283.627 1199.09 271.587 1237.68 264.894C1251.53 262.509 1266.86 258.573 1280.99 255.795C1283.29 255.273 1285.55 254.902 1287.68 254.522C1311.01 250.434 1328 247.19 1351.54 245.976C1369.89 245.054 1385.27 250.216 1402 253.714C1408.5 255.114 1414.73 256.085 1420.79 256.969C1452.78 261.584 1463.05 263.815 1481.96 257.318C1496.68 252.308 1514.26 242.865 1536.85 224.884C1555.06 210.465 1577.32 189.125 1604.61 161.872" stroke="url(#paint7_linear_678_29177)" stroke-miterlimit="10"/>
<path d="M754.988 300.885C783.174 308.349 810.804 321.509 836.82 339.861C839.298 341.641 841.802 343.334 844.281 345.053C887.763 375.389 894.236 394.685 926.659 412.237C945.108 422.211 958.811 430.159 977.968 431.81C990.513 432.75 1002.84 431.033 1014.45 426.727C1024.01 423.302 1030.89 417.34 1037.36 411.037C1045.36 403.259 1051.48 394.876 1058.44 385.687C1073.57 365.802 1088.34 352.557 1096.71 334.042C1108.51 323.28 1117.85 305.739 1134.05 305.615C1142.48 305.55 1149.87 301.033 1156.75 295.071C1185.48 295.946 1200.9 287.774 1239.41 282.932C1253.45 281.159 1269.07 277.283 1283.05 274.414C1285.39 273.883 1287.62 273.375 1289.78 273.07C1313.4 268.628 1329.65 264.36 1353.38 262.218C1372.03 260.508 1387.22 265.672 1404.05 268.921C1410.53 270.204 1416.78 271.025 1422.93 271.725C1454.69 275.305 1465.09 276.416 1483.71 268.958C1498.25 263.123 1515.54 252.945 1538.17 234.81C1556.39 220.267 1578.93 199.151 1607.19 173.053" stroke="url(#paint8_linear_678_29177)" stroke-miterlimit="10"/>
<path d="M755.797 308.332C783.598 315.297 810.922 327.721 836.784 345.156C839.24 346.839 841.7 348.336 844.185 350.013C887.817 378.629 894.28 396.384 926.16 413.381C944.959 423.399 958.253 431.728 977.721 433.452C990.343 434.392 1002.74 432.598 1014.39 428.144C1024.05 424.571 1030.71 418.268 1037.11 411.776C1044.88 403.842 1050.85 395.167 1057.96 385.801C1073.55 365.358 1089.45 353.027 1097.59 335.532C1110.05 325.504 1120.4 308.721 1136.19 310.745C1144.82 311.847 1152.48 308.278 1159.21 303.11C1188.92 308.243 1202.72 303.976 1241.12 300.948C1255.36 299.768 1271.12 296.022 1285.11 293.009L1291.83 291.482C1315.77 286.66 1331.32 281.421 1355.19 278.319C1374.13 275.847 1389.15 281.028 1406.09 284.006C1412.54 285.171 1418.8 285.826 1425.04 286.34C1456.57 288.922 1467.09 288.936 1485.41 280.478C1499.77 273.823 1516.77 262.909 1539.46 244.636C1557.67 229.993 1580.62 209.05 1609.73 184.116" stroke="url(#paint9_linear_678_29177)" stroke-miterlimit="10"/>
<path d="M756.559 315.785C783.951 322.279 810.94 333.95 836.629 350.412C839.059 351.916 841.519 353.413 843.964 354.913C887.61 381.82 894.24 397.995 925.575 414.499C944.72 424.542 957.684 433.254 977.399 435.045C990.098 436.017 1002.56 434.152 1014.24 429.534C1024.02 425.81 1030.47 419.286 1036.76 412.492C1044.28 404.285 1050.14 395.451 1057.39 385.927C1073.47 364.963 1090.49 353.51 1098.31 337.074C1111.45 327.756 1124.4 322.55 1138.16 315.908C1146.97 316.128 1154.91 315.537 1161.56 311.168C1192.26 320.641 1204.4 320.226 1242.7 318.948C1257.16 318.478 1273.2 314.978 1287.04 311.607C1289.42 311.066 1291.7 310.548 1293.81 310.07C1317.9 304.164 1332.82 298.635 1356.92 294.598C1376.15 291.362 1390.98 296.543 1408.05 299.266C1414.47 300.295 1420.78 300.815 1427.04 301.12C1458.34 302.705 1468.92 301.597 1486.97 292.129C1501.16 284.669 1517.86 273.022 1540.63 254.586C1558.84 239.861 1582.08 219.099 1612.15 195.305" stroke="url(#paint10_linear_678_29177)" stroke-miterlimit="10"/>
<path d="M757.383 323.26C784.409 329.265 811.105 340.177 836.654 355.662C839.07 357.17 841.513 358.527 843.931 359.91C887.675 385.067 894.388 399.702 925.097 415.629C944.601 425.754 957.078 434.844 977.177 436.692C989.988 437.684 1002.55 435.727 1014.28 430.915C1024.23 427.031 1030.5 420.24 1036.56 413.228C1043.93 404.791 1049.61 395.749 1056.96 385.977C1073.5 364.498 1091.65 353.916 1099.19 338.532C1112.99 329.948 1126.48 326.162 1140.3 320.968C1149.44 322.181 1157.5 322.692 1164.05 319.106C1195.71 332.784 1206.24 336.393 1244.42 336.867C1259.1 337.049 1275.35 333.603 1289.12 330.125C1291.53 329.577 1293.81 329.059 1295.93 328.578C1320.3 322.279 1334.5 315.703 1358.8 310.778C1378.28 306.783 1392.97 311.979 1410.14 314.43C1416.54 315.361 1422.8 315.666 1429.26 315.863C1460.35 316.49 1471.09 314.213 1488.78 303.758C1502.79 295.477 1519.2 283.114 1542.03 264.521C1560.23 249.714 1583.88 229.107 1614.8 206.496" stroke="url(#paint11_linear_678_29177)" stroke-miterlimit="10"/>
<path d="M758.184 330.693C784.83 336.243 811.213 346.408 836.601 360.905C839.031 362.409 841.426 363.551 843.822 364.836C887.674 388.221 894.47 401.316 924.585 416.741C944.435 426.89 956.504 436.361 976.928 438.279C989.788 439.284 1002.39 437.263 1014.13 432.315C1024.04 428.294 1030.29 421.2 1036.25 413.924C1043.32 405.286 1048.89 396.023 1056.46 386.181C1073.47 364.161 1092.75 354.478 1100.01 340.122C1114.48 332.249 1128.43 329.779 1142.38 326.238C1151.84 328.428 1160.05 330.057 1166.49 327.259C1199.13 345.214 1208.02 352.774 1246.11 354.997C1261 355.849 1277.4 352.165 1291.13 348.88C1293.57 348.325 1295.87 347.804 1297.99 347.322C1322.67 340.624 1336.32 333.904 1360.62 327.211C1380.22 321.812 1394.9 327.647 1412.19 329.886C1418.62 330.665 1425.03 330.993 1431.4 330.868C1462.27 330.556 1473.12 327.104 1490.5 315.65C1504.34 306.544 1520.45 293.468 1543.34 274.718C1561.61 259.813 1585.52 239.371 1617.37 217.929" stroke="url(#paint12_linear_678_29177)" stroke-miterlimit="10"/>
<path d="M758.008 333.969C784.289 339.107 810.364 348.551 835.59 362.068C837.975 363.376 840.385 364.514 842.769 365.679C886.713 387.296 893.623 398.843 923.11 413.752C943.314 423.965 954.975 433.816 975.705 435.788C988.646 436.814 1001.32 434.721 1013.09 429.618C1023.18 425.413 1029.2 418.082 1035.06 410.543C1041.82 401.564 1047.22 392.112 1054.99 382.123C1072.49 359.644 1092.89 350.753 1099.86 337.469C1114.99 330.311 1129.42 329.211 1143.49 327.206C1153.27 330.393 1161.61 333.124 1167.95 331.129C1201.57 353.343 1208.88 365.006 1246.78 368.731C1261.9 370.251 1278.5 366.581 1292.17 363.166L1299.02 361.426C1324.19 355.09 1336.74 345.864 1361.41 339.025C1381.45 333.445 1395.8 338.718 1413.19 340.626C1419.65 341.281 1426.1 341.457 1432.49 341.154C1463.07 339.921 1474.09 335.238 1491.16 322.806C1504.83 312.876 1520.65 299.084 1543.6 280.177C1561.85 265.194 1586.13 244.916 1618.88 224.644" stroke="url(#paint13_linear_678_29177)" stroke-miterlimit="10"/>
<path d="M757.426 335.4C783.317 340.063 809.063 348.711 834.104 361.155C836.486 362.382 838.869 363.403 841.226 364.451C885.347 384.321 892.298 394.42 921.218 408.738C941.783 418.972 953.024 429.226 974.08 431.268C987.1 432.282 999.843 430.084 1011.63 424.794C1021.8 420.425 1027.7 412.919 1033.36 405.051C1039.96 396.008 1045.25 386.293 1053.1 376.143C1071.06 353.083 1092.59 345.13 1099.29 332.895C1115.09 326.447 1129.83 323.551 1144.2 326.269C1154.5 328.226 1162.8 334.38 1168.93 332.986C1203.52 359.462 1209.22 375.231 1247.01 380.647C1262.34 382.88 1279.17 379.2 1292.75 375.684C1295.25 375.116 1297.54 374.431 1299.62 373.875C1325.11 367.14 1336.91 356.913 1361.78 349.124C1382.07 342.765 1396.27 348.071 1413.76 349.65C1420.26 350.206 1426.74 350.232 1433.14 349.727C1463.51 347.598 1474.63 341.678 1491.4 328.266C1504.88 317.495 1520.41 302.987 1543.42 283.942C1561.66 268.881 1586.3 248.768 1619.94 229.548" stroke="url(#paint14_linear_678_29177)" stroke-miterlimit="10"/>
<path d="M756.879 336.781C782.405 341.027 807.835 348.918 832.694 360.306C835.07 361.432 837.44 362.332 839.761 363.285C883.952 381.289 890.963 389.811 919.296 403.729C940.193 413.99 951.03 424.645 972.48 426.721C985.589 427.832 998.421 425.615 1010.25 420.196C1020.54 415.657 1026.25 407.822 1031.79 399.799C1038.17 390.557 1043.31 380.588 1051.38 370.264C1069.8 346.69 1092.46 339.631 1098.9 328.422C1115.33 322.633 1130.76 321.41 1145.04 325.443C1155.77 328.475 1164.07 335.512 1170.2 335.127C1205.76 365.885 1209.85 385.741 1247.53 392.766C1263.08 395.709 1280.08 392.011 1293.63 388.459L1300.53 386.562C1326.31 379.45 1337.37 368.2 1362.45 359.499C1383.03 352.337 1397.08 357.8 1414.67 359.045C1421.22 359.52 1427.73 359.415 1434.16 358.73C1464.29 355.728 1475.54 348.548 1492.01 334.156C1505.29 322.564 1520.52 307.343 1543.6 288.138C1567.91 267.255 1593.89 249.462 1621.24 234.971" stroke="url(#paint15_linear_678_29177)" stroke-miterlimit="10"/>
<path d="M756.129 337.361C781.304 341.236 806.425 348.398 831.099 358.734C833.467 359.759 835.816 360.561 838.11 361.397C882.429 377.583 889.516 384.67 917.243 398.026C938.514 408.304 948.918 419.366 970.62 421.529C983.81 422.64 996.709 420.31 1008.55 414.68C1018.93 409.978 1024.48 401.889 1029.89 393.609C1036.04 384.173 1041.04 373.97 1049.22 363.495C1068.13 339.4 1091.86 333.248 1098.07 323.058C1115.19 318.058 1131.22 318.405 1145.46 323.701C1156.62 327.849 1164.96 335.904 1170.97 336.286C1207.52 371.302 1209.99 395.268 1247.54 403.906C1263.31 407.559 1280.52 403.814 1293.97 400.12C1296.49 399.424 1298.82 398.73 1300.9 398.134C1327.04 390.612 1337.31 378.391 1362.56 368.766C1383.39 360.826 1397.28 366.244 1415 367.296C1421.59 367.646 1428.12 367.371 1434.56 366.472C1464.48 362.613 1475.81 354.137 1491.99 338.784C1505.09 326.351 1520.03 310.433 1543.17 291.052C1567.7 270.035 1594.2 252.679 1622.23 239.267" stroke="url(#paint16_linear_678_29177)" stroke-miterlimit="10"/>
<path d="M755.031 336.439C779.859 339.934 804.667 346.349 829.144 355.602C831.489 356.528 833.83 357.23 836.102 357.968C880.552 372.274 887.747 377.794 914.828 390.762C936.46 401.062 946.449 412.547 968.468 414.74C981.736 415.881 994.705 413.48 1006.56 407.688C1017.04 402.799 1022.45 394.477 1027.71 385.943C1033.65 376.367 1038.49 365.872 1046.83 355.24C1066.21 330.626 1091.09 325.323 1097 316.208C1114.78 311.922 1131.4 313.943 1145.66 320.491C1157.2 325.805 1165.61 334.79 1171.52 335.955C1209.04 375.253 1209.88 403.313 1247.32 413.536C1263.3 417.926 1280.73 414.17 1294.11 410.349C1296.64 409.63 1298.98 408.913 1301.05 408.298C1327.46 400.406 1336.98 387.141 1362.44 376.608C1383.53 367.867 1397.28 373.339 1415.08 374.126C1421.71 374.357 1428.28 373.93 1434.73 372.848C1464.45 368.151 1475.86 358.364 1491.74 342.05C1504.65 328.835 1519.32 312.139 1542.51 292.621C1567.21 271.408 1594.18 254.438 1622.83 242.072" stroke="url(#paint17_linear_678_29177)" stroke-miterlimit="10"/>
<path d="M753.914 335.518C778.4 338.668 802.894 344.345 827.158 352.492C829.496 353.318 831.806 353.883 834.056 354.523C878.663 367.004 885.769 371.044 912.379 383.502C934.353 393.806 943.942 405.711 966.271 407.978C979.625 409.159 992.671 406.679 1004.55 400.7C1015.12 395.605 1020.39 387.087 1025.51 378.277C1031.23 368.445 1035.92 357.777 1044.4 346.987C1064.28 321.911 1090.28 317.401 1095.89 309.342C1112.19 305.909 1129.49 308.657 1145.79 317.269C1157.72 323.772 1166.23 333.66 1172.03 335.631C1210.53 379.188 1209.72 411.364 1247.07 423.17C1263.25 428.316 1280.89 424.471 1294.2 420.585C1296.77 419.837 1299.1 419.1 1301.18 418.442C1327.87 410.118 1336.72 395.976 1362.35 384.437C1383.69 374.922 1397.31 380.42 1415.22 380.936C1421.45 381.104 1427.71 379.929 1434.94 379.191C1464.91 376.144 1475.95 362.574 1491.53 345.279C1504.24 331.165 1518.64 313.831 1541.89 294.156C1566.79 272.744 1594.24 256.135 1623.5 244.774" stroke="url(#paint18_linear_678_29177)" stroke-miterlimit="10"/>
<path d="M752.816 334.604C776.974 337.418 801.159 342.35 825.202 349.367C827.529 350.072 829.821 350.559 832.058 351.079C876.722 361.491 884.017 364.254 909.964 376.246C932.313 386.568 941.41 398.893 964.124 401.216C977.582 402.429 990.723 399.864 1002.64 393.699C1013.29 388.401 1018.42 379.669 1023.4 370.602C1028.86 360.582 1033.43 349.673 1042.07 338.726C1062.41 313.051 1089.56 309.432 1094.89 302.486C1111.82 299.86 1129.62 303.924 1146.01 314.165C1158.26 321.847 1166.9 332.651 1172.59 335.41C1212.07 383.225 1209.6 419.521 1246.87 432.93C1263.26 438.808 1281.1 434.897 1294.37 430.916C1296.95 430.145 1299.31 429.362 1301.37 428.708C1328.36 419.965 1336.45 404.744 1362.3 392.372C1383.92 382.052 1397.34 387.66 1415.42 387.848C1422.1 387.577 1428.71 386.843 1435.24 385.649C1465.01 381.536 1476.12 366.883 1491.42 348.624C1503.92 333.672 1518.05 315.639 1541.3 295.82C1566.39 274.244 1594.3 258.047 1624.14 247.763" stroke="url(#paint19_linear_678_29177)" stroke-miterlimit="10"/>
<path d="M751.711 333.664C775.555 336.159 799.437 340.342 823.249 346.194C825.553 346.802 827.827 347.21 830.034 347.593C874.836 356.165 882.19 357.413 907.618 369.03C930.242 379.268 938.929 392.036 961.949 394.413C975.474 395.672 988.673 393.038 1000.59 386.703C1011.33 381.199 1016.34 372.249 1021.15 362.931C1026.44 352.723 1030.83 341.571 1039.63 330.463C1060.43 304.273 1088.76 301.577 1093.73 295.554C1111.35 293.679 1129.66 299.012 1146.17 310.821C1158.73 319.728 1167.51 331.405 1173.09 334.948C1213.55 387.045 1209.44 427.578 1246.62 442.445C1263.21 449.079 1281.26 445.102 1294.45 441.037C1297.05 440.239 1299.42 439.434 1301.48 438.741C1328.79 429.575 1336.11 413.376 1362.17 400.092C1384.06 388.953 1397.33 394.655 1415.48 394.56C1422.2 394.21 1428.85 393.326 1435.38 391.91C1464.96 386.731 1476.13 370.994 1491.13 351.755C1503.46 335.979 1517.32 317.226 1540.65 297.328C1565.93 275.565 1594.33 259.758 1624.73 250.53" stroke="url(#paint20_linear_678_29177)" stroke-miterlimit="10"/>
<path d="M750.633 332.756C777.766 335.535 802.346 339.058 821.303 343.099C823.614 343.601 825.857 343.873 828.035 344.201C872.955 350.772 880.384 350.646 905.114 361.64C928.171 371.945 936.502 385.123 959.788 387.583C973.393 388.876 986.665 386.163 998.597 379.65C1009.42 373.921 1014.31 364.792 1018.97 355.201C1024.03 344.798 1028.27 333.412 1037.22 322.147C1058.5 295.435 1087.98 293.611 1092.67 288.721C1110.96 287.622 1129.77 294.214 1146.34 307.531C1159.2 317.666 1168.6 329.304 1173.63 334.556C1220.32 383.429 1209.27 435.653 1246.39 452.015C1263.18 459.427 1281.47 455.354 1294.57 451.205C1297.2 450.381 1299.56 449.537 1301.63 448.821C1329.2 439.245 1335.77 422.065 1362.07 407.887C1384.21 395.926 1397.33 401.705 1415.6 401.295C1422.4 401.1 1429.09 400.068 1435.59 398.215C1464.54 390.237 1476.2 375.13 1490.92 354.946C1503.04 338.313 1516.6 318.867 1540.03 298.74C1565.53 276.795 1594.42 261.37 1625.37 253.178" stroke="url(#paint21_linear_678_29177)" stroke-miterlimit="10"/>
<path d="M749.52 331.836C776.875 334.297 801.116 337.013 819.331 339.968C821.631 340.35 823.851 340.524 826.008 340.754C871.075 345.318 878.553 343.845 902.697 354.437C926.125 364.74 934.036 378.383 957.628 380.898C971.325 382.227 984.678 379.433 996.632 372.735C1007.53 366.764 1012.28 357.459 1016.79 347.595C1021.65 336.992 1025.67 325.388 1034.83 313.952C1056.58 286.702 1087.11 285.789 1091.61 281.908C1112.71 281.226 1131.78 291.615 1146.53 304.382C1159.66 315.791 1169.21 328.486 1174.17 334.289C1221.06 389.161 1209.12 443.85 1246.16 461.729C1263.14 469.901 1281.67 465.732 1294.69 461.498C1297.34 460.629 1299.73 459.777 1301.78 459.045C1329.65 449.031 1335.48 430.827 1361.98 415.78C1384.38 403.022 1397.35 408.896 1415.72 408.176C1422.56 407.866 1429.28 406.677 1435.78 404.625C1464.58 395.881 1476.28 379.407 1490.72 358.24C1502.64 340.77 1515.93 320.623 1539.44 300.333C1557.67 284.616 1585.09 265.825 1626.03 255.988" stroke="url(#paint22_linear_678_29177)" stroke-miterlimit="10"/>
<path d="M748.41 330.91C775.986 333.116 799.867 334.927 817.368 336.851C819.651 337.093 821.85 337.169 824.006 337.399C869.101 339.839 876.722 337.018 900.27 347.17C923.819 357.322 931.551 371.54 955.464 374.105C969.244 375.491 982.674 372.623 994.639 365.739C1005.6 359.507 1010.26 350.059 1014.61 339.941C1019.27 329.159 1023.18 317.292 1032.43 305.712C1054.68 278.039 1086.32 277.903 1090.54 275.074C1112.31 275.102 1131.77 287.13 1146.71 301.169C1160.07 313.719 1169.73 327.581 1174.68 333.88C1221.58 394.67 1208.91 451.93 1245.92 471.278C1263.07 480.251 1281.82 475.97 1294.8 471.645C1297.46 470.753 1299.85 469.859 1301.95 469.094C1330.1 458.586 1335.22 439.495 1361.91 423.52C1384.58 409.962 1397.41 415.927 1415.88 414.897C1422.77 414.48 1429.52 413.139 1436.03 410.895C1464.67 401.366 1476.38 383.532 1490.55 361.397C1502.26 343.089 1515.29 322.243 1538.89 301.789C1557.13 285.987 1584.87 267.348 1626.74 258.719" stroke="url(#paint23_linear_678_29177)" stroke-miterlimit="10"/>
<path d="M747.312 329.988C775.085 331.902 798.614 332.848 815.407 333.761C817.678 333.883 819.859 333.881 821.966 333.895C867.15 334.341 874.888 330.198 897.845 339.929C921.997 350.15 929.049 364.708 953.287 367.343C967.157 368.787 980.668 365.838 992.642 358.75C1003.66 352.237 1008.23 342.647 1012.44 332.295C1016.87 321.295 1020.62 309.217 1030.03 297.456C1052.72 269.171 1085.1 267.099 1089.45 268.227C1111.93 273.997 1131.73 282.617 1146.89 297.963C1160.48 311.715 1170.32 326.646 1175.24 333.65C1222 400.229 1208.73 460.217 1245.71 481.029C1263.05 490.785 1282.03 486.368 1294.93 481.979C1297.63 481.057 1300.02 480.143 1302.07 479.369C1330.54 468.5 1334.87 448.353 1361.78 431.467C1384.69 417.092 1397.38 423.172 1415.97 421.828C1422.9 421.3 1429.68 419.807 1436.2 417.376C1464.67 407.081 1476.41 387.863 1490.29 364.767C1501.83 345.697 1514.56 324.053 1538.24 303.439C1556.47 287.556 1584.58 269.1 1627.35 261.625" stroke="url(#paint24_linear_678_29177)" stroke-miterlimit="10"/>
<path d="M746.199 329.07C774.205 330.787 797.333 330.714 813.426 330.594C815.681 330.575 817.844 330.495 819.944 330.408C865.188 328.805 873.067 323.375 895.41 332.65C920.015 342.891 926.511 357.863 951.106 360.499C965.063 361.983 978.654 358.952 990.642 351.681C1001.69 344.874 1006.18 335.176 1010.24 324.613C1014.46 313.373 1018.06 301.103 1027.63 289.205C1050.8 260.398 1084.62 261.617 1088.37 261.362C1111.23 259.848 1131.66 278.088 1147.01 294.751C1157.48 306.429 1167.09 319.357 1175.7 333.321C1222.28 405.554 1208.46 468.4 1245.48 490.664C1262.98 501.205 1282.22 496.709 1295.05 492.212C1297.76 491.267 1300.17 490.308 1302.17 489.524C1330.9 478.164 1334.51 457.052 1361.65 439.31C1384.79 424.101 1397.38 430.349 1416.05 428.655C1423.04 428.015 1429.85 426.364 1436.36 423.733C1464.7 412.669 1476.41 392.019 1490.04 368.011C1501.34 347.989 1513.83 325.762 1537.61 305.001C1555.86 289.033 1584.28 270.732 1627.98 264.423" stroke="url(#paint25_linear_678_29177)" stroke-miterlimit="10"/>
<path d="M745.098 328.146C773.249 329.481 796.04 328.538 811.467 327.459C862.512 323.88 870.257 316.158 892.992 325.384C917.878 335.5 924.083 351.032 948.953 353.79C962.999 355.332 976.673 352.225 988.674 344.765C1011.32 330.163 1006.21 304.554 1025.23 280.947C1048.87 251.603 1083.91 254.189 1087.29 254.51C1132.36 258.662 1165.84 315.431 1176.29 332.978C1222.62 410.697 1208.29 476.557 1245.25 500.296C1266.69 514.071 1290.84 504.329 1302.34 499.659C1331.38 487.923 1334.24 465.807 1361.58 447.137C1392.38 426.076 1404.21 443.62 1436.61 430.09C1488.28 408.42 1484.67 352.556 1536.95 306.548C1555.19 290.498 1583.96 272.365 1628.57 267.225" stroke="url(#paint26_linear_678_29177)" stroke-miterlimit="10"/>
<path d="M746.441 330.404C774.122 331.846 796.625 331.338 812.079 330.377C861.913 327.525 870.076 320.078 892.697 329.351C917.155 339.42 923.518 354.422 947.828 357.37C961.596 358.95 975.034 356.137 986.95 349.18C1009.58 336 1004.88 310.957 1023.7 288.134C1046.92 259.791 1080.77 261.701 1084.63 261.667C1120.72 261.258 1149.94 302.011 1164.75 323.936C1167.77 328.409 1170.12 332.318 1171.93 335.114C1217.93 408.198 1204.53 471.401 1240.66 493.539C1262.22 506.714 1286.51 496.65 1298.53 491.965C1309.56 487.71 1319.58 480.617 1328.03 471.078C1336.77 461.876 1344.64 451.944 1359.32 443.203C1363.82 440.535 1367.95 438.693 1371.66 437.067C1394.17 427.203 1405.78 436.265 1432.62 423.115C1443.01 418.061 1452.44 410.643 1460.5 401.176C1482.4 375.639 1490.88 336.703 1525.84 301.745C1527.89 299.689 1530.06 297.648 1532.34 295.621C1550.71 279.235 1579.83 260.467 1625.03 254.864" stroke="url(#paint27_linear_678_29177)" stroke-miterlimit="10"/>
<path d="M747.797 332.672C774.948 334.234 797.182 333.972 812.712 333.281C861.301 331.144 869.847 324.021 892.418 333.347C916.423 343.19 923.005 357.998 946.651 360.953C960.155 362.58 973.37 360.071 985.212 353.631C1007.75 341.786 1003.57 317.467 1022.17 295.315C1045.01 268.105 1077.48 267.821 1081.95 268.84C1117.23 276.759 1145.66 306.28 1160.43 326.754C1163.43 330.923 1165.7 334.663 1167.46 337.266C1213.11 405.824 1200.71 466.209 1236 486.812C1257.57 499.386 1282.09 489.005 1294.63 484.285C1305.77 480.105 1316.02 473.359 1324.92 464.346C1333.98 455.772 1342.23 446.843 1356.99 439.318C1361.57 436.96 1365.82 435.501 1369.53 433.876C1391.97 424.028 1402.65 430.835 1428.54 416.153C1438.63 410.367 1447.75 402.439 1455.56 392.659C1476.48 367.346 1485.51 326.992 1521.1 290.985C1523.18 288.909 1525.36 286.809 1527.66 284.725C1546.14 268.005 1575.61 248.603 1621.41 242.514" stroke="url(#paint28_linear_678_29177)" stroke-miterlimit="10"/>
<path d="M749.16 334.938C775.777 336.6 797.75 336.686 813.332 336.291C860.677 334.807 869.648 328.06 892.132 337.406C915.685 347.105 922.466 361.56 945.573 364.595C958.8 366.245 971.771 364.001 983.502 358.034C1005.86 347.505 1002.28 323.894 1020.65 302.49C1043.1 276.336 1074.22 274.653 1079.3 275.966C1107.63 283.687 1134.49 302.41 1156.12 329.526C1159.1 333.393 1161.32 336.96 1163 339.394C1208.24 403.276 1196.92 461.051 1231.32 480.129C1252.98 492.109 1277.66 481.381 1290.73 476.664C1301.97 472.529 1312.45 466.12 1321.81 457.657C1331.2 449.704 1339.86 441.795 1354.64 435.457C1359.35 433.441 1363.69 432.351 1367.41 430.725C1389.81 420.865 1399.5 425.491 1424.41 409.241C1434.18 402.709 1443 394.281 1450.59 384.213C1470.5 358.986 1480.19 317.392 1516.29 280.28C1518.38 278.161 1520.59 276.022 1522.91 273.863C1541.51 256.829 1571.35 236.789 1617.74 230.236" stroke="url(#paint29_linear_678_29177)" stroke-miterlimit="10"/>
<path d="M750.488 337.178C776.58 338.98 798.301 339.391 813.962 339.204C860.062 338.373 869.475 331.999 891.815 341.397C914.908 350.974 921.937 365.024 944.393 368.187C957.368 369.917 970.131 368 981.793 362.568C1004.11 353.386 1000.98 330.452 1019.15 309.773C1041.17 284.519 1071.52 285.681 1076.62 283.145C1109.64 284.423 1137.08 314.642 1151.81 332.349C1154.76 335.892 1156.91 339.27 1158.63 341.531C1203.5 400.789 1193.23 455.818 1226.71 473.335C1248.48 484.714 1273.29 473.669 1286.89 468.913C1298.26 464.828 1308.97 458.758 1318.76 450.858C1328.51 443.523 1337.54 436.662 1352.37 431.482C1357.19 429.792 1361.64 429.089 1365.38 427.457C1387.76 417.603 1396.43 419.97 1420.48 402.212C1430.66 394.676 1438.33 385.45 1445.81 375.609C1464.75 350.561 1474.96 307.531 1511.69 269.434C1513.78 267.274 1516.01 265.089 1518.37 262.879C1537.09 245.49 1567.28 224.814 1614.26 217.798" stroke="url(#paint30_linear_678_29177)" stroke-miterlimit="10"/>
<path d="M751.836 339.445C777.349 341.359 798.864 342.083 814.625 341.998C859.447 341.806 869.249 335.919 891.572 345.24C914.212 354.734 921.382 368.382 943.314 371.623C956.01 373.414 968.529 371.788 980.071 366.849C1002.17 358.784 999.674 336.756 1017.62 316.826C1039.27 292.807 1068.43 293.523 1074 290.262C1105.91 290.989 1132.79 318.806 1147.53 335.113C1150.46 338.353 1152.55 341.559 1154.26 343.638C1198.74 398.235 1189.56 450.528 1222.12 466.549C1244 477.327 1268.95 465.942 1283.06 461.193C1297.44 456.365 1306.89 449.961 1315.73 444.086C1325.84 437.369 1334.75 428.93 1350.11 427.518C1354.66 427.148 1359.08 426.039 1363.28 424.217C1385.64 414.366 1393.3 414.579 1416.44 395.198C1426.12 387.097 1433.49 377.302 1440.97 367.007C1458.96 342.195 1469.71 297.79 1507.03 258.593C1509.14 256.387 1511.39 254.15 1513.77 251.881C1532.6 234.178 1563.14 212.867 1610.72 205.366" stroke="url(#paint31_linear_678_29177)" stroke-miterlimit="10"/>
<path d="M753.188 341.736C778.23 343.757 799.435 344.819 815.186 344.962C858.79 345.335 869.046 339.879 891.289 349.259C913.532 358.638 920.853 371.861 942.186 375.258C960.772 378.211 974.636 373.519 978.422 371.322C998.596 359.542 998.419 343.237 1016.17 324.052C1037.41 301.092 1065.41 301.413 1071.41 297.459C1102.21 297.657 1128.5 322.997 1143.29 337.934C1146.19 340.874 1148.22 343.907 1149.91 345.826C1193.99 395.764 1185.95 445.251 1217.59 459.854C1239.61 470.025 1264.66 458.31 1279.31 453.542C1293.96 448.774 1303.61 442.715 1312.76 437.367C1323.22 431.271 1332.66 423.553 1347.91 423.646C1352.52 423.727 1357.02 422.85 1361.24 421.048C1383.57 411.205 1390.23 409.26 1412.45 388.279C1421.65 379.609 1428.66 369.235 1436.08 358.585C1453.17 334.144 1464.43 288.202 1502.33 247.91C1504.44 245.66 1506.71 243.377 1509.12 241.06C1528.08 223.02 1558.97 201.075 1607.14 193.09" stroke="url(#paint32_linear_678_29177)" stroke-miterlimit="10"/>
<path d="M754.527 343.926C779.054 346.125 799.997 347.535 815.793 347.811C858.127 348.719 868.835 343.757 890.99 353.157C912.739 362.402 920.306 375.28 941.061 378.789C959.177 381.848 972.785 377.872 976.644 375.721C996.516 364.586 997.025 349.667 1014.59 331.223C1035.41 309.303 1062.2 309.281 1068.68 304.541C1098.38 304.187 1124 326.925 1138.91 340.664C1141.16 342.937 1143.34 345.345 1145.43 347.877C1189.09 393.162 1182.21 439.814 1212.86 453.04C1235.03 462.579 1260.17 450.515 1275.35 445.77C1289.95 441.179 1300.12 435.352 1309.6 430.547C1320.41 425.069 1330.42 418.209 1345.51 419.654C1350.2 420.196 1354.81 419.552 1359.09 417.759C1381.4 407.9 1387.06 403.84 1408.36 381.216C1417.09 371.974 1423.74 361.068 1431.13 349.971C1447.29 325.74 1459.1 278.441 1497.56 237.053C1499.69 234.76 1501.98 232.431 1504.42 230.066C1523.45 211.699 1554.73 189.112 1603.5 180.661" stroke="url(#paint33_linear_678_29177)" stroke-miterlimit="10"/>
<path d="M755.852 346.158C779.839 348.439 800.503 350.117 816.4 350.7C857.458 352.186 868.614 347.698 890.754 357.101C912.057 366.221 919.809 378.687 939.966 382.291C957.699 385.437 970.979 382.194 974.969 380.074C994.567 369.638 995.807 356.034 1013.1 338.328C1033.52 317.468 1059.19 317.064 1066.07 311.676C1094.66 310.773 1119.62 331.11 1134.65 343.383C1136.87 345.434 1139.02 347.63 1141.08 349.961C1184.34 390.566 1178.61 434.344 1208.28 446.231C1230.61 455.16 1255.83 442.788 1271.53 438.028C1286.29 433.523 1296.79 427.992 1306.58 423.733C1318.23 418.751 1330.57 416.035 1343.25 415.668C1348.63 415.371 1353.38 416.102 1357.07 414.585C1379.35 404.712 1384 398.576 1404.38 374.29C1412.59 364.51 1418.93 352.994 1426.32 341.487C1441.62 317.616 1453.89 268.795 1492.98 226.297C1495.11 223.982 1497.43 221.584 1499.91 219.15C1519.07 200.404 1550.72 177.218 1600.05 168.314" stroke="url(#paint34_linear_678_29177)" stroke-miterlimit="10"/>
<path d="M757.488 349.319C780.942 351.701 801.363 353.743 817.3 354.501C857.024 356.517 868.628 352.503 890.605 362.004C911.476 370.996 919.403 383.073 938.982 386.787C956.186 390.054 969.25 387.497 973.375 385.429C992.741 375.745 994.593 363.399 1011.73 346.429C1031.72 326.631 1056.24 325.852 1063.55 319.77C1091.07 318.309 1115.23 336.114 1130.48 347.163C1132.67 348.988 1134.79 350.965 1136.83 353.083C1179.57 389.035 1175.15 429.886 1203.8 440.46C1226.31 448.771 1251.59 436.099 1267.83 431.32C1282.72 426.929 1293.57 421.689 1303.67 417.977C1315.17 413.738 1326.52 412.538 1341.15 412.729C1346.69 412.806 1351.5 413.873 1355.15 412.261C1377.4 402.395 1381.07 394.18 1400.53 368.192C1408.24 357.867 1414.24 345.793 1421.61 333.838C1436.06 310.364 1448.79 260.019 1488.39 216.419C1490.54 214.039 1492.87 211.618 1495.38 209.115C1514.66 190.094 1546.61 166.244 1596.58 156.844" stroke="url(#paint35_linear_678_29177)" stroke-miterlimit="10"/>
<path d="M760.125 357.627C783.049 360.128 803.192 362.44 819.206 363.468C857.723 365.963 869.797 362.521 891.664 371.945C912.089 380.812 920.21 392.516 939.206 396.322C955.939 399.695 968.729 397.838 973.004 395.818C992.148 386.925 994.617 375.796 1011.55 359.571C1031.1 340.737 1054.49 339.7 1062.24 332.882C1088.64 330.996 1111.29 349.616 1127.53 355.938C1130.01 358.173 1132.11 359.955 1133.75 361.186C1176.02 392.456 1172.91 430.419 1200.53 439.688C1223.23 447.339 1248.56 434.366 1265.33 429.59C1280.35 425.313 1291.54 420.365 1301.94 417.16C1313.8 413.539 1325.65 413.582 1340.15 414.75C1345.85 415.202 1350.72 416.604 1354.35 414.976C1376.59 405.113 1379.29 394.919 1397.78 367.156C1405.02 356.321 1410.67 343.668 1418.01 331.246C1431.64 308.185 1444.81 256.281 1484.98 211.585C1487.14 209.187 1489.49 206.707 1492.03 204.144C1511.46 184.884 1543.8 160.39 1594.34 150.614" stroke="url(#paint36_linear_678_29177)" stroke-miterlimit="10"/>
<path d="M762.613 365.075C785.052 367.687 804.919 370.286 821.002 371.546C858.25 374.515 870.857 371.65 892.58 381.189C912.555 389.912 920.869 401.243 939.273 405.163C955.53 408.624 968.028 407.388 972.486 405.491C991.431 397.424 994.497 387.496 1011.29 372.002C1030.47 354.28 1052.64 352.799 1060.84 345.283C1086.1 342.751 1108.11 359.358 1124.48 363.967C1126.46 365.644 1128.51 367.177 1130.61 368.557C1172.37 395.193 1170.56 430.063 1197.16 438.186C1220.07 445.173 1245.42 431.907 1262.72 427.154C1277.89 422.967 1289.43 418.311 1300.13 415.695C1312.35 412.692 1324.72 414.015 1339.12 416.109C1344.97 416.958 1349.91 418.674 1353.53 416.948C1375.71 407.075 1377.44 394.818 1394.99 365.357C1401.7 354.026 1407.07 340.8 1414.34 327.922C1427.16 305.312 1440.73 251.814 1481.47 206.003C1483.62 203.459 1486.02 201.022 1488.58 198.424C1508.1 178.714 1540.76 153.672 1591.91 143.264" stroke="url(#paint37_linear_678_29177)" stroke-miterlimit="10"/>
<path d="M765.16 372.528C787.054 375.263 806.661 378.148 822.791 379.685C858.756 383.069 871.746 380.796 893.459 390.358C912.987 398.956 921.495 409.914 939.316 413.924C955.132 417.486 966.971 415.392 971.935 415.107C992.027 413.997 994.34 399.12 1010.88 384.404C1029.62 367.81 1050.65 365.888 1059.29 357.656C1083.45 354.572 1104.77 369.095 1121.33 371.974C1123.29 373.448 1125.3 374.763 1127.36 375.908C1168.59 397.895 1168.12 429.684 1193.76 436.627C1216.85 442.935 1242.26 429.411 1260.1 424.639C1275.42 420.562 1287.29 416.221 1298.29 414.131C1310.87 411.747 1323.74 414.394 1338.06 417.432C1344.08 418.675 1349.06 420.69 1352.7 419.082C1374.86 409.193 1375.65 394.932 1392.21 363.72C1398.51 351.866 1403.48 338.071 1410.75 324.721C1422.74 302.588 1436.76 247.467 1478.05 200.461C1480.24 197.989 1482.63 195.391 1485.21 192.667C1504.83 172.623 1537.84 146.865 1589.6 136.052" stroke="url(#paint38_linear_678_29177)" stroke-miterlimit="10"/>
<path d="M767.701 379.984C789.083 382.918 808.379 385.997 824.596 387.782C859.278 391.58 872.732 389.921 894.361 399.522C913.439 407.976 922.123 418.483 939.391 422.784C954.751 426.449 966.295 424.895 971.415 424.822C991.164 424.447 994.214 410.842 1010.56 396.868C1028.85 381.219 1048.78 379.036 1057.84 370.089C1080.89 366.476 1101.6 378.856 1118.18 380.064C1120.11 381.341 1122.09 382.438 1124.11 383.343C1164.78 400.707 1165.75 429.396 1190.23 435.203C1213.57 440.776 1238.97 427.007 1257.33 422.261C1272.79 418.275 1285.01 414.245 1296.32 412.702C1309.26 410.935 1322.64 414.947 1336.84 418.772C1343.03 420.451 1348.07 422.76 1351.69 421.135C1373.83 411.253 1373.69 395 1389.31 362.009C1395.13 349.645 1399.76 335.291 1406.99 321.458C1418.28 299.792 1432.62 243.057 1474.5 195.093C1476.7 192.551 1479.12 189.946 1481.75 187.279C1501.51 166.918 1534.85 140.528 1587.21 129.249" stroke="url(#paint39_linear_678_29177)" stroke-miterlimit="10"/>
<path d="M770.226 387.427C791.012 390.394 810.095 393.83 826.389 395.885C859.824 400.049 873.711 399.073 895.247 408.675C913.894 417 922.779 427.235 939.442 431.53C954.332 435.302 965.581 434.288 970.871 434.422C990.284 434.884 994.061 422.43 1010.21 409.221C1028.07 394.615 1046.85 392.076 1056.35 382.413C1078.3 378.248 1098.28 388.553 1115.06 388.031C1116.96 389.103 1118.9 389.974 1120.88 390.636C1160.93 403.474 1163.34 428.83 1186.77 433.623C1210.2 438.415 1235.77 424.548 1254.65 419.744C1270.24 415.851 1282.8 412.113 1294.46 411.11C1307.73 409.964 1321.6 415.223 1335.75 420.027C1342.09 422.142 1347.19 424.705 1350.8 423.103C1372.91 413.208 1371.88 394.999 1386.43 360.217C1391.81 347.356 1396.1 332.443 1403.27 318.107C1413.81 296.981 1428.52 238.58 1470.94 189.425C1473.14 186.868 1475.6 184.254 1478.23 181.415C1498.05 160.649 1531.76 133.621 1584.73 121.957" stroke="url(#paint40_linear_678_29177)" stroke-miterlimit="10"/>
<path d="M772.761 394.848C793.062 397.925 811.836 401.637 828.202 403.942C860.302 408.492 874.692 408.162 896.144 417.804C914.345 426.004 923.449 435.84 939.472 440.177C953.92 444.049 964.874 443.576 970.321 443.921C989.39 445.119 993.89 433.94 1009.87 421.469C1027.28 407.89 1044.92 405.034 1054.83 394.661C1075.66 389.928 1094.97 398.145 1111.88 395.907C1113.76 396.77 1115.68 397.428 1117.62 397.872C1157.19 406.192 1160.96 428.2 1183.32 431.999C1207.12 436.03 1232.53 421.889 1251.98 417.183C1267.69 413.365 1280.61 409.938 1292.54 409.488C1306.17 408.96 1320.54 415.687 1334.6 421.232C1341.12 423.862 1346.25 426.624 1349.86 425.002C1371.95 415.131 1370.03 394.946 1383.54 358.362C1388.48 345.008 1392.48 329.603 1399.52 314.701C1409.35 294.107 1424.39 234.047 1467.38 183.776C1469.61 181.173 1472.06 178.451 1474.73 175.609C1494.72 154.62 1528.78 126.938 1582.33 114.71" stroke="url(#paint41_linear_678_29177)" stroke-miterlimit="10"/>
<path d="M775.297 402.33C795.068 405.527 813.559 409.488 830.006 412.084C860.82 416.967 875.693 417.329 897.051 427.033C914.796 435.07 924.069 444.559 939.539 448.981C949.61 451.627 959.732 453.166 969.793 453.579C988.515 455.494 993.737 445.59 1009.53 433.88C1026.5 421.328 1043.06 418.037 1053.39 407.035C1073.12 401.793 1091.75 407.88 1108.8 403.944C1110.66 404.594 1112.55 405.027 1114.43 405.235C1153.33 409.062 1158.6 427.623 1179.88 430.457C1203.92 433.651 1229.44 419.855 1249.29 414.687C1265.07 410.588 1278.4 407.867 1290.66 407.94C1304.6 408.04 1319.51 416.168 1333.48 422.512C1340.14 425.523 1345.36 428.614 1348.95 426.996C1371.01 417.111 1368.23 394.984 1380.7 356.581C1385.18 342.753 1388.82 326.754 1395.83 311.365C1404.93 291.327 1420.3 229.588 1463.86 178.201C1466.11 175.635 1468.55 172.796 1471.25 169.901C1491.35 148.536 1525.77 120.239 1579.91 107.547" stroke="url(#paint42_linear_678_29177)" stroke-miterlimit="10"/>
<path d="M777.818 409.798C797.134 413.099 815.277 417.303 831.783 420.153C861.302 425.33 876.646 426.408 897.935 436.148C915.201 444.047 924.686 453.18 939.559 457.696C949.429 460.52 959.36 462.388 969.264 463.283C987.658 465.868 993.579 457.265 1009.2 446.355C1025.71 434.791 1041.11 431.272 1051.92 419.481C1070.54 413.667 1088.5 417.667 1105.67 412.017C1107.52 412.446 1109.37 412.659 1111.2 412.653C1149.53 412.066 1156.25 427.089 1176.44 428.999C1200.73 431.294 1226.22 417.4 1246.63 412.272C1262.55 408.283 1276.22 405.856 1288.78 406.477C1303.12 407.188 1318.45 416.739 1332.39 423.873C1339.16 427.35 1344.47 430.688 1348.05 429.073C1370.09 419.172 1366.45 395.102 1377.84 354.888C1381.9 340.56 1385.22 324.037 1392.13 308.137C1400.57 288.66 1416.24 225.229 1460.37 172.704C1462.61 170.037 1465.11 167.207 1467.84 164.243C1488.07 142.561 1522.86 113.623 1577.56 100.455" stroke="url(#paint43_linear_678_29177)" stroke-miterlimit="10"/>
<path d="M780.338 417.264C799.061 420.679 817.009 425.113 833.594 428.315C861.779 433.815 877.654 435.595 898.844 445.378C915.693 453.146 925.357 461.971 939.633 466.519C949.282 469.432 958.991 471.54 968.698 472.828C986.775 476.06 993.402 468.798 1008.8 458.659C1024.87 448.118 1039.13 444.282 1050.38 431.755C1067.89 425.412 1085.17 427.305 1102.49 419.916C1104.32 420.13 1106.13 420.124 1107.92 419.896C1145.68 414.934 1153.79 426.292 1172.93 427.35C1197.46 428.727 1222.94 414.755 1243.9 409.705C1259.95 405.81 1273.96 403.675 1286.84 404.842C1301.53 406.171 1317.32 417.139 1331.21 425.066C1338.13 429.025 1343.49 432.555 1347.08 430.98C1369.09 421.085 1364.63 395.042 1374.93 353.021C1378.56 338.215 1381.62 321.175 1388.36 304.737C1396.19 285.831 1412.11 220.801 1456.8 167.059C1459.05 164.349 1461.57 161.474 1464.33 158.461C1484.67 136.465 1519.79 106.879 1575.13 93.296" stroke="url(#paint44_linear_678_29177)" stroke-miterlimit="10"/>
<path d="M782.855 424.722C801.052 428.277 818.747 432.892 835.383 436.452C862.338 442.191 878.625 444.762 899.727 454.565C916.14 462.185 925.978 470.62 939.666 475.303C949.114 478.377 958.624 480.768 968.15 482.462C985.911 486.343 993.211 480.408 1008.49 471.036C1024.11 461.483 1037.25 457.347 1048.94 444.122C1065.35 437.227 1081.95 437.013 1099.41 427.946C1101.21 427.86 1102.98 427.628 1104.73 427.252C1142.6 420.971 1151.45 425.582 1169.53 425.832C1194.26 426.174 1219.68 411.847 1241.25 407.234C1257.48 403.773 1271.81 401.607 1284.99 403.319C1300.04 405.267 1316.27 417.677 1330.13 426.371C1337.19 430.812 1342.64 434.59 1346.21 432.998C1368.2 423.107 1362.93 395.131 1372.11 351.308C1375.32 336.002 1378.06 318.458 1384.7 301.427C1391.83 283.112 1408.07 216.282 1453.27 161.52C1455.54 158.756 1458.07 155.844 1460.86 152.784C1481.31 130.416 1516.79 100.211 1572.71 86.1066" stroke="url(#paint45_linear_678_29177)" stroke-miterlimit="10"/>
<path d="M785.393 432.177C803.057 435.833 820.474 440.654 837.185 444.547C862.862 450.515 879.604 453.866 900.627 463.728C916.59 471.204 926.611 479.289 939.731 484.059C951.878 488.496 961.299 490.467 967.63 492.113C985.079 496.598 993.056 492.01 1008.16 483.459C1021.81 475.652 1034.94 466.645 1047.47 456.496C1061.31 445.745 1075.83 434.881 1096.29 435.967C1098.11 435.893 1099.87 435.437 1101.51 434.617C1138.25 421.047 1149.06 424.842 1166.1 424.321C1191.05 423.546 1216.47 409.34 1238.59 404.766C1255.01 401.366 1269.63 399.544 1283.12 401.784C1298.53 404.45 1315.2 418.222 1329.03 427.683C1336.21 432.609 1341.76 436.612 1345.33 435C1367.27 425.1 1361.22 395.163 1369.23 349.549C1372.01 333.743 1374.5 315.724 1380.96 298.137C1387.42 280.549 1404.03 211.969 1449.71 155.948C1451.99 153.188 1454.59 150.192 1457.36 147.075C1477.94 124.389 1513.75 93.553 1570.29 78.9589" stroke="url(#paint46_linear_678_29177)" stroke-miterlimit="10"/>
<path d="M787.915 439.627C805.049 443.404 822.172 448.292 838.999 452.693C863.382 458.893 880.6 463.041 901.524 472.946C917.11 480.261 927.256 488.009 939.778 492.874C951.474 497.434 960.685 499.843 967.088 501.74C984.241 506.828 992.861 503.574 1007.81 495.838C1022.5 488.245 1031.69 480.73 1045.99 468.865C1058.88 458.166 1074.06 453.216 1093.17 443.96C1094.92 443.109 1096.71 442.744 1098.29 441.975C1134.55 424.114 1146.64 424.039 1162.65 422.787C1187.77 420.8 1213.26 406.826 1235.9 402.278C1252.46 398.968 1267.43 397.458 1281.22 400.205C1296.98 403.411 1314.08 418.688 1327.9 428.932C1335.21 434.344 1340.92 438.557 1344.41 436.962C1366.32 427.069 1359.49 395.15 1366.39 347.672C1368.76 331.363 1371 312.904 1377.26 294.705C1383.16 277.574 1399.97 207.407 1446.2 150.274C1448.5 147.468 1451.06 144.44 1453.91 141.243C1474.6 118.244 1510.78 86.7699 1567.9 71.6963" stroke="url(#paint47_linear_678_29177)" stroke-miterlimit="10"/>
<path d="M790.527 447.06C807.131 450.957 824.01 456.065 840.865 460.727C863.98 467.133 881.63 472.025 902.488 482.048C917.565 489.232 927.967 496.614 939.912 501.59C951.132 506.236 960.07 509.078 966.622 511.291C983.493 516.977 992.758 515.057 1007.56 508.158C1021.77 501.516 1030.03 494.108 1044.61 481.236C1056.59 470.578 1071.01 463.579 1090.13 451.978C1091.83 450.954 1093.59 450.286 1095.16 449.334C1130.97 427.196 1145.18 426.806 1159.29 421.254C1183.38 411.959 1208.11 404.801 1233.33 399.828C1250.03 396.589 1265.34 395.393 1279.49 398.715C1295.6 402.54 1313.1 419.266 1326.88 430.28C1334.31 436.181 1340.06 440.609 1343.6 439.024C1365.5 429.114 1357.88 395.235 1363.66 346.057C1365.63 329.264 1367.66 310.36 1373.69 291.535C1378.99 275.015 1396 203.095 1442.8 144.865C1445.11 142.018 1447.65 138.953 1450.57 135.698C1471.38 112.342 1507.9 80.2364 1565.62 64.7158" stroke="url(#paint48_linear_678_29177)" stroke-miterlimit="10"/>
<path d="M792.488 452.396C808.562 456.413 825.175 461.643 842.153 466.709C864.005 473.278 882.098 479.098 902.928 489.066C917.551 496.024 928.16 503.153 939.517 508.201C950.271 512.974 958.951 516.245 965.609 518.721C982.238 524.976 992.102 524.4 1006.75 518.337C1020.5 512.644 1027.91 505.43 1042.65 491.308C1053.75 480.664 1067.49 471.682 1086.53 457.693C1088.18 456.474 1089.89 455.532 1091.45 454.375C1126.86 427.991 1142.09 422.802 1155.37 417.441C1179.63 407.595 1204.63 400.108 1230.17 395.038C1247 391.893 1262.66 391.009 1277.06 394.891C1293.55 399.369 1311.44 417.489 1325.26 429.172C1332.78 435.565 1338.61 440.244 1342.19 438.63C1364.05 428.707 1355.69 392.858 1360.29 341.873C1361.85 324.557 1363.72 305.236 1369.47 285.796C1374.19 269.859 1391.4 196.209 1438.76 136.864C1441.07 133.974 1443.69 130.85 1446.59 127.559C1467.51 103.87 1504.4 71.126 1562.71 55.1226" stroke="url(#paint49_linear_678_29177)" stroke-miterlimit="10"/>
<path d="M793.924 455.173C809.469 459.31 825.832 464.597 842.794 470.139C863.384 476.872 881.966 483.485 902.604 493.559C916.804 500.427 927.573 507.171 938.343 512.29C948.645 517.186 957.058 520.847 963.864 523.7C980.251 530.525 990.709 531.273 1005.2 526.069C1018.47 521.306 1025.12 514.408 1039.96 499.01C1050.21 488.456 1063.3 477.422 1082.18 461.043C1083.81 459.644 1085.47 458.425 1087 457.069C1122.05 426.387 1138.19 416.368 1150.71 411.24C1175.11 401.277 1202.02 392.325 1226.28 387.903C1243.24 384.809 1259.24 384.259 1273.97 388.685C1290.79 393.745 1309.07 413.338 1322.95 425.891C1330.59 432.792 1336.56 437.644 1340.08 436.042C1361.94 426.142 1352.81 388.288 1356.25 335.531C1357.4 317.712 1359.15 297.987 1364.57 277.903C1368.72 262.566 1386.11 187.189 1434.04 126.728C1436.38 123.812 1439 120.627 1441.94 117.266C1462.98 93.2606 1500.2 59.885 1559.11 43.3564" stroke="url(#paint50_linear_678_29177)" stroke-miterlimit="10"/>
<path d="M795.383 457.803C810.408 462.037 826.535 467.378 843.535 473.426C863.364 480.296 883.027 488.47 902.443 497.914C916.212 504.654 927.095 511.084 937.347 516.239C947.177 521.304 955.333 525.331 962.273 528.504C978.437 535.913 989.471 537.97 1003.8 533.645C1016.62 529.787 1022.58 523.315 1037.43 506.556C1046.86 495.921 1059.34 482.969 1078.01 464.232C1079.6 462.638 1081.21 461.142 1082.73 459.603C1117.41 424.627 1134.07 408.771 1146.22 404.882C1171.6 396.813 1197.74 384.951 1222.56 380.608C1239.66 377.565 1256 377.388 1271.04 382.341C1288.21 388.019 1306.89 409.146 1320.8 422.434C1328.52 429.83 1334.62 434.9 1338.14 433.318C1359.96 423.385 1350.04 383.552 1352.35 329.016C1352.91 308.656 1355.42 288.769 1359.81 269.794C1363.41 255.015 1380.97 177.934 1429.46 116.361C1431.8 113.402 1434.44 110.171 1437.41 106.762C1458.57 82.4225 1496.15 48.4087 1555.65 31.456" stroke="url(#paint51_linear_678_29177)" stroke-miterlimit="10"/>
<path d="M796.796 460.324C832.369 471.021 867.606 485.005 902.223 502.163C957.913 529.787 975.456 547.554 1002.35 541.094C1021.93 536.378 1024.04 524.22 1073.77 467.3C1111.16 424.488 1129.88 403.15 1141.66 398.418C1184.04 381.613 1230.14 362.257 1268.04 375.871C1295.36 385.68 1326.29 434.762 1336.1 430.311C1365.2 417.08 1336.59 346.932 1355 261.537C1358.07 247.312 1375.78 168.55 1424.83 105.861C1443.87 81.5303 1483.59 39.241 1552.16 19.3647" stroke="url(#paint52_linear_678_29177)" stroke-miterlimit="10"/>
</g>
<defs>
<linearGradient id="paint0_linear_678_29177" x1="1164.11" y1="146.585" x2="1214.9" y2="370.145" gradientUnits="userSpaceOnUse">
<stop stop-color="#66CBFF"/>
<stop offset="0.5" stop-color="#00A9FF"/>
<stop offset="1" stop-color="#0277D9"/>
</linearGradient>
<linearGradient id="paint1_linear_678_29177" x1="1165.37" y1="153.996" x2="1214.82" y2="371.631" gradientUnits="userSpaceOnUse">
<stop stop-color="#66CBFF"/>
<stop offset="0.5" stop-color="#00A9FF"/>
<stop offset="1" stop-color="#0277D9"/>
</linearGradient>
<linearGradient id="paint2_linear_678_29177" x1="1166.62" y1="161.434" x2="1214.71" y2="373.104" gradientUnits="userSpaceOnUse">
<stop stop-color="#66CBFF"/>
<stop offset="0.5" stop-color="#00A9FF"/>
<stop offset="1" stop-color="#0277D9"/>
</linearGradient>
<linearGradient id="paint3_linear_678_29177" x1="1167.81" y1="168.778" x2="1214.58" y2="374.628" gradientUnits="userSpaceOnUse">
<stop stop-color="#66CBFF"/>
<stop offset="0.5" stop-color="#00A9FF"/>
<stop offset="1" stop-color="#0277D9"/>
</linearGradient>
<linearGradient id="paint4_linear_678_29177" x1="1169.03" y1="176.164" x2="1214.46" y2="376.134" gradientUnits="userSpaceOnUse">
<stop stop-color="#66CBFF"/>
<stop offset="0.5" stop-color="#00A9FF"/>
<stop offset="1" stop-color="#0277D9"/>
</linearGradient>
<linearGradient id="paint5_linear_678_29177" x1="1170.25" y1="183.558" x2="1214.34" y2="377.634" gradientUnits="userSpaceOnUse">
<stop stop-color="#66CBFF"/>
<stop offset="0.5" stop-color="#00A9FF"/>
<stop offset="1" stop-color="#0277D9"/>
</linearGradient>
<linearGradient id="paint6_linear_678_29177" x1="1171.46" y1="190.938" x2="1214.22" y2="379.154" gradientUnits="userSpaceOnUse">
<stop stop-color="#66CBFF"/>
<stop offset="0.5" stop-color="#00A9FF"/>
<stop offset="1" stop-color="#0277D9"/>
</linearGradient>
<linearGradient id="paint7_linear_678_29177" x1="1172.72" y1="198.317" x2="1214.15" y2="380.67" gradientUnits="userSpaceOnUse">
<stop stop-color="#66CBFF"/>
<stop offset="0.5" stop-color="#00A9FF"/>
<stop offset="1" stop-color="#0277D9"/>
</linearGradient>
<linearGradient id="paint8_linear_678_29177" x1="1173.98" y1="205.688" x2="1214.07" y2="382.132" gradientUnits="userSpaceOnUse">
<stop stop-color="#66CBFF"/>
<stop offset="0.5" stop-color="#00A9FF"/>
<stop offset="1" stop-color="#0277D9"/>
</linearGradient>
<linearGradient id="paint9_linear_678_29177" x1="1175.22" y1="213.036" x2="1213.99" y2="383.66" gradientUnits="userSpaceOnUse">
<stop stop-color="#66CBFF"/>
<stop offset="0.5" stop-color="#00A9FF"/>
<stop offset="1" stop-color="#0277D9"/>
</linearGradient>
<linearGradient id="paint10_linear_678_29177" x1="1176.37" y1="220.403" x2="1213.81" y2="385.18" gradientUnits="userSpaceOnUse">
<stop stop-color="#66CBFF"/>
<stop offset="0.5" stop-color="#00A9FF"/>
<stop offset="1" stop-color="#0277D9"/>
</linearGradient>
<linearGradient id="paint11_linear_678_29177" x1="1177.66" y1="227.77" x2="1213.78" y2="386.725" gradientUnits="userSpaceOnUse">
<stop stop-color="#66CBFF"/>
<stop offset="0.5" stop-color="#00A9FF"/>
<stop offset="1" stop-color="#0277D9"/>
</linearGradient>
<linearGradient id="paint12_linear_678_29177" x1="1178.87" y1="235.112" x2="1213.66" y2="388.232" gradientUnits="userSpaceOnUse">
<stop stop-color="#66CBFF"/>
<stop offset="0.5" stop-color="#00A9FF"/>
<stop offset="1" stop-color="#0277D9"/>
</linearGradient>
<linearGradient id="paint13_linear_678_29177" x1="1179.13" y1="238.289" x2="1214.47" y2="393.868" gradientUnits="userSpaceOnUse">
<stop stop-color="#66CBFF"/>
<stop offset="0.5" stop-color="#00A9FF"/>
<stop offset="1" stop-color="#0277D9"/>
</linearGradient>
<linearGradient id="paint14_linear_678_29177" x1="1178.95" y1="239.628" x2="1215.68" y2="401.279" gradientUnits="userSpaceOnUse">
<stop stop-color="#66CBFF"/>
<stop offset="0.5" stop-color="#00A9FF"/>
<stop offset="1" stop-color="#0277D9"/>
</linearGradient>
<linearGradient id="paint15_linear_678_29177" x1="1178.84" y1="240.909" x2="1217.12" y2="409.381" gradientUnits="userSpaceOnUse">
<stop stop-color="#66CBFF"/>
<stop offset="0.5" stop-color="#00A9FF"/>
<stop offset="1" stop-color="#0277D9"/>
</linearGradient>
<linearGradient id="paint16_linear_678_29177" x1="1178.52" y1="241.392" x2="1218.53" y2="417.498" gradientUnits="userSpaceOnUse">
<stop stop-color="#66CBFF"/>
<stop offset="0.5" stop-color="#00A9FF"/>
<stop offset="1" stop-color="#0277D9"/>
</linearGradient>
<linearGradient id="paint17_linear_678_29177" x1="1177.83" y1="240.378" x2="1220.32" y2="427.413" gradientUnits="userSpaceOnUse">
<stop stop-color="#66CBFF"/>
<stop offset="0.5" stop-color="#00A9FF"/>
<stop offset="1" stop-color="#0277D9"/>
</linearGradient>
<linearGradient id="paint18_linear_678_29177" x1="1177.17" y1="239.353" x2="1222.14" y2="437.296" gradientUnits="userSpaceOnUse">
<stop stop-color="#66CBFF"/>
<stop offset="0.5" stop-color="#00A9FF"/>
<stop offset="1" stop-color="#0277D9"/>
</linearGradient>
<linearGradient id="paint19_linear_678_29177" x1="1176.47" y1="238.347" x2="1223.95" y2="447.305" gradientUnits="userSpaceOnUse">
<stop stop-color="#66CBFF"/>
<stop offset="0.5" stop-color="#00A9FF"/>
<stop offset="1" stop-color="#0277D9"/>
</linearGradient>
<linearGradient id="paint20_linear_678_29177" x1="1175.77" y1="237.315" x2="1225.71" y2="457.093" gradientUnits="userSpaceOnUse">
<stop stop-color="#66CBFF"/>
<stop offset="0.5" stop-color="#00A9FF"/>
<stop offset="1" stop-color="#0277D9"/>
</linearGradient>
<linearGradient id="paint21_linear_678_29177" x1="1175.13" y1="236.309" x2="1227.53" y2="466.928" gradientUnits="userSpaceOnUse">
<stop stop-color="#66CBFF"/>
<stop offset="0.5" stop-color="#00A9FF"/>
<stop offset="1" stop-color="#0277D9"/>
</linearGradient>
<linearGradient id="paint22_linear_678_29177" x1="1174.46" y1="235.288" x2="1229.35" y2="476.887" gradientUnits="userSpaceOnUse">
<stop stop-color="#66CBFF"/>
<stop offset="0.5" stop-color="#00A9FF"/>
<stop offset="1" stop-color="#0277D9"/>
</linearGradient>
<linearGradient id="paint23_linear_678_29177" x1="1173.82" y1="234.256" x2="1231.17" y2="486.699" gradientUnits="userSpaceOnUse">
<stop stop-color="#66CBFF"/>
<stop offset="0.5" stop-color="#00A9FF"/>
<stop offset="1" stop-color="#0277D9"/>
</linearGradient>
<linearGradient id="paint24_linear_678_29177" x1="1173.12" y1="233.244" x2="1232.98" y2="496.7" gradientUnits="userSpaceOnUse">
<stop stop-color="#66CBFF"/>
<stop offset="0.5" stop-color="#00A9FF"/>
<stop offset="1" stop-color="#0277D9"/>
</linearGradient>
<linearGradient id="paint25_linear_678_29177" x1="1172.43" y1="232.229" x2="1234.77" y2="506.614" gradientUnits="userSpaceOnUse">
<stop stop-color="#66CBFF"/>
<stop offset="0.5" stop-color="#00A9FF"/>
<stop offset="1" stop-color="#0277D9"/>
</linearGradient>
<linearGradient id="paint26_linear_678_29177" x1="1171.73" y1="231.213" x2="1236.56" y2="516.527" gradientUnits="userSpaceOnUse">
<stop stop-color="#66CBFF"/>
<stop offset="0.5" stop-color="#00A9FF"/>
<stop offset="1" stop-color="#0277D9"/>
</linearGradient>
<linearGradient id="paint27_linear_678_29177" x1="1172.33" y1="233.64" x2="1234.77" y2="508.428" gradientUnits="userSpaceOnUse">
<stop stop-color="#66CBFF"/>
<stop offset="0.5" stop-color="#00A9FF"/>
<stop offset="1" stop-color="#0277D9"/>
</linearGradient>
<linearGradient id="paint28_linear_678_29177" x1="1172.9" y1="236.086" x2="1232.94" y2="500.345" gradientUnits="userSpaceOnUse">
<stop stop-color="#66CBFF"/>
<stop offset="0.5" stop-color="#00A9FF"/>
<stop offset="1" stop-color="#0277D9"/>
</linearGradient>
<linearGradient id="paint29_linear_678_29177" x1="1173.44" y1="238.539" x2="1231.1" y2="492.318" gradientUnits="userSpaceOnUse">
<stop stop-color="#66CBFF"/>
<stop offset="0.5" stop-color="#00A9FF"/>
<stop offset="1" stop-color="#0277D9"/>
</linearGradient>
<linearGradient id="paint30_linear_678_29177" x1="1174.07" y1="240.938" x2="1229.34" y2="484.192" gradientUnits="userSpaceOnUse">
<stop stop-color="#66CBFF"/>
<stop offset="0.5" stop-color="#00A9FF"/>
<stop offset="1" stop-color="#0277D9"/>
</linearGradient>
<linearGradient id="paint31_linear_678_29177" x1="1174.68" y1="243.372" x2="1227.56" y2="476.087" gradientUnits="userSpaceOnUse">
<stop stop-color="#66CBFF"/>
<stop offset="0.5" stop-color="#00A9FF"/>
<stop offset="1" stop-color="#0277D9"/>
</linearGradient>
<linearGradient id="paint32_linear_678_29177" x1="1175.26" y1="245.839" x2="1225.76" y2="468.099" gradientUnits="userSpaceOnUse">
<stop stop-color="#66CBFF"/>
<stop offset="0.5" stop-color="#00A9FF"/>
<stop offset="1" stop-color="#0277D9"/>
</linearGradient>
<linearGradient id="paint33_linear_678_29177" x1="1175.82" y1="248.207" x2="1223.92" y2="459.945" gradientUnits="userSpaceOnUse">
<stop stop-color="#66CBFF"/>
<stop offset="0.5" stop-color="#00A9FF"/>
<stop offset="1" stop-color="#0277D9"/>
</linearGradient>
<linearGradient id="paint34_linear_678_29177" x1="1176.44" y1="250.598" x2="1222.17" y2="451.859" gradientUnits="userSpaceOnUse">
<stop stop-color="#66CBFF"/>
<stop offset="0.5" stop-color="#00A9FF"/>
<stop offset="1" stop-color="#0277D9"/>
</linearGradient>
<linearGradient id="paint35_linear_678_29177" x1="1176.8" y1="252.062" x2="1220.59" y2="444.807" gradientUnits="userSpaceOnUse">
<stop stop-color="#66CBFF"/>
<stop offset="0.5" stop-color="#00A9FF"/>
<stop offset="1" stop-color="#0277D9"/>
</linearGradient>
<linearGradient id="paint36_linear_678_29177" x1="1175.32" y1="245.699" x2="1220.71" y2="445.494" gradientUnits="userSpaceOnUse">
<stop stop-color="#66CBFF"/>
<stop offset="0.5" stop-color="#00A9FF"/>
<stop offset="1" stop-color="#0277D9"/>
</linearGradient>
<linearGradient id="paint37_linear_678_29177" x1="1173.64" y1="238.238" x2="1221.12" y2="447.203" gradientUnits="userSpaceOnUse">
<stop stop-color="#66CBFF"/>
<stop offset="0.5" stop-color="#00A9FF"/>
<stop offset="1" stop-color="#0277D9"/>
</linearGradient>
<linearGradient id="paint38_linear_678_29177" x1="1172.06" y1="230.883" x2="1221.61" y2="448.986" gradientUnits="userSpaceOnUse">
<stop stop-color="#66CBFF"/>
<stop offset="0.5" stop-color="#00A9FF"/>
<stop offset="1" stop-color="#0277D9"/>
</linearGradient>
<linearGradient id="paint39_linear_678_29177" x1="1170.48" y1="223.917" x2="1222.01" y2="450.716" gradientUnits="userSpaceOnUse">
<stop stop-color="#66CBFF"/>
<stop offset="0.5" stop-color="#00A9FF"/>
<stop offset="1" stop-color="#0277D9"/>
</linearGradient>
<linearGradient id="paint40_linear_678_29177" x1="1168.79" y1="216.455" x2="1222.4" y2="452.383" gradientUnits="userSpaceOnUse">
<stop stop-color="#66CBFF"/>
<stop offset="0.5" stop-color="#00A9FF"/>
<stop offset="1" stop-color="#0277D9"/>
</linearGradient>
<linearGradient id="paint41_linear_678_29177" x1="1167.15" y1="209.039" x2="1222.8" y2="453.975" gradientUnits="userSpaceOnUse">
<stop stop-color="#66CBFF"/>
<stop offset="0.5" stop-color="#00A9FF"/>
<stop offset="1" stop-color="#0277D9"/>
</linearGradient>
<linearGradient id="paint42_linear_678_29177" x1="1165.51" y1="201.701" x2="1223.21" y2="455.662" gradientUnits="userSpaceOnUse">
<stop stop-color="#66CBFF"/>
<stop offset="0.5" stop-color="#00A9FF"/>
<stop offset="1" stop-color="#0277D9"/>
</linearGradient>
<linearGradient id="paint43_linear_678_29177" x1="1163.9" y1="194.44" x2="1223.65" y2="457.429" gradientUnits="userSpaceOnUse">
<stop stop-color="#66CBFF"/>
<stop offset="0.5" stop-color="#00A9FF"/>
<stop offset="1" stop-color="#0277D9"/>
</linearGradient>
<linearGradient id="paint44_linear_678_29177" x1="1162.25" y1="187.106" x2="1224.03" y2="459.018" gradientUnits="userSpaceOnUse">
<stop stop-color="#66CBFF"/>
<stop offset="0.5" stop-color="#00A9FF"/>
<stop offset="1" stop-color="#0277D9"/>
</linearGradient>
<linearGradient id="paint45_linear_678_29177" x1="1160.59" y1="179.743" x2="1224.44" y2="460.746" gradientUnits="userSpaceOnUse">
<stop stop-color="#66CBFF"/>
<stop offset="0.5" stop-color="#00A9FF"/>
<stop offset="1" stop-color="#0277D9"/>
</linearGradient>
<linearGradient id="paint46_linear_678_29177" x1="1158.95" y1="172.418" x2="1224.85" y2="462.454" gradientUnits="userSpaceOnUse">
<stop stop-color="#66CBFF"/>
<stop offset="0.5" stop-color="#00A9FF"/>
<stop offset="1" stop-color="#0277D9"/>
</linearGradient>
<linearGradient id="paint47_linear_678_29177" x1="1157.3" y1="164.985" x2="1225.27" y2="464.109" gradientUnits="userSpaceOnUse">
<stop stop-color="#66CBFF"/>
<stop offset="0.5" stop-color="#00A9FF"/>
<stop offset="1" stop-color="#0277D9"/>
</linearGradient>
<linearGradient id="paint48_linear_678_29177" x1="1155.8" y1="157.831" x2="1225.78" y2="465.864" gradientUnits="userSpaceOnUse">
<stop stop-color="#66CBFF"/>
<stop offset="0.5" stop-color="#00A9FF"/>
<stop offset="1" stop-color="#0277D9"/>
</linearGradient>
<linearGradient id="paint49_linear_678_29177" x1="1153.59" y1="148.077" x2="1226.63" y2="469.555" gradientUnits="userSpaceOnUse">
<stop stop-color="#66CBFF"/>
<stop offset="0.5" stop-color="#00A9FF"/>
<stop offset="1" stop-color="#0277D9"/>
</linearGradient>
<linearGradient id="paint50_linear_678_29177" x1="1150.81" y1="136.124" x2="1228.02" y2="475.971" gradientUnits="userSpaceOnUse">
<stop stop-color="#66CBFF"/>
<stop offset="0.5" stop-color="#00A9FF"/>
<stop offset="1" stop-color="#0277D9"/>
</linearGradient>
<linearGradient id="paint51_linear_678_29177" x1="1148.12" y1="124.049" x2="1229.56" y2="482.502" gradientUnits="userSpaceOnUse">
<stop stop-color="#66CBFF"/>
<stop offset="0.5" stop-color="#00A9FF"/>
<stop offset="1" stop-color="#0277D9"/>
</linearGradient>
<linearGradient id="paint52_linear_678_29177" x1="1145.38" y1="111.786" x2="1231.11" y2="489.122" gradientUnits="userSpaceOnUse">
<stop stop-color="#66CBFF"/>
<stop offset="0.5" stop-color="#00A9FF"/>
<stop offset="1" stop-color="#0277D9"/>
</linearGradient>
</defs>
</svg>
