<svg width="408" height="103" viewBox="0 0 408 103" fill="none" xmlns="http://www.w3.org/2000/svg">
<g filter="url(#filter0_d_655_28618)">
<path d="M54.2955 88.2688C53.841 88.5181 53.2477 88.6428 52.5155 88.6428C51.9673 88.6428 51.4607 88.5424 50.9888 88.3415C50.5204 88.1407 50.1145 87.8706 49.7779 87.5277C49.4413 87.1849 49.1741 86.7867 48.9833 86.3261C48.7925 85.8656 48.6953 85.3773 48.6953 84.8579V84.8302C48.6953 84.3108 48.7925 83.819 48.9833 83.355C49.1741 82.891 49.4378 82.4858 49.7779 82.1395C50.1145 81.7933 50.5204 81.5197 50.9888 81.3189C51.4573 81.118 51.9777 81.0176 52.5433 81.0176C53.2372 81.0176 53.8098 81.1284 54.2678 81.3466C54.7223 81.5647 55.1248 81.866 55.4718 82.2469L54.1984 83.6113C53.9624 83.3654 53.7161 83.168 53.4662 83.0226C53.2164 82.8771 52.9041 82.8044 52.5294 82.8044C52.2657 82.8044 52.0263 82.8564 51.8112 82.9602C51.596 83.0641 51.4087 83.2096 51.2491 83.3896C51.0895 83.5732 50.968 83.7844 50.8813 84.0233C50.7945 84.2623 50.7529 84.522 50.7529 84.7956V84.8233C50.7529 85.1072 50.7945 85.3704 50.8813 85.6163C50.968 85.8621 51.0929 86.0768 51.256 86.2569C51.4191 86.4404 51.6169 86.5824 51.8459 86.6863C52.0749 86.7902 52.3282 86.8421 52.6127 86.8421C52.9597 86.8421 53.2615 86.7728 53.5218 86.6309C53.782 86.4889 54.0388 86.3019 54.2955 86.063L55.5134 87.2923C55.156 87.6836 54.7501 88.0056 54.2955 88.255V88.2688Z" fill="white"/>
<path d="M61.5434 83.1923C60.8494 83.1923 60.3047 83.4036 59.9091 83.8191C59.5136 84.2381 59.3123 84.8891 59.3123 85.7722V88.4766H57.2305V81.1562H59.3123V82.6313C59.5205 82.1292 59.8085 81.731 60.1728 81.4297C60.5372 81.1285 61.0299 80.9934 61.651 81.0211V83.1923H61.5399H61.5434Z" fill="white"/>
<path d="M70.1572 85.294C70.1538 85.3667 70.1468 85.4533 70.1364 85.5537H65.0324C65.133 86.0282 65.3412 86.3848 65.6535 86.6272C65.9692 86.8696 66.3578 86.9874 66.8228 86.9874C67.1698 86.9874 67.4786 86.9285 67.7527 86.8108C68.0268 86.693 68.3079 86.5026 68.6028 86.2359L69.7929 87.2886C69.4459 87.718 69.0261 88.0505 68.5334 88.2929C68.0407 88.5353 67.4612 88.6565 66.795 88.6565C66.2468 88.6565 65.7402 88.5664 65.2683 88.3829C64.7999 88.1994 64.394 87.9396 64.0505 87.6037C63.7069 87.2679 63.4432 86.8696 63.2489 86.4091C63.0581 85.9485 62.9609 85.436 62.9609 84.8716V84.8439C62.9609 84.3244 63.0512 83.8327 63.2281 83.3687C63.4051 82.9047 63.6549 82.4995 63.9741 82.1532C64.2933 81.8069 64.675 81.5334 65.1157 81.3325C65.5563 81.1317 66.049 81.0312 66.5869 81.0312C67.1975 81.0312 67.7284 81.1421 68.176 81.3602C68.6236 81.5784 68.9949 81.8727 69.2898 82.2398C69.5847 82.6103 69.8033 83.0328 69.9456 83.5107C70.0879 83.9885 70.1572 84.4872 70.1572 85.0066V85.0343C70.1572 85.1347 70.1572 85.2213 70.1503 85.294H70.1572ZM67.6451 83.1297C67.3814 82.8423 67.031 82.7003 66.5903 82.7003C66.1497 82.7003 65.7992 82.8423 65.5286 83.1228C65.2579 83.4033 65.0844 83.7842 65.0012 84.2552H68.1344C68.0719 83.7911 67.9054 83.4137 67.6417 83.1297H67.6451Z" fill="white"/>
<path d="M77.3619 88.2688C76.9074 88.5181 76.3141 88.6428 75.5819 88.6428C75.0337 88.6428 74.5271 88.5424 74.0552 88.3415C73.5868 88.1407 73.1809 87.8706 72.8443 87.5277C72.5077 87.1849 72.2405 86.7867 72.0497 86.3261C71.8589 85.8656 71.7617 85.3773 71.7617 84.8579V84.8302C71.7617 84.3108 71.8589 83.819 72.0497 83.355C72.2405 82.891 72.5043 82.4858 72.8443 82.1395C73.1809 81.7933 73.5868 81.5197 74.0552 81.3189C74.5237 81.118 75.0441 81.0176 75.6097 81.0176C76.3037 81.0176 76.8762 81.1284 77.3342 81.3466C77.7887 81.5647 78.1912 81.866 78.5382 82.2469L77.2648 83.6113C77.0288 83.3654 76.7825 83.168 76.5327 83.0226C76.2828 82.8771 75.9706 82.8044 75.5958 82.8044C75.3321 82.8044 75.0927 82.8564 74.8776 82.9602C74.6625 83.0641 74.4751 83.2096 74.3155 83.3896C74.1559 83.5697 74.0344 83.7844 73.9477 84.0233C73.8609 84.2623 73.8193 84.522 73.8193 84.7956V84.8233C73.8193 85.1072 73.8609 85.3704 73.9477 85.6163C74.0344 85.8621 74.1593 86.0768 74.3224 86.2569C74.4855 86.4404 74.6833 86.5824 74.9123 86.6863C75.1413 86.7902 75.3946 86.8421 75.6791 86.8421C76.0261 86.8421 76.3279 86.7728 76.5882 86.6309C76.8484 86.4889 77.1052 86.3019 77.3619 86.063L78.5798 87.2923C78.2224 87.6836 77.8165 88.0056 77.3619 88.255V88.2688Z" fill="white"/>
<path d="M80.293 80.354V78.5117H82.4824V80.354H80.293ZM80.3485 88.4813V81.1608H82.4304V88.4813H80.3485Z" fill="white"/>
<path d="M91.626 85.294C91.6225 85.3667 91.6156 85.4533 91.6052 85.5537H86.5011C86.6018 86.0282 86.8099 86.3848 87.1222 86.6272C87.438 86.8696 87.8266 86.9874 88.2915 86.9874C88.6385 86.9874 88.9473 86.9285 89.2214 86.8108C89.4956 86.693 89.7766 86.5026 90.0715 86.2359L91.2617 87.2886C90.9147 87.718 90.4948 88.0505 90.0021 88.2929C89.5094 88.5353 88.93 88.6565 88.2638 88.6565C87.7156 88.6565 87.209 88.5664 86.7371 88.3829C86.2652 88.1994 85.8627 87.9396 85.5192 87.6037C85.1757 87.2679 84.9085 86.8696 84.7177 86.4091C84.5268 85.9485 84.4297 85.436 84.4297 84.8716V84.8439C84.4297 84.3244 84.5199 83.8327 84.6969 83.3687C84.8738 82.9047 85.1236 82.4995 85.4429 82.1532C85.7621 81.8069 86.1438 81.5334 86.5844 81.3325C87.0251 81.1317 87.5178 81.0312 88.0556 81.0312C88.6663 81.0312 89.1972 81.1421 89.6448 81.3602C90.0924 81.5784 90.4636 81.8727 90.7585 82.2398C91.0535 82.6103 91.2756 83.0328 91.4143 83.5107C91.5566 83.9885 91.626 84.4872 91.626 85.0066V85.0343C91.626 85.1347 91.626 85.2213 91.6191 85.294H91.626ZM89.1139 83.1297C88.8502 82.8423 88.4963 82.7003 88.0591 82.7003C87.6219 82.7003 87.268 82.8423 86.9973 83.1228C86.7267 83.4033 86.5532 83.7842 86.4699 84.2552H89.6031C89.5407 83.7911 89.3741 83.4137 89.1104 83.1297H89.1139Z" fill="white"/>
<path d="M98.2324 88.4887V84.4164C98.2324 83.9247 98.1214 83.5542 97.9028 83.3048C97.6842 83.0555 97.3719 82.9308 96.9729 82.9308C96.5738 82.9308 96.2546 83.0555 96.0222 83.3048C95.7897 83.5542 95.6717 83.9247 95.6717 84.4164V88.4887H93.5898V81.1683H95.6717V82.214C95.7897 82.0582 95.9215 81.9093 96.0603 81.7673C96.2026 81.6254 96.3587 81.5007 96.5322 81.3899C96.7057 81.2791 96.8965 81.1925 97.1082 81.1302C97.3164 81.0644 97.5558 81.0332 97.8195 81.0332C98.6141 81.0332 99.2282 81.2756 99.6585 81.7569C100.089 82.2383 100.307 82.9031 100.307 83.7515V88.4922H98.2255L98.2324 88.4887Z" fill="white"/>
<path d="M107.871 88.4837V87.4414C107.614 87.7842 107.308 88.0681 106.948 88.2898C106.587 88.5114 106.132 88.6222 105.587 88.6222C105.157 88.6222 104.744 88.5391 104.342 88.3763C103.939 88.2136 103.585 87.9677 103.273 87.6457C102.964 87.3236 102.715 86.9254 102.527 86.4579C102.34 85.9904 102.246 85.4502 102.246 84.8408V84.8131C102.246 84.2036 102.34 83.6634 102.527 83.1959C102.715 82.7284 102.961 82.3302 103.266 82.0081C103.572 81.6861 103.925 81.4402 104.328 81.2775C104.73 81.1147 105.15 81.0316 105.587 81.0316C106.143 81.0316 106.601 81.139 106.962 81.3571C107.322 81.5753 107.624 81.8281 107.871 82.1155V78.5176H109.952V88.4871H107.871V88.4837ZM107.898 84.8096C107.898 84.5083 107.85 84.2313 107.756 83.9785C107.659 83.7257 107.534 83.511 107.374 83.331C107.215 83.1509 107.027 83.0158 106.812 82.9189C106.597 82.8219 106.368 82.7734 106.122 82.7734C105.875 82.7734 105.646 82.8219 105.431 82.9189C105.216 83.0158 105.029 83.1509 104.862 83.331C104.699 83.511 104.567 83.7223 104.474 83.9716C104.38 84.2209 104.331 84.4979 104.331 84.8096V84.8373C104.331 85.1386 104.38 85.4191 104.474 85.6684C104.567 85.9177 104.699 86.1359 104.862 86.3159C105.025 86.496 105.216 86.6311 105.431 86.728C105.646 86.825 105.875 86.8735 106.122 86.8735C106.368 86.8735 106.597 86.825 106.812 86.728C107.027 86.6311 107.215 86.496 107.374 86.3159C107.534 86.1359 107.662 85.9212 107.756 85.6684C107.853 85.4156 107.898 85.1386 107.898 84.8373V84.8096Z" fill="white"/>
<path d="M119.542 86.326C119.341 86.7865 119.064 87.1882 118.706 87.5345C118.349 87.8808 117.929 88.1543 117.447 88.3552C116.964 88.556 116.433 88.6565 115.857 88.6565C115.281 88.6565 114.768 88.5595 114.282 88.3621C113.8 88.1682 113.38 87.8981 113.03 87.5553C112.679 87.2124 112.402 86.8142 112.2 86.3537C111.999 85.8931 111.898 85.4014 111.898 84.8716V84.8439C111.898 84.3175 111.999 83.8223 112.2 83.3618C112.402 82.9012 112.679 82.4995 113.037 82.1532C113.394 81.8069 113.81 81.5334 114.296 81.3325C114.782 81.1317 115.309 81.0312 115.885 81.0312C116.461 81.0312 116.975 81.1282 117.46 81.3256C117.943 81.523 118.363 81.7896 118.713 82.1324C119.064 82.4753 119.341 82.8735 119.542 83.334C119.744 83.7946 119.844 84.2863 119.844 84.8161V84.8439C119.844 85.3737 119.744 85.8654 119.542 86.326ZM117.79 84.8439C117.79 84.5703 117.745 84.314 117.655 84.0716C117.565 83.8292 117.433 83.618 117.259 83.431C117.086 83.244 116.881 83.0951 116.645 82.9878C116.409 82.877 116.149 82.825 115.864 82.825C115.563 82.825 115.295 82.877 115.063 82.9808C114.83 83.0847 114.633 83.2302 114.466 83.4102C114.3 83.5903 114.178 83.805 114.091 84.0439C114.005 84.2829 113.959 84.5426 113.959 84.8161V84.8439C113.959 85.1174 114.005 85.3737 114.095 85.6161C114.185 85.8585 114.317 86.0732 114.49 86.2567C114.664 86.4437 114.865 86.5926 115.098 86.6999C115.33 86.8108 115.594 86.8627 115.885 86.8627C116.177 86.8627 116.454 86.8108 116.687 86.7069C116.919 86.603 117.117 86.4575 117.284 86.2775C117.447 86.0939 117.572 85.8827 117.658 85.6438C117.745 85.4014 117.79 85.1451 117.79 84.8716V84.8439Z" fill="white"/>
<path d="M127.884 81.4213V88.8941C127.884 90.1373 127.228 90.7121 126.16 90.7121C125.913 90.7121 125.736 90.6983 125.504 90.6429V89.7806C125.667 89.8083 125.875 89.8222 126.024 89.8222C126.503 89.8222 126.833 89.5348 126.833 88.8803V81.4213H127.888H127.884ZM126.763 79.8769V78.7168H127.967V79.8769H126.763Z" fill="white"/>
<path d="M135.874 81.4308H136.915V88.4915H135.874V87.2622C135.395 88.0275 134.67 88.6404 133.452 88.6404C131.741 88.6404 130.742 87.4942 130.742 85.8113V81.4273H131.797V85.5516C131.797 86.864 132.508 87.6812 133.754 87.6812C135 87.6812 135.874 86.7947 135.874 85.4684V81.4238V81.4308Z" fill="white"/>
<path d="M140.86 88.4811H139.805V81.4204H140.86V82.6497C141.324 81.8844 142.064 81.2715 143.281 81.2715C144.992 81.2715 145.991 82.4177 145.991 84.1006V88.4846H144.936V84.3604C144.936 83.0479 144.225 82.2307 142.98 82.2307C141.734 82.2307 140.86 83.1172 140.86 84.4435V88.4881V88.4811Z" fill="white"/>
<path d="M150.177 86.4745C150.177 87.3333 150.656 87.6484 151.367 87.6484C151.724 87.6484 152.023 87.5791 152.394 87.4025V88.3029C152.023 88.4933 151.627 88.6042 151.121 88.6042C149.986 88.6042 149.122 88.0432 149.122 86.6095V82.3468H148.137V81.4187H149.122V79.2891H150.177V81.4187H152.422V82.3468H150.177V86.471V86.4745Z" fill="white"/>
<path d="M157.836 88.6474C155.715 88.6474 154.168 86.9817 154.168 84.9733C154.168 82.9648 155.729 81.2715 157.863 81.2715C159.997 81.2715 161.545 82.9371 161.545 84.9456C161.545 86.954 159.969 88.6474 157.836 88.6474ZM157.836 82.1995C156.302 82.1995 155.247 83.415 155.247 84.9456C155.247 86.4762 156.368 87.7055 157.86 87.7055C159.352 87.7055 160.459 86.49 160.459 84.9733C160.459 83.4565 159.324 82.1995 157.832 82.1995H157.836Z" fill="white"/>
<path d="M166.3 88.6145C165.286 88.6145 164.166 88.2197 163.371 87.5757L163.905 86.8242C164.672 87.399 165.519 87.7246 166.355 87.7246C167.191 87.7246 167.819 87.2882 167.819 86.6026V86.5749C167.819 85.865 166.983 85.5914 166.053 85.3317C164.946 85.0166 163.715 84.6357 163.715 83.3371V83.3094C163.715 82.094 164.728 81.2871 166.123 81.2871C166.987 81.2871 167.944 81.5884 168.669 82.0663L168.191 82.8592C167.535 82.4368 166.782 82.1771 166.098 82.1771C165.262 82.1771 164.728 82.6134 164.728 83.2021V83.2298C164.728 83.8981 165.602 84.1578 166.549 84.4452C167.646 84.7742 168.822 85.1967 168.822 86.4675V86.4952C168.822 87.8354 167.715 88.611 166.303 88.611L166.3 88.6145Z" fill="white"/>
<path d="M110.658 4C106.314 4 102.793 7.5295 102.793 11.8833V62.413C102.793 66.7669 106.314 70.2964 110.658 70.2964H161.36C165.704 70.2964 169.225 66.7669 169.225 62.413V11.8834C169.225 7.5295 165.704 4 161.36 4H110.658ZM152.699 41.4646C152.699 46.7524 151.217 50.6862 148.257 53.2522C145.298 55.8216 141.207 57.1064 135.985 57.1064C130.763 57.1064 126.585 55.832 123.681 53.2799C120.777 50.7243 119.319 46.7871 119.319 41.4612V21.4974C119.319 19.1147 121.247 17.1831 123.624 17.1831C126.001 17.1831 127.928 19.1147 127.928 21.4974V41.4646C127.928 42.5277 128.018 43.5666 128.202 44.5847C128.383 45.6062 128.768 46.51 129.351 47.2926C129.937 48.0752 130.745 48.7159 131.79 49.2041C132.827 49.6959 134.229 49.9417 135.985 49.9417C139.052 49.9417 141.169 49.2595 142.338 47.8917C143.511 46.5239 144.094 44.3804 144.094 41.4612V21.4956C144.094 19.1139 146.02 17.1831 148.396 17.1831C150.772 17.1831 152.699 19.1139 152.699 21.4956V41.4646Z" fill="white"/>
<path d="M44.8672 50.6967V46.472H48.6562V44.6921C48.6562 42.649 49.2946 40.9695 50.5715 39.6709C51.8449 38.3654 53.781 37.7109 56.3625 37.7109C56.9281 37.7109 57.4902 37.7352 58.0558 37.7802C58.6214 37.8252 59.1661 37.8633 59.7039 37.891V42.604C58.9614 42.5174 58.1876 42.4689 57.3861 42.4689C56.5256 42.4689 55.9115 42.6697 55.5402 43.068C55.1655 43.4697 54.9816 44.1415 54.9816 45.0868V46.4685H59.3465V50.6932H54.9816V69.4549H48.6562V50.6932H44.8672V50.6967Z" fill="white"/>
<path d="M59.4018 52.9944C59.9673 51.4984 60.7688 50.2241 61.8063 49.1748C62.8438 48.1187 64.0929 47.3049 65.5467 46.7266C67.0006 46.1483 68.6348 45.8574 70.4495 45.8574C72.2642 45.8574 73.8985 46.1483 75.3696 46.7266C76.8374 47.3049 78.0934 48.1187 79.1378 49.1748C80.1753 50.2275 80.9803 51.5019 81.5424 52.9944C82.1045 54.4938 82.3855 56.1594 82.3855 57.9947C82.3855 59.83 82.1045 61.4922 81.5424 62.9743C80.9768 64.4564 80.1753 65.7273 79.1378 66.7765C78.0934 67.8258 76.8408 68.6361 75.3696 69.2005C73.9019 69.765 72.2607 70.0455 70.4495 70.0455C68.6383 70.0455 67.0006 69.765 65.5467 69.2005C64.0929 68.6361 62.8438 67.8258 61.8063 66.7765C60.7688 65.7273 59.9639 64.4564 59.4018 62.9743C58.8362 61.4922 58.5586 59.8335 58.5586 57.9947C58.5586 56.156 58.8396 54.4903 59.4018 52.9944ZM65.1512 60.6888C65.3247 61.5615 65.6335 62.3475 66.0637 63.047C66.494 63.7431 67.063 64.2937 67.7778 64.7127C68.4891 65.1282 69.3843 65.3325 70.453 65.3325C71.5217 65.3325 72.4203 65.1248 73.1455 64.7127C73.8742 64.2937 74.4502 63.7431 74.8804 63.047C75.3107 62.3475 75.6125 61.5615 75.793 60.6888C75.9699 59.8127 76.0601 58.9193 76.0601 57.9982C76.0601 57.0771 75.9699 56.1767 75.793 55.2868C75.6125 54.3968 75.3107 53.6142 74.8804 52.9286C74.4502 52.2499 73.8707 51.6923 73.1455 51.2595C72.4169 50.8335 71.5182 50.6188 70.453 50.6188C69.3878 50.6188 68.4891 50.8335 67.7778 51.2595C67.0665 51.6923 66.494 52.2499 66.0637 52.9286C65.6335 53.6142 65.3247 54.3968 65.1512 55.2868C64.9742 56.1767 64.884 57.0805 64.884 57.9982C64.884 58.9159 64.9742 59.8127 65.1512 60.6888Z" fill="white"/>
<path d="M89.9771 46.4807V50.747H90.0673C90.3622 50.0371 90.7613 49.3757 91.2678 48.7662C91.7744 48.1602 92.3504 47.6408 93.0027 47.2114C93.6585 46.782 94.3525 46.4461 95.0985 46.2141C95.8445 45.9752 96.6148 45.8574 97.4128 45.8574C97.8327 45.8574 98.2872 45.9336 98.7938 46.0825V51.9486C98.4954 51.8897 98.138 51.8378 97.7251 51.7962C97.3087 51.7512 96.9062 51.727 96.5211 51.727C95.3622 51.727 94.3837 51.9243 93.5787 52.3087C92.7772 52.6966 92.1318 53.2195 91.6426 53.8843C91.1533 54.5527 90.8064 55.3318 90.5947 56.2183C90.3865 57.1082 90.2859 58.0744 90.2859 59.1132V69.4706H83.957V46.4807H89.9736H89.9771Z" fill="white"/>
<path d="M32.0277 20.0851C32.1145 18.603 32.4857 17.3737 33.1415 16.3937C33.7938 15.4137 34.6266 14.6311 35.6328 14.0355C36.6425 13.4468 37.7806 13.0209 39.0436 12.7681C40.3066 12.5188 41.5765 12.3906 42.8534 12.3906C44.0088 12.3906 45.1851 12.4737 46.3717 12.6365C47.5619 12.7992 48.6479 13.1178 49.6264 13.5922C50.6049 14.0666 51.4064 14.7281 52.0275 15.573C52.6486 16.4145 52.9643 17.5364 52.9643 18.925V30.8857C52.9643 31.9246 53.0233 32.9219 53.1413 33.8638C53.2592 34.8161 53.4709 35.526 53.7658 36.0004H47.3502C47.2323 35.6437 47.1351 35.2836 47.0622 34.9096C46.9859 34.5391 46.9304 34.1651 46.9061 33.7807C45.8964 34.8161 44.7097 35.5433 43.3426 35.9554C41.9755 36.3744 40.5807 36.5787 39.1581 36.5787C38.0547 36.5787 37.0311 36.4436 36.0839 36.177C35.1297 35.9138 34.3004 35.4948 33.5891 34.9304C32.8778 34.3659 32.3192 33.656 31.9201 32.7972C31.5142 31.9385 31.3164 30.9169 31.3164 29.7326C31.3164 28.4271 31.5454 27.3536 32.0104 26.5087C32.4684 25.6638 33.0652 24.992 33.7869 24.4864C34.5155 23.9843 35.3483 23.6034 36.2816 23.354C37.2185 23.1012 38.1588 22.9039 39.1095 22.7515C40.0602 22.6026 40.9971 22.4849 41.92 22.3983C42.8395 22.3082 43.6584 22.1732 44.3732 21.9966C45.0845 21.82 45.65 21.5568 46.0629 21.2174C46.4793 20.8781 46.6701 20.3794 46.6424 19.725C46.6424 19.0462 46.5314 18.506 46.3093 18.1009C46.0872 17.7026 45.7923 17.391 45.4176 17.1728C45.0498 16.9477 44.6195 16.8023 44.1233 16.7261C43.6341 16.6499 43.1067 16.6153 42.5446 16.6153C41.2989 16.6153 40.317 16.8785 39.6022 17.4152C38.8909 17.945 38.4745 18.8385 38.3566 20.0816H32.0312L32.0277 20.0851ZM46.6389 24.7565C46.3717 24.992 46.0387 25.179 45.6396 25.3105C45.2371 25.4421 44.8069 25.5529 44.3454 25.643C43.8874 25.7296 43.4016 25.8057 42.8985 25.8646C42.3954 25.9235 41.8888 25.9997 41.3857 26.0897C40.9103 26.1797 40.4419 26.294 39.9839 26.4429C39.5224 26.5953 39.1234 26.7926 38.7834 27.0454C38.4398 27.2982 38.1623 27.6168 37.9541 28.0046C37.7459 28.3925 37.6453 28.8773 37.6453 29.4694C37.6453 30.0616 37.7459 30.5083 37.9541 30.8927C38.1588 31.2805 38.4503 31.5852 38.8042 31.8069C39.1616 32.0319 39.5745 32.1843 40.0498 32.2743C40.5252 32.3644 41.0179 32.4059 41.5245 32.4059C42.7701 32.4059 43.7313 32.2016 44.4148 31.7861C45.0983 31.3671 45.6015 30.8754 45.9311 30.2971C46.2572 29.7153 46.462 29.1335 46.5314 28.5414C46.6077 27.9492 46.6424 27.4714 46.6424 27.1182V24.7634L46.6389 24.7565Z" fill="white"/>
<path d="M60.6968 30.2852C60.9779 30.7734 61.3457 31.1751 61.7863 31.4833C62.2305 31.7984 62.744 32.027 63.3235 32.1759C63.9029 32.3248 64.5032 32.3975 65.1277 32.3975C65.5719 32.3975 66.0403 32.349 66.5295 32.2451C67.0222 32.1412 67.4664 31.975 67.8654 31.7569C68.2714 31.5318 68.6044 31.2374 68.8716 30.8669C69.1353 30.4964 69.2706 30.0289 69.2706 29.4645C69.2706 28.5191 68.6426 27.8057 67.3762 27.3313C66.1132 26.8569 64.354 26.386 62.0986 25.9081C61.1757 25.7038 60.277 25.4579 59.4026 25.1774C58.5248 24.8969 57.7475 24.523 57.0675 24.0659C56.3804 23.6053 55.8322 23.027 55.4193 22.331C55.0029 21.6384 54.7913 20.7831 54.7913 19.7788C54.7913 18.2933 55.0862 17.0813 55.6622 16.1325C56.2417 15.1836 57.0015 14.4357 57.9557 13.8851C58.9064 13.3345 59.9786 12.9501 61.1653 12.7285C62.3519 12.5069 63.5698 12.3926 64.8189 12.3926C66.068 12.3926 67.2755 12.5138 68.4483 12.7493C69.6211 12.9882 70.669 13.3864 71.5885 13.9474C72.5079 14.5118 73.2713 15.2598 73.882 16.1948C74.4927 17.1263 74.857 18.3037 74.975 19.7269H68.9618C68.8716 18.5149 68.4101 17.6907 67.5774 17.2579C66.7481 16.8285 65.7662 16.6173 64.635 16.6173C64.2811 16.6173 63.8925 16.638 63.4796 16.6796C63.0598 16.7246 62.6816 16.8216 62.3415 16.9705C61.998 17.1194 61.71 17.3341 61.4741 17.6146C61.2347 17.8951 61.1167 18.276 61.1167 18.7504C61.1167 19.3148 61.3249 19.7754 61.7378 20.1286C62.1541 20.4853 62.6954 20.7727 63.3651 20.9943C64.0313 21.2194 64.7946 21.4168 65.6586 21.5934C66.5191 21.77 67.3935 21.9639 68.2887 22.1717C69.2082 22.3795 70.1069 22.6288 70.9812 22.9266C71.8556 23.2244 72.6363 23.6192 73.3199 24.104C74.0034 24.5957 74.5516 25.2017 74.968 25.9254C75.3809 26.6526 75.5926 27.5495 75.5926 28.6161C75.5926 30.1293 75.2838 31.3967 74.6765 32.4148C74.0693 33.4398 73.2748 34.2605 72.2928 34.8838C71.3143 35.5037 70.1936 35.94 68.9271 36.1963C67.6641 36.4456 66.3803 36.5737 65.0757 36.5737C63.7711 36.5737 62.4317 36.4387 61.1548 36.172C59.878 35.9088 58.7399 35.4621 57.7475 34.8388C56.7517 34.2155 55.9398 33.3948 55.3013 32.3698C54.6629 31.3448 54.309 30.0635 54.25 28.5226H60.2666C60.2666 29.2047 60.4054 29.7865 60.6899 30.2782L60.6968 30.2852Z" fill="white"/>
<path d="M76.4375 35.981V4.34766H83.6055V16.7942H83.9991C84.5101 15.471 85.3733 14.4303 86.5887 13.6723C87.804 12.9142 89.2404 12.5351 90.8977 12.5351C93.4114 12.5351 95.3518 13.2863 96.7191 14.7887C98.1002 16.2773 98.7908 18.4138 98.7908 21.1981V35.981H91.4778V22.8521C91.4778 21.4324 91.1601 20.3504 90.5248 19.6061C89.8895 18.8618 88.9642 18.4896 87.7488 18.4896C86.5058 18.4896 85.5252 18.8962 84.807 19.7095C84.1027 20.5227 83.7505 21.5978 83.7505 22.9348V35.981H76.4375Z" fill="white"/>
<path d="M30.5535 21.42H23.735C23.5812 20.3242 23.1686 19.4781 22.4972 18.8816C21.8258 18.2713 20.9307 17.9661 19.8118 17.9661C16.9025 17.9661 15.4479 20.1092 15.4479 24.3954C15.4479 28.7233 16.9025 30.8872 19.8118 30.8872C22.0916 30.8872 23.3993 29.7913 23.735 27.5997H30.5535C30.3297 30.3878 29.2667 32.5795 27.3646 34.1747C25.4764 35.756 22.9588 36.5466 19.8118 36.5466C15.9654 36.5466 13.0352 35.5132 11.0211 33.4464C9.00704 31.3657 8 28.3487 8 24.3954C8 20.456 9.00704 17.4598 11.0211 15.4069C13.0352 13.34 15.9654 12.3066 19.8118 12.3066C23.0007 12.3066 25.5253 13.1112 27.3855 14.7202C29.2598 16.3293 30.3157 18.5626 30.5535 21.42Z" fill="white"/>
<rect x="180.449" y="27.2109" width="0.800236" height="40.0133" fill="white"/>
<path d="M389.036 41.8371C387.942 41.8371 387.043 42.1955 386.339 42.9125C385.634 43.6168 385.238 44.5601 385.15 45.7424H392.772C392.722 44.5224 392.363 43.5665 391.696 42.8747C391.042 42.1829 390.156 41.8371 389.036 41.8371ZM393.017 52.4023H399.111C398.746 54.4525 397.664 56.0813 395.866 57.2887C394.067 58.4836 391.81 59.0811 389.093 59.0811C385.747 59.0811 383.15 58.1377 381.301 56.2511C379.465 54.3519 378.547 51.6791 378.547 48.2328C378.547 44.774 379.471 42.0572 381.32 40.0825C383.182 38.0952 385.741 37.1016 388.999 37.1016C392.231 37.1016 394.746 38.0386 396.545 39.9127C398.344 41.7742 399.243 44.3778 399.243 47.7234V49.5723H385.112V49.9119C385.137 51.2829 385.521 52.3646 386.263 53.157C387.005 53.9494 388.011 54.3456 389.282 54.3456C390.25 54.3456 391.055 54.1758 391.696 53.8362C392.351 53.4966 392.791 53.0186 393.017 52.4023Z" fill="white"/>
<path d="M356.365 43.9124C356.365 41.8245 357.195 40.1705 358.855 38.9505C360.515 37.7179 362.76 37.1016 365.59 37.1016C368.496 37.1016 370.728 37.655 372.288 38.7618C373.86 39.8561 374.709 41.4597 374.835 43.5728H368.76C368.659 42.9565 368.338 42.4785 367.798 42.1389C367.257 41.7868 366.54 41.6107 365.647 41.6107C364.779 41.6107 364.068 41.7868 363.515 42.1389C362.974 42.4785 362.704 42.9313 362.704 43.4973C362.704 43.9375 362.892 44.3023 363.27 44.5916C363.66 44.8683 364.276 45.0947 365.119 45.2708L369.458 46.1575C371.533 46.5977 373.036 47.2769 373.967 48.1951C374.91 49.1007 375.382 50.3459 375.382 51.9307C375.382 54.1066 374.501 55.8423 372.741 57.1378C370.98 58.4333 368.628 59.0811 365.685 59.0811C362.679 59.0811 360.333 58.5276 358.648 57.4208C356.975 56.3014 356.044 54.6852 355.855 52.5721H362.289C362.641 53.9053 363.804 54.572 365.779 54.572C366.697 54.572 367.427 54.4022 367.967 54.0626C368.521 53.723 368.798 53.2702 368.798 52.7042C368.798 52.264 368.621 51.9118 368.269 51.6477C367.93 51.3835 367.339 51.1634 366.496 50.9873L362.591 50.1572C358.44 49.2768 356.365 47.1952 356.365 43.9124Z" fill="white"/>
<path d="M344.911 58.5842V37.5857H351.59V58.5842H344.911ZM348.25 35.1519C347.093 35.1519 346.175 34.8815 345.496 34.3407C344.829 33.7998 344.496 33.0829 344.496 32.1899C344.496 31.2843 344.829 30.5611 345.496 30.0202C346.175 29.4794 347.093 29.209 348.25 29.209C349.42 29.209 350.338 29.4794 351.005 30.0202C351.684 30.5611 352.024 31.2843 352.024 32.1899C352.024 33.0829 351.684 33.7998 351.005 34.3407C350.338 34.8815 349.42 35.1519 348.25 35.1519Z" fill="white"/>
<path d="M326.875 58.5907V37.5922H333.365V41.0448H333.723C333.987 39.9631 334.591 39.0638 335.535 38.3469C336.49 37.6299 337.61 37.2715 338.893 37.2715C339.999 37.2715 340.804 37.3784 341.307 37.5922V43.271C340.691 43.0195 339.735 42.8937 338.44 42.8937C336.943 42.8937 335.748 43.2962 334.855 44.1012C333.975 44.9061 333.535 46.0318 333.535 47.4783V58.5907H326.875Z" fill="white"/>
<path d="M314.253 37.2715C316.906 37.2715 318.975 38.2211 320.459 40.1203C321.956 42.007 322.704 44.6609 322.704 48.082C322.704 51.5031 321.975 54.1633 320.516 56.0625C319.057 57.9618 317.02 58.9114 314.403 58.9114C312.894 58.9114 311.599 58.6032 310.517 57.9869C309.435 57.358 308.649 56.4839 308.159 55.3645H307.8V65.5335H301.141V37.5922H307.631V41.0071H307.989C308.505 39.8373 309.316 38.9255 310.423 38.2714C311.53 37.6048 312.806 37.2715 314.253 37.2715ZM308.838 52.1949C309.555 53.176 310.548 53.6665 311.819 53.6665C313.089 53.6665 314.076 53.176 314.781 52.1949C315.498 51.2013 315.856 49.8303 315.856 48.082C315.856 46.3463 315.498 44.9879 314.781 44.0068C314.064 43.0132 313.077 42.5164 311.819 42.5164C310.561 42.5164 309.567 43.0132 308.838 44.0068C308.121 45.0005 307.763 46.3652 307.763 48.1009C307.763 49.8492 308.121 51.2138 308.838 52.1949Z" fill="white"/>
<path d="M283.109 58.5907V37.5922H289.599V41.0448H289.958C290.222 39.9631 290.826 39.0638 291.769 38.3469C292.725 37.6299 293.844 37.2715 295.127 37.2715C296.234 37.2715 297.039 37.3784 297.542 37.5922V43.271C296.926 43.0195 295.97 42.8937 294.674 42.8937C293.178 42.8937 291.983 43.2962 291.09 44.1012C290.209 44.9061 289.769 46.0318 289.769 47.4783V58.5907H283.109Z" fill="white"/>
<path d="M268.747 41.8371C267.653 41.8371 266.754 42.1955 266.049 42.9125C265.345 43.6168 264.949 44.5601 264.861 45.7424H272.483C272.432 44.5224 272.074 43.5665 271.407 42.8747C270.753 42.1829 269.867 41.8371 268.747 41.8371ZM272.728 52.4023H278.822C278.457 54.4525 277.375 56.0813 275.577 57.2887C273.778 58.4836 271.521 59.0811 268.804 59.0811C265.458 59.0811 262.861 58.1377 261.012 56.2511C259.176 54.3519 258.258 51.6791 258.258 48.2328C258.258 44.774 259.182 42.0572 261.031 40.0825C262.893 38.0952 265.452 37.1016 268.71 37.1016C271.942 37.1016 274.457 38.0386 276.256 39.9127C278.055 41.7742 278.954 44.3778 278.954 47.7234V49.5723H264.823V49.9119C264.848 51.2829 265.232 52.3646 265.974 53.157C266.716 53.9494 267.722 54.3456 268.993 54.3456C269.961 54.3456 270.766 54.1758 271.407 53.8362C272.061 53.4966 272.502 53.0186 272.728 52.4023Z" fill="white"/>
<path d="M244.093 32.7676H250.753V37.8615H254.979V42.8234H250.753V51.3322C250.753 52.9045 251.602 53.6906 253.3 53.6906C253.878 53.6906 254.438 53.6591 254.979 53.5962V58.3506C254.161 58.5267 253.099 58.6147 251.791 58.6147C249.036 58.6147 247.062 58.1682 245.867 57.2752C244.684 56.3696 244.093 54.8854 244.093 52.8227V42.8234H240.867V37.8615H244.093V32.7676Z" fill="white"/>
<path d="M217.297 58.5905V37.5921H223.787V41.0069H224.145C224.611 39.7995 225.378 38.8499 226.447 38.1581C227.516 37.4537 228.799 37.1016 230.296 37.1016C232.61 37.1016 234.371 37.787 235.578 39.158C236.798 40.529 237.408 42.4848 237.408 45.0255V58.5905H230.729V46.516C230.729 43.8746 229.629 42.554 227.428 42.554C226.359 42.554 225.51 42.925 224.881 43.6671C224.265 44.3966 223.957 45.3714 223.957 46.5914V58.5905H217.297Z" fill="white"/>
<path d="M202.935 41.8371C201.841 41.8371 200.941 42.1955 200.237 42.9125C199.533 43.6168 199.136 44.5601 199.048 45.7424H206.67C206.62 44.5224 206.262 43.5665 205.595 42.8747C204.941 42.1829 204.054 41.8371 202.935 41.8371ZM206.916 52.4023H213.009C212.645 54.4525 211.563 56.0813 209.764 57.2887C207.966 58.4836 205.708 59.0811 202.991 59.0811C199.646 59.0811 197.049 58.1377 195.2 56.2511C193.363 54.3519 192.445 51.6791 192.445 48.2328C192.445 44.774 193.37 42.0572 195.219 40.0825C197.08 38.0952 199.64 37.1016 202.897 37.1016C206.129 37.1016 208.645 38.0386 210.443 39.9127C212.242 41.7742 213.141 44.3778 213.141 47.7234V49.5723H199.011V49.9119C199.036 51.2829 199.419 52.3646 200.162 53.157C200.904 53.9494 201.91 54.3456 203.18 54.3456C204.149 54.3456 204.953 54.1758 205.595 53.8362C206.249 53.4966 206.689 53.0186 206.916 52.4023Z" fill="white"/>
</g>
<defs>
<filter id="filter0_d_655_28618" x="0" y="0" width="407.242" height="102.713" filterUnits="userSpaceOnUse" color-interpolation-filters="sRGB">
<feFlood flood-opacity="0" result="BackgroundImageFix"/>
<feColorMatrix in="SourceAlpha" type="matrix" values="0 0 0 0 0 0 0 0 0 0 0 0 0 0 0 0 0 0 127 0" result="hardAlpha"/>
<feOffset dy="4"/>
<feGaussianBlur stdDeviation="4"/>
<feComposite in2="hardAlpha" operator="out"/>
<feColorMatrix type="matrix" values="0 0 0 0 0 0 0 0 0 0.0941176 0 0 0 0 0.168627 0 0 0 1 0"/>
<feBlend mode="normal" in2="BackgroundImageFix" result="effect1_dropShadow_655_28618"/>
<feBlend mode="normal" in="SourceGraphic" in2="effect1_dropShadow_655_28618" result="shape"/>
</filter>
</defs>
</svg>
