<svg width="80" height="80" viewBox="0 0 80 80" fill="none" xmlns="http://www.w3.org/2000/svg">
<path d="M0 8C0 3.58172 3.58172 0 8 0H72C76.4183 0 80 3.58172 80 8V72C80 76.4183 76.4183 80 72 80H8C3.58172 80 0 76.4183 0 72V8Z" fill="url(#paint0_linear_618_27183)"/>
<path d="M40.0016 39.5996C43.3166 39.5996 46.0016 36.9146 46.0016 33.5996C46.0016 30.2846 43.3166 27.5996 40.0016 27.5996C36.6866 27.5996 34.0016 30.2846 34.0016 33.5996C34.0016 36.9146 36.6866 39.5996 40.0016 39.5996ZM38.5166 42.3996C33.5916 42.3996 29.6016 46.3896 29.6016 51.3146C29.6016 52.1346 30.2666 52.7996 31.0866 52.7996H48.9166C49.7366 52.7996 50.4016 52.1346 50.4016 51.3146C50.4016 46.3896 46.4116 42.3996 41.4866 42.3996H38.5166Z" fill="white"/>
<defs>
<linearGradient id="paint0_linear_618_27183" x1="40" y1="0" x2="40" y2="80" gradientUnits="userSpaceOnUse">
<stop stop-color="#66CBFF"/>
<stop offset="0.5" stop-color="#00A9FF"/>
<stop offset="1" stop-color="#0277D9"/>
</linearGradient>
</defs>
</svg>
