<svg width="80" height="80" viewBox="0 0 80 80" fill="none" xmlns="http://www.w3.org/2000/svg">
<path d="M0 8C0 3.58172 3.58172 0 8 0H72C76.4183 0 80 3.58172 80 8V72C80 76.4183 76.4183 80 72 80H8C3.58172 80 0 76.4183 0 72V8Z" fill="url(#paint0_linear_618_27189)"/>
<path d="M39.9989 27.1992C40.2289 27.1992 40.4589 27.2492 40.6689 27.3442L50.0889 31.3392C51.1889 31.8042 52.0089 32.8892 52.0039 34.1992C51.9789 39.1592 49.9389 48.2342 41.3239 52.3592C40.4889 52.7592 39.5189 52.7592 38.6839 52.3592C30.0639 48.2342 28.0289 39.1592 28.0039 34.1992C27.9989 32.8892 28.8189 31.8042 29.9189 31.3392L39.3339 27.3442C39.5439 27.2492 39.7689 27.1992 39.9989 27.1992Z" fill="white"/>
<defs>
<linearGradient id="paint0_linear_618_27189" x1="40" y1="0" x2="40" y2="80" gradientUnits="userSpaceOnUse">
<stop stop-color="#66CBFF"/>
<stop offset="0.5" stop-color="#00A9FF"/>
<stop offset="1" stop-color="#0277D9"/>
</linearGradient>
</defs>
</svg>
