<svg width="80" height="80" viewBox="0 0 80 80" fill="none" xmlns="http://www.w3.org/2000/svg">
<path d="M0 8C0 3.58172 3.58172 0 8 0H72C76.4183 0 80 3.58172 80 8V72C80 76.4183 76.4183 80 72 80H8C3.58172 80 0 76.4183 0 72V8Z" fill="url(#paint0_linear_618_27196)"/>
<path d="M36.9568 27.6754C37.1068 26.9354 37.7618 26.4004 38.5218 26.4004H41.5118C42.2718 26.4004 42.9268 26.9354 43.0768 27.6754L43.8018 31.1754C44.5068 31.4754 45.1668 31.8604 45.7668 32.3154L49.1568 31.1904C49.8768 30.9504 50.6668 31.2504 51.0468 31.9104L52.5418 34.5004C52.9218 35.1604 52.7868 35.9904 52.2168 36.4954L49.5518 38.8654C49.5968 39.2354 49.6168 39.6154 49.6168 40.0004C49.6168 40.3854 49.5918 40.7654 49.5518 41.1354L52.2218 43.5104C52.7918 44.0154 52.9218 44.8504 52.5468 45.5054L51.0518 48.0954C50.6718 48.7504 49.8818 49.0554 49.1618 48.8154L45.7718 47.6904C45.1668 48.1454 44.5068 48.5254 43.8068 48.8304L43.0868 52.3254C42.9318 53.0704 42.2768 53.6004 41.5218 53.6004H38.5318C37.7718 53.6004 37.1168 53.0654 36.9668 52.3254L36.2468 48.8304C35.5418 48.5304 34.8868 48.1454 34.2818 47.6904L30.8768 48.8154C30.1568 49.0554 29.3668 48.7554 28.9868 48.0954L27.4918 45.5054C27.1118 44.8454 27.2468 44.0154 27.8168 43.5104L30.4868 41.1354C30.4418 40.7654 30.4218 40.3854 30.4218 40.0004C30.4218 39.6154 30.4468 39.2354 30.4868 38.8654L27.8168 36.4904C27.2468 35.9854 27.1168 35.1504 27.4918 34.4954L28.9868 31.9054C29.3668 31.2454 30.1568 30.9454 30.8768 31.1854L34.2668 32.3104C34.8718 31.8554 35.5318 31.4754 36.2318 31.1704L36.9568 27.6754ZM40.0168 44.0004C42.2268 43.9904 44.0118 42.1954 44.0018 39.9854C43.9918 37.7754 42.1968 35.9904 39.9868 36.0004C37.7768 36.0104 35.9918 37.8054 36.0018 40.0154C36.0118 42.2254 37.8068 44.0104 40.0168 44.0004Z" fill="white"/>
<defs>
<linearGradient id="paint0_linear_618_27196" x1="40" y1="0" x2="40" y2="80" gradientUnits="userSpaceOnUse">
<stop stop-color="#66CBFF"/>
<stop offset="0.5" stop-color="#00A9FF"/>
<stop offset="1" stop-color="#0277D9"/>
</linearGradient>
</defs>
</svg>
