<svg width="80" height="80" viewBox="0 0 80 80" fill="none" xmlns="http://www.w3.org/2000/svg">
<path d="M0 8C0 3.58172 3.58172 0 8 0H72C76.4183 0 80 3.58172 80 8V72C80 76.4183 76.4183 80 72 80H8C3.58172 80 0 76.4183 0 72V8Z" fill="url(#paint0_linear_618_27202)"/>
<path d="M43.6 32.7992H36.4L34.535 29.0742C34.445 28.8942 34.4 28.6942 34.4 28.4942C34.4 27.7792 34.98 27.1992 35.695 27.1992H44.305C45.02 27.1992 45.6 27.7792 45.6 28.4942C45.6 28.6942 45.555 28.8942 45.465 29.0742L43.6 32.7992ZM35.68 35.1992H44.32L46.755 37.2292C50.08 39.9992 52 44.0992 52 48.4242C52 50.8392 50.04 52.7992 47.625 52.7992H32.37C29.96 52.7992 28 50.8392 28 48.4242C28 44.0992 29.92 39.9992 33.245 37.2292L35.68 35.1992ZM40.2 38.3992C39.65 38.3992 39.2 38.8492 39.2 39.3992V39.5992C37.76 39.6142 36.6 40.7842 36.6 42.2242C36.6 43.5092 37.525 44.6042 38.795 44.8142L40.88 45.1642C41.18 45.2142 41.4 45.4742 41.4 45.7792C41.4 46.1242 41.12 46.4042 40.775 46.4042L38 46.3992C37.45 46.3992 37 46.8492 37 47.3992C37 47.9492 37.45 48.3992 38 48.3992H39.2V48.5992C39.2 49.1492 39.65 49.5992 40.2 49.5992C40.75 49.5992 41.2 49.1492 41.2 48.5992V48.3642C42.45 48.1592 43.4 47.0792 43.4 45.7742C43.4 44.4892 42.475 43.3942 41.205 43.1842L39.12 42.8342C38.82 42.7842 38.6 42.5242 38.6 42.2192C38.6 41.8742 38.88 41.5942 39.225 41.5942H41.6C42.15 41.5942 42.6 41.1442 42.6 40.5942C42.6 40.0442 42.15 39.5942 41.6 39.5942H41.2V39.3942C41.2 38.8442 40.75 38.3942 40.2 38.3942V38.3992Z" fill="white"/>
<defs>
<linearGradient id="paint0_linear_618_27202" x1="40" y1="0" x2="40" y2="80" gradientUnits="userSpaceOnUse">
<stop stop-color="#66CBFF"/>
<stop offset="0.5" stop-color="#00A9FF"/>
<stop offset="1" stop-color="#0277D9"/>
</linearGradient>
</defs>
</svg>
