<svg width="946" height="599" viewBox="0 0 946 599" fill="none" xmlns="http://www.w3.org/2000/svg">
<path d="M914.78 226.012C880.286 239.17 847.393 261.091 818.152 290.41C774.913 334.248 769.532 365.901 732.515 388.146C696.542 409.744 654.224 408.333 623.759 390.164C582.192 365.362 589.193 325.154 545.959 249.127C520.527 204.449 472.854 120.588 396.488 110.31C357.907 105.121 315.192 119.143 275.491 132.163C226.828 148.123 217.681 159.922 193.187 160.751C164.092 161.748 122.817 146.963 76.4688 68.44" stroke="url(#paint0_linear_680_29351)" stroke-miterlimit="10"/>
<path d="M913.936 233.518C882.956 244.923 853.169 263.385 826.063 287.98C823.462 290.371 820.844 292.839 818.193 295.383C774.995 337.544 769.477 367.686 733.007 389.294C717.099 398.761 700.274 404.254 683.51 405.455C671.506 406.301 659.663 405.103 648.287 401.893C639.782 399.486 631.634 395.807 623.999 390.926C615.452 385.656 607.82 378.475 601.413 369.675C589.633 353.429 583.292 333.669 572.414 308.212C564.217 289.05 554.65 271.054 543.822 254.427C538.11 245.522 531.499 234.85 523.599 223.659C502.476 193.653 474.394 159.887 435.642 141.624C422.513 135.34 408.686 131.095 394.425 128.97C392.242 128.638 390.055 128.388 387.889 128.184C366.449 126.13 344.991 128.717 322.577 133.535C305.828 137.049 289.512 142.471 273.434 147.391C266.685 149.517 260.64 151.475 255.154 153.353C222.007 164.758 212.266 172.702 191.461 172.416C175.653 172.196 156.274 167.197 134.109 150.153C115.93 136.195 95.7159 113.9 73.8982 79.6656" stroke="url(#paint1_linear_680_29351)" stroke-miterlimit="10"/>
<path d="M913.077 241.045C882.527 251.851 853.073 269.542 826.149 293.255C823.565 295.547 820.967 297.903 818.354 300.325C775.119 340.813 769.444 369.397 733.537 390.434C717.561 400.057 700.65 405.71 683.777 407.07C671.702 407.923 659.796 406.657 648.384 403.305C639.896 400.762 631.807 396.853 624.295 391.664C615.88 386.028 608.343 378.651 601.944 369.788C589.664 353.017 582.636 333.697 571.606 309.726C563.135 291.51 553.146 274.679 541.79 259.488C535.891 251.404 529.277 241.636 521.217 231.622C499.744 204.929 472.764 175.915 433.993 159.643C420.621 153.918 406.712 149.877 392.442 147.571C390.229 147.232 388.037 146.94 385.861 146.713C364.117 144.363 343.389 146.048 320.799 149.736C303.781 152.53 287.632 157.826 271.463 162.602C264.75 164.572 258.677 166.379 253.104 168.094C220.136 178.306 210.307 185.407 189.824 184.043C174.218 183.005 155.155 177.297 132.888 160.086C114.707 146.004 94.1127 123.952 71.3706 90.9259" stroke="url(#paint2_linear_680_29351)" stroke-miterlimit="10"/>
<path d="M912.35 248.494C882.164 258.711 852.98 275.667 826.189 298.555C823.628 300.77 821.044 303.02 818.461 305.332C775.163 344.119 769.397 371.203 734.055 391.587C717.321 401.231 701.606 407.345 684.043 408.721C671.886 409.585 659.905 408.247 648.45 404.746C639.977 402.062 631.948 397.915 624.566 392.411C616.276 386.41 608.823 378.835 602.419 369.903C589.67 352.614 581.96 333.777 570.758 311.309C562.004 294.027 551.575 278.388 539.682 264.711C533.523 257.432 526.963 248.581 518.759 239.747C496.847 216.141 471.07 192.047 432.289 177.726C418.673 172.568 404.665 168.733 390.371 166.249C388.148 165.888 385.887 165.559 383.774 165.325C362.474 162.865 340.784 163.108 319.002 166.05C301.718 168.106 285.706 173.35 269.408 177.871C262.722 179.723 256.64 181.364 250.966 182.912C218.196 191.915 208.274 198.131 188.115 195.751C172.686 193.931 153.908 187.444 131.584 170.077C113.359 155.985 92.4731 133.99 68.8288 102.075" stroke="url(#paint3_linear_680_29351)" stroke-miterlimit="10"/>
<path d="M911.561 255.977C881.774 265.621 852.896 281.82 826.258 303.827C823.715 305.963 821.143 308.093 818.597 310.311C775.292 347.493 769.371 372.876 734.579 392.747C717.505 402.458 702.188 408.929 684.304 410.356C672.074 411.239 660.028 409.825 648.545 406.158C640.059 403.35 632.067 398.967 624.801 393.136C616.651 386.808 609.281 379.075 602.863 370.12C589.648 352.293 581.169 333.981 569.895 312.853C561.936 297.969 551.651 284.2 537.558 269.896C531.163 263.385 524.588 255.415 516.28 247.791C493.8 227.161 469.346 208.138 430.629 195.784C416.793 191.181 402.69 187.545 388.378 184.889C386.129 184.501 383.902 184.16 381.754 183.877C360.518 180.961 338.902 180.424 317.14 182.273C299.561 183.584 283.768 188.816 267.386 193.03C260.799 194.782 254.593 196.291 248.841 197.637C216.26 205.531 206.268 210.765 186.407 207.342C171.161 204.721 152.689 197.502 130.288 179.994C112.094 165.765 90.8475 143.996 66.3068 113.234" stroke="url(#paint4_linear_680_29351)" stroke-miterlimit="10"/>
<path d="M910.733 263.459C881.349 272.542 852.783 287.985 826.303 309.102C823.782 311.141 821.236 313.153 818.717 315.253C775.402 350.644 769.313 374.653 735.116 393.879C717.698 403.676 702.779 410.505 684.59 411.985C672.276 412.881 660.156 411.388 648.635 407.558C640.174 404.629 632.257 400.024 625.145 393.894C617.131 387.218 609.844 379.293 603.423 370.269C589.718 351.941 580.442 334.208 569.125 314.428C560.754 299.861 549.87 287.436 535.533 275.091C528.871 269.343 522.273 262.292 513.927 255.79C490.7 237.971 467.704 224.173 428.986 213.731C415.531 210.099 400.666 206.002 386.382 203.435C384.109 203.021 381.915 202.667 379.732 202.335C358.592 198.967 337.095 197.656 315.412 198.413C297.568 198.984 281.891 204.181 265.383 208.202C258.749 209.82 252.621 211.121 246.76 212.339C214.346 219.222 204.142 223.894 184.742 219.055C169.748 215.319 151.501 207.658 129.052 189.954C110.883 175.546 89.252 154.039 63.8106 124.45" stroke="url(#paint5_linear_680_29351)" stroke-miterlimit="10"/>
<path d="M909.92 270.93C880.932 279.465 852.671 294.158 826.344 314.382C823.845 316.323 821.307 318.234 818.829 320.22C775.458 353.954 769.25 376.372 735.631 395.031C717.921 404.885 703.367 412.084 684.837 413.631C672.468 414.523 660.301 412.958 648.761 408.991C640.302 405.922 632.437 401.083 625.456 394.65C617.602 387.612 610.402 379.503 603.96 370.439C589.789 351.573 579.675 334.328 568.371 315.99C559.59 301.659 548.065 290.693 533.518 280.295C526.561 275.301 518.617 271.522 511.544 263.974C484.773 256.308 466.653 237.326 427.368 231.895C413.489 229.996 398.611 224.868 384.425 222.139C382.123 221.718 379.894 221.315 377.744 220.97C354.735 217.243 336.997 214.961 313.678 214.638C295.573 214.452 280.052 219.643 263.435 223.392C256.902 224.91 250.687 226.047 244.724 227.098C212.567 232.786 202.374 235.98 183.132 230.58C168.235 226.352 150.349 217.642 127.835 199.82C109.636 185.405 87.7093 163.975 61.3376 135.552" stroke="url(#paint6_linear_680_29351)" stroke-miterlimit="10"/>
<path d="M909.123 278.416C880.533 286.404 852.583 300.334 826.41 319.638C823.914 321.498 821.402 323.291 818.966 325.164C775.473 357.184 769.153 378.055 736.107 396.165C717.999 406.073 703.902 413.643 685.061 415.264C672.581 416.176 660.315 414.521 648.72 410.358C639.27 407.08 632.19 401.401 625.615 395.342C617.912 387.95 610.787 379.653 604.315 370.539C589.674 351.155 578.641 334.482 567.387 317.492C558.18 303.537 545.978 293.918 531.351 285.434C524.051 281.206 516 278.78 509.013 272.012C481.269 268.627 464.202 256.587 425.606 249.895C411.76 247.51 396.425 243.573 382.297 240.795C380.002 240.274 377.735 239.902 375.609 239.522C352.279 235.434 335.286 232.19 311.752 230.976C293.397 230.054 278.021 235.216 261.291 238.714C254.785 240.114 248.561 241.085 242.497 241.969C210.507 246.584 200.237 248.816 181.323 242.318C166.603 237.309 149.023 227.866 126.437 209.884C108.223 195.466 85.9668 174.125 58.6797 146.872" stroke="url(#paint7_linear_680_29351)" stroke-miterlimit="10"/>
<path d="M908.299 285.885C880.113 293.35 852.484 306.509 826.467 324.861C823.989 326.642 821.485 328.334 819.006 330.053C775.524 360.39 769.052 379.685 736.628 397.237C718.179 407.211 704.476 415.159 685.32 416.81C672.775 417.75 660.45 416.033 648.833 411.728C639.277 408.302 632.401 402.34 625.927 396.038C617.932 388.259 611.807 379.877 604.845 370.688C589.715 350.802 574.948 337.557 566.576 319.043C554.773 308.281 545.438 290.74 529.237 290.616C520.804 290.55 513.414 286.034 506.538 280.072C477.811 280.946 462.387 272.775 423.881 267.932C409.834 266.159 394.222 262.284 380.239 259.415C377.9 258.883 375.663 258.375 373.505 258.07C349.884 253.628 333.635 249.361 309.909 247.219C291.253 245.509 276.063 250.672 259.235 253.921C252.755 255.204 246.504 256.025 240.357 256.726C208.602 260.305 198.201 261.416 179.582 253.958C165.034 248.124 147.745 237.945 125.116 219.81C106.9 205.268 84.3606 184.151 56.0991 158.054" stroke="url(#paint8_linear_680_29351)" stroke-miterlimit="10"/>
<path d="M907.491 293.332C879.689 300.298 852.365 312.721 826.503 330.156C824.048 331.839 821.588 333.336 819.103 335.013C775.471 363.629 769.008 381.384 737.128 398.382C718.329 408.4 705.034 416.728 685.567 418.453C672.944 419.392 660.551 417.598 648.9 413.144C639.238 409.571 632.579 403.268 626.179 396.776C618.405 388.842 612.439 380.167 605.331 370.801C589.74 350.358 573.837 338.028 565.698 320.532C553.233 310.504 542.89 293.721 527.098 295.746C518.463 296.847 510.811 293.279 504.079 288.11C474.369 293.244 460.564 288.976 422.172 285.949C407.928 284.768 392.164 281.022 378.181 278.01L371.458 276.482C347.522 271.661 331.972 266.421 308.094 263.319C289.162 260.848 274.138 266.028 257.202 269.006C250.748 270.172 244.489 270.826 238.245 271.34C206.717 273.922 196.193 273.937 177.879 265.479C163.518 258.823 146.519 247.909 123.829 229.636C105.62 214.993 82.67 194.05 53.5563 169.116" stroke="url(#paint9_linear_680_29351)" stroke-miterlimit="10"/>
<path d="M906.729 300.785C879.337 307.279 852.347 318.951 826.658 335.412C824.228 336.916 821.768 338.413 819.323 339.914C775.677 366.82 769.047 382.996 737.713 399.5C718.568 409.542 705.604 418.254 685.889 420.046C673.19 421.017 660.728 419.152 649.052 414.534C639.269 410.81 632.815 404.286 626.53 397.492C619.004 389.285 613.152 380.451 605.894 370.927C589.817 349.963 572.802 338.511 564.98 322.074C551.842 312.756 538.885 307.551 525.124 300.909C516.318 301.128 508.376 300.537 501.726 296.168C471.029 305.642 458.886 305.227 420.592 303.948C406.125 303.478 390.088 299.978 376.249 296.608C373.866 296.066 371.585 295.548 369.482 295.07C345.389 289.164 330.463 283.635 306.363 279.599C287.141 276.362 272.303 281.544 255.239 284.266C248.816 285.295 242.51 285.815 236.252 286.121C204.95 287.706 194.372 286.598 176.318 277.129C162.124 269.669 145.432 258.023 122.655 239.586C104.449 224.861 81.2101 204.1 51.1412 180.306" stroke="url(#paint10_linear_680_29351)" stroke-miterlimit="10"/>
<path d="M905.905 308.26C878.879 314.265 852.183 325.177 826.633 340.663C824.218 342.17 821.775 343.527 819.356 344.91C775.613 370.067 768.899 384.702 738.191 400.629C718.687 410.755 706.209 419.845 686.11 421.693C673.3 422.684 660.737 420.728 649.009 415.915C639.061 412.031 632.791 405.24 626.726 398.229C619.361 389.791 613.68 380.749 606.323 370.977C589.792 349.498 571.635 338.917 564.099 323.532C550.3 314.948 536.803 311.162 522.992 305.968C513.851 307.181 505.783 307.692 499.234 304.107C467.582 317.784 457.046 321.394 418.864 321.868C404.188 322.049 387.937 318.603 374.169 315.126C371.756 314.578 369.476 314.059 367.357 313.578C342.983 307.279 328.789 300.703 304.49 295.778C285.006 291.784 270.32 296.979 253.147 299.43C246.747 300.361 240.489 300.667 234.024 300.863C202.94 301.49 192.194 299.213 174.504 288.758C160.496 280.477 144.09 268.114 121.256 249.521C103.054 234.714 79.4082 214.107 48.4826 191.496" stroke="url(#paint11_linear_680_29351)" stroke-miterlimit="10"/>
<path d="M905.104 315.694C878.457 321.244 852.074 331.408 826.686 345.905C824.256 347.409 821.862 348.551 819.465 349.836C775.614 373.222 768.817 386.316 738.703 401.741C718.853 411.89 706.784 421.361 686.36 423.279C673.5 424.284 660.895 422.263 649.161 417.315C639.245 413.294 632.997 406.2 627.039 398.925C619.966 390.286 614.397 381.023 606.825 371.181C589.812 349.161 570.539 339.478 563.28 325.122C548.809 317.25 534.858 314.779 520.904 311.238C511.448 313.428 503.234 315.057 496.8 312.259C464.161 330.214 455.265 337.774 417.18 339.998C402.289 340.85 385.892 337.165 372.157 333.88C369.715 333.325 367.42 332.804 365.302 332.322C340.616 325.624 326.966 318.904 302.665 312.211C283.068 306.813 268.39 312.648 251.096 314.886C244.669 315.666 238.257 315.993 231.89 315.868C201.019 315.557 190.169 312.105 172.783 300.65C158.947 291.544 142.842 278.469 119.951 259.718C101.678 244.814 77.7631 224.371 45.922 202.93" stroke="url(#paint12_linear_680_29351)" stroke-miterlimit="10"/>
<path d="M905.28 318.969C878.999 324.108 852.923 333.552 827.698 347.068C825.312 348.376 822.903 349.515 820.519 350.68C776.574 372.296 769.665 383.844 740.178 398.753C719.973 408.965 708.313 418.817 687.582 420.789C674.641 421.814 661.964 419.722 650.199 414.618C640.108 410.413 634.084 403.082 628.232 395.544C621.469 386.564 616.066 377.113 608.295 367.123C590.8 344.644 570.402 335.753 563.426 322.47C548.297 315.311 533.865 314.211 519.793 312.207C510.019 315.393 501.678 318.124 495.34 316.129C461.718 338.343 454.411 350.006 416.512 353.731C401.392 355.251 384.789 351.582 371.116 348.166L364.27 346.426C339.1 340.09 326.545 330.864 301.875 324.026C281.84 318.445 267.491 323.718 250.102 325.626C243.634 326.281 237.189 326.457 230.798 326.154C200.213 324.921 189.194 320.238 172.123 307.807C158.46 297.876 142.641 284.084 119.692 265.177C101.437 250.194 77.1602 229.916 44.4036 209.644" stroke="url(#paint13_linear_680_29351)" stroke-miterlimit="10"/>
<path d="M905.862 320.401C879.97 325.063 854.224 333.711 829.184 346.155C826.801 347.382 824.419 348.403 822.061 349.451C777.941 369.321 770.989 379.42 742.07 393.738C721.504 403.972 710.263 414.227 689.207 416.269C676.187 417.282 663.445 415.085 651.66 409.794C641.483 405.426 635.592 397.919 629.923 390.052C623.329 381.008 618.033 371.293 610.19 361.143C592.223 338.084 570.7 330.13 563.996 317.895C548.195 311.447 533.459 308.551 519.088 311.269C508.788 313.226 500.49 319.38 494.356 317.986C459.765 344.462 454.063 360.232 416.274 365.647C400.946 367.88 384.114 364.2 370.54 360.684C368.039 360.116 365.75 359.431 363.664 358.875C338.182 352.14 326.381 341.913 301.509 334.124C281.217 327.766 267.016 333.072 249.531 334.65C243.025 335.207 236.55 335.233 230.144 334.727C199.778 332.598 188.654 326.678 171.883 313.266C158.41 302.495 142.878 287.987 119.868 268.943C101.631 253.882 76.9913 233.768 43.3459 214.548" stroke="url(#paint14_linear_680_29351)" stroke-miterlimit="10"/>
<path d="M906.409 321.782C880.883 326.027 855.453 333.918 830.593 345.306C828.218 346.432 825.847 347.332 823.527 348.286C779.335 366.289 772.325 374.812 743.991 388.729C723.095 398.99 712.257 409.645 690.807 411.721C677.698 412.832 664.867 410.615 653.04 405.196C642.746 400.657 637.038 392.822 631.497 384.799C625.119 375.557 619.973 365.589 611.907 355.265C593.484 331.691 570.829 324.631 564.387 313.422C547.957 307.633 532.532 306.411 518.249 310.444C507.519 313.475 499.222 320.513 493.09 320.127C457.526 350.885 453.433 370.741 415.758 377.766C400.207 380.709 383.209 377.011 369.658 373.46L362.756 371.563C336.973 364.45 325.915 353.2 300.833 344.499C280.259 337.337 266.208 342.8 248.613 344.046C242.065 344.521 235.555 344.415 229.129 343.731C198.993 340.728 187.752 333.549 171.281 319.156C157.996 307.564 142.765 292.343 119.683 273.138C95.3755 252.255 69.3939 234.462 42.0462 219.971" stroke="url(#paint15_linear_680_29351)" stroke-miterlimit="10"/>
<path d="M907.159 322.362C881.983 326.236 856.863 333.398 832.188 343.734C829.82 344.759 827.472 345.562 825.178 346.398C780.858 362.583 773.771 369.67 746.045 383.026C724.773 393.305 714.37 404.367 692.667 406.529C679.477 407.64 666.579 405.311 654.742 399.68C644.361 394.978 638.804 386.889 633.398 378.609C627.25 369.173 622.25 358.97 614.063 348.495C595.156 324.4 571.429 318.248 565.219 308.058C548.099 303.058 532.07 303.405 517.825 308.701C506.671 312.849 498.328 320.904 492.316 321.286C455.769 356.303 453.295 380.269 415.749 388.906C399.974 392.559 382.77 388.815 369.314 385.12C366.796 384.424 364.463 383.73 362.386 383.135C336.247 375.613 325.982 363.391 300.723 353.766C279.893 345.826 266.006 351.244 248.285 352.296C241.701 352.647 235.165 352.371 228.731 351.472C198.805 347.613 187.473 339.137 171.297 323.784C158.202 311.351 143.254 295.434 120.119 276.053C95.5854 255.035 69.0871 237.679 41.0544 224.267" stroke="url(#paint16_linear_680_29351)" stroke-miterlimit="10"/>
<path d="M908.256 321.44C883.429 324.935 858.62 331.349 834.144 340.602C831.798 341.529 829.457 342.23 827.186 342.968C782.736 357.274 775.541 362.794 748.46 375.762C726.827 386.062 716.838 397.547 694.82 399.74C681.551 400.881 668.582 398.48 656.723 392.688C646.246 387.8 640.835 379.477 635.58 370.943C629.633 361.368 624.793 350.872 616.456 340.24C597.078 315.626 572.199 310.323 566.287 301.208C548.51 296.923 531.884 298.943 517.632 305.492C506.09 310.805 497.675 319.79 491.763 320.955C454.244 360.254 453.407 388.313 415.965 398.537C399.992 402.926 382.559 399.171 369.178 395.349C366.649 394.631 364.306 393.913 362.233 393.298C335.823 385.406 326.305 372.141 300.85 361.608C279.754 352.868 266.01 358.339 248.21 359.126C241.581 359.357 235.011 358.93 228.558 357.848C198.838 353.152 187.431 343.364 171.552 327.05C158.635 313.835 143.971 297.139 120.774 277.621C96.0727 256.409 69.1072 239.438 40.4545 227.072" stroke="url(#paint17_linear_680_29351)" stroke-miterlimit="10"/>
<path d="M909.373 320.518C884.887 323.668 860.394 329.345 836.129 337.492C833.791 338.318 831.481 338.883 829.232 339.523C784.624 352.004 777.518 356.044 750.909 368.502C728.935 378.806 719.345 390.711 697.016 392.978C683.662 394.159 670.617 391.679 658.739 385.7C648.17 380.605 642.896 372.087 637.781 363.277C632.062 353.445 627.369 342.777 618.883 331.988C599.007 306.912 573.004 302.402 567.393 294.342C551.094 290.909 533.796 293.657 517.493 302.269C505.572 308.772 497.06 318.66 491.259 320.632C452.757 364.189 453.569 396.365 416.216 408.171C400.04 413.316 382.394 409.471 369.09 405.585C366.522 404.837 364.183 404.1 362.105 403.443C335.421 395.118 326.567 380.976 300.938 369.438C279.6 359.922 265.974 365.42 248.065 365.936C241.838 366.105 235.577 364.929 228.349 364.191C198.378 361.144 187.336 347.574 171.757 330.28C159.044 316.165 144.649 298.832 121.395 279.156C96.4961 257.744 69.0488 241.135 39.7889 229.775" stroke="url(#paint18_linear_680_29351)" stroke-miterlimit="10"/>
<path d="M910.471 319.604C886.313 322.418 862.128 327.351 838.085 334.368C835.759 335.073 833.467 335.559 831.229 336.079C786.566 346.491 779.27 349.254 753.323 361.246C730.974 371.568 721.877 383.893 699.164 386.217C685.705 387.429 672.564 384.864 660.647 378.699C650 373.402 644.868 364.669 639.888 355.602C634.429 345.582 629.853 334.674 621.217 323.727C600.873 298.051 573.724 294.432 568.402 287.486C551.464 284.86 533.672 288.925 517.278 299.165C505.028 306.847 496.385 317.651 490.699 320.41C451.213 368.226 453.688 404.522 416.42 417.93C400.031 423.808 382.184 419.897 368.917 415.916C366.339 415.145 363.979 414.363 361.915 413.709C334.925 404.965 326.842 389.744 300.985 377.372C279.365 367.053 265.946 372.66 247.864 372.849C241.19 372.578 234.576 371.844 228.05 370.649C198.275 366.537 187.17 351.883 171.871 333.624C159.364 318.673 145.237 300.639 121.985 280.82C96.9008 259.244 68.9827 243.047 39.1491 232.763" stroke="url(#paint19_linear_680_29351)" stroke-miterlimit="10"/>
<path d="M911.577 318.664C887.733 321.159 863.85 325.343 840.038 331.195C837.734 331.802 835.46 332.211 833.254 332.593C788.451 341.165 781.098 342.414 755.669 354.03C733.045 364.269 724.358 377.037 701.339 379.414C687.814 380.672 674.614 378.039 662.696 371.703C651.956 366.199 646.95 357.249 642.136 347.931C636.844 337.724 632.462 326.571 623.661 315.464C602.862 289.273 574.529 286.578 569.554 280.554C551.939 278.679 533.623 284.012 517.12 295.821C504.56 304.728 495.78 316.406 490.195 319.948C449.737 372.045 453.848 412.578 416.666 427.445C400.075 434.079 382.026 430.102 368.84 426.037C366.237 425.24 363.867 424.434 361.812 423.741C334.5 414.575 327.18 398.376 301.113 385.093C279.231 373.953 265.96 379.655 247.804 379.56C241.085 379.211 234.44 378.326 227.907 376.91C198.327 371.731 187.159 355.994 172.16 336.755C159.825 320.979 145.969 302.226 122.642 282.328C97.3598 260.565 68.9595 244.758 38.5614 235.53" stroke="url(#paint20_linear_680_29351)" stroke-miterlimit="10"/>
<path d="M912.655 317.756C885.521 320.535 860.942 324.059 841.985 328.099C839.674 328.602 837.431 328.873 835.252 329.201C790.332 335.772 782.903 335.647 758.174 346.641C735.117 356.945 726.785 370.123 703.499 372.583C689.894 373.876 676.623 371.163 664.69 364.65C653.863 358.921 648.975 349.792 644.316 340.201C639.253 329.799 635.018 318.412 626.067 307.147C604.783 280.435 575.308 278.611 570.617 273.721C552.331 272.622 533.521 279.214 516.944 292.531C504.09 302.666 494.685 314.305 489.655 319.556C442.968 368.429 454.015 420.653 416.895 437.015C400.111 444.428 381.822 440.354 368.717 436.205C366.088 435.382 363.728 434.537 361.662 433.821C334.087 424.245 327.517 407.065 301.22 392.887C279.075 380.927 265.958 386.705 247.687 386.296C240.886 386.1 234.195 385.068 227.702 383.215C198.743 375.237 187.091 360.13 172.369 339.947C160.244 323.314 146.685 303.867 123.255 283.74C97.7554 261.795 68.8652 246.37 37.9187 238.179" stroke="url(#paint21_linear_680_29351)" stroke-miterlimit="10"/>
<path d="M913.768 316.836C886.413 319.297 862.172 322.014 843.956 324.968C841.657 325.351 839.436 325.524 837.28 325.754C792.212 330.318 784.734 328.845 760.591 339.438C737.163 349.74 729.252 363.384 705.66 365.898C691.963 367.228 678.61 364.433 666.655 357.735C655.759 351.764 651.004 342.46 646.5 332.595C641.637 321.992 637.621 310.388 628.462 298.952C606.712 271.703 576.179 270.79 571.677 266.909C550.574 266.226 531.505 276.615 516.754 289.382C503.626 300.792 494.074 313.486 489.119 319.289C442.229 374.161 454.17 428.85 417.124 446.729C400.152 454.901 381.621 450.732 368.598 446.498C365.948 445.629 363.558 444.777 361.512 444.045C333.635 434.031 327.807 415.827 301.305 400.78C278.909 388.022 265.94 393.896 247.569 393.176C240.724 392.867 234.004 391.677 227.506 389.625C198.705 380.882 187.008 364.408 172.571 343.24C160.652 325.77 147.36 305.623 123.844 285.333C105.616 269.616 78.201 250.825 37.2565 240.988" stroke="url(#paint22_linear_680_29351)" stroke-miterlimit="10"/>
<path d="M914.877 315.91C887.302 318.116 863.421 319.927 845.919 321.852C843.636 322.094 841.438 322.17 839.281 322.399C794.186 324.839 786.566 322.018 763.017 332.17C739.469 342.322 731.736 356.541 707.823 359.105C694.043 360.492 680.613 357.624 668.649 350.739C657.688 344.507 653.027 335.059 648.673 324.942C644.022 314.16 640.112 302.292 630.861 290.712C608.605 263.039 576.967 262.903 572.751 260.074C550.977 260.103 531.52 272.13 516.573 286.169C503.217 298.719 493.554 312.581 488.611 318.88C441.706 379.67 454.378 436.931 417.37 456.278C400.216 465.251 381.463 460.97 368.491 456.645C365.831 455.753 363.435 454.859 361.335 454.094C333.183 443.586 328.067 424.495 301.374 408.52C278.71 394.962 265.876 400.928 247.405 399.897C240.515 399.48 233.764 398.139 227.258 395.896C198.621 386.367 186.908 368.532 172.737 346.397C161.024 328.09 147.999 307.243 124.397 286.789C106.157 270.988 78.4137 252.348 36.5448 243.719" stroke="url(#paint23_linear_680_29351)" stroke-miterlimit="10"/>
<path d="M915.975 314.989C888.203 316.903 864.673 317.848 847.881 318.762C845.61 318.883 843.429 318.881 841.322 318.896C796.138 319.341 788.4 315.198 765.442 324.929C741.29 335.15 734.239 349.708 710 352.343C696.131 353.788 682.619 350.838 670.645 343.751C659.624 337.237 655.058 327.647 650.85 317.295C646.418 306.296 642.665 294.217 633.254 282.457C610.564 254.171 578.19 252.1 573.834 253.228C551.359 258.998 531.562 267.617 516.395 282.963C502.812 296.716 492.968 311.647 488.05 318.651C441.285 385.229 454.56 445.217 417.574 466.03C400.242 475.785 381.257 471.369 368.362 466.979C365.662 466.057 363.271 465.144 361.219 464.369C332.747 453.5 328.413 433.353 301.508 416.467C278.598 402.092 265.907 408.173 247.322 406.829C240.385 406.3 233.604 404.808 227.092 402.376C198.613 392.081 186.874 372.863 172.999 349.768C161.459 330.697 148.724 309.053 125.049 288.439C106.813 272.556 78.7026 254.1 35.9374 246.625" stroke="url(#paint24_linear_680_29351)" stroke-miterlimit="10"/>
<path d="M917.088 314.071C889.082 315.788 865.954 315.714 849.861 315.594C847.607 315.575 845.443 315.495 843.343 315.408C798.099 313.805 790.22 308.376 767.877 317.65C743.272 327.891 736.776 342.863 712.182 345.499C698.225 346.983 684.634 343.952 672.646 336.681C661.599 329.874 657.103 320.176 653.052 309.613C648.829 298.374 645.227 286.103 635.662 274.205C612.487 245.398 578.669 246.617 574.922 246.362C552.059 244.848 531.624 263.088 516.281 279.751C505.811 291.429 496.194 304.357 487.591 318.321C441.011 390.554 454.827 453.4 417.806 475.664C400.311 486.205 381.066 481.709 368.241 477.212C365.531 476.267 363.119 475.308 361.116 474.524C332.384 463.164 328.78 442.053 301.637 424.31C278.498 409.102 265.908 415.349 247.233 413.656C240.249 413.016 233.438 411.365 226.924 408.733C198.588 397.669 186.881 377.019 173.244 353.011C161.951 332.99 149.457 310.763 125.676 290.001C107.428 274.033 79.0044 255.732 35.309 249.423" stroke="url(#paint25_linear_680_29351)" stroke-miterlimit="10"/>
<path d="M918.19 313.147C890.039 314.481 867.248 313.538 851.821 312.459C800.775 308.88 793.03 301.158 770.296 310.385C745.41 320.5 739.204 336.032 714.335 338.79C700.288 340.332 686.615 337.226 674.613 329.766C651.971 315.163 657.078 289.554 638.059 265.948C614.418 236.603 579.377 239.189 575.993 239.51C530.926 243.663 497.452 300.431 486.998 317.979C440.672 395.697 454.995 461.557 418.041 485.297C396.593 499.072 372.444 489.329 360.943 484.66C331.909 472.923 329.044 450.807 301.709 432.137C270.911 411.077 259.081 428.62 226.68 415.09C175.011 393.42 178.622 337.556 126.34 291.548C108.095 275.498 79.3239 257.365 34.713 252.226" stroke="url(#paint26_linear_680_29351)" stroke-miterlimit="10"/>
<path d="M916.846 315.405C889.166 316.846 866.662 316.339 851.209 315.377C801.375 312.525 793.212 305.078 770.59 314.351C746.133 324.42 739.769 339.422 715.46 342.37C701.691 343.95 688.254 341.137 676.338 334.18C653.712 321.001 658.412 295.957 639.587 273.135C616.369 244.791 582.517 246.701 578.657 246.667C542.563 246.259 513.346 287.012 498.541 308.937C495.513 313.409 493.171 317.318 491.36 320.114C445.36 393.199 458.755 456.401 422.628 478.54C401.07 491.714 376.777 481.651 364.753 476.965C353.726 472.71 343.711 465.617 335.261 456.078C326.522 446.876 318.645 436.945 303.969 428.203C299.47 425.536 295.34 423.693 291.625 422.067C269.113 412.203 257.508 421.265 230.668 408.115C220.277 403.062 210.851 395.643 202.792 386.176C180.886 360.639 172.404 321.704 137.446 286.745C135.396 284.689 133.23 282.648 130.947 280.622C112.578 264.235 83.4552 245.468 38.2533 239.865" stroke="url(#paint27_linear_680_29351)" stroke-miterlimit="10"/>
<path d="M915.491 317.672C888.34 319.234 866.106 318.973 850.575 318.281C801.987 316.144 793.44 309.022 770.869 318.347C746.865 328.19 740.282 342.999 716.637 345.953C703.132 347.58 689.918 345.071 678.076 338.631C655.534 326.786 659.713 302.467 641.122 280.315C618.28 253.105 585.809 252.821 581.339 253.841C546.06 261.759 517.632 291.28 502.862 311.754C499.857 315.923 497.584 319.663 495.832 322.267C450.18 390.825 462.575 451.209 427.292 471.813C405.716 484.386 381.201 474.005 368.659 469.285C357.521 465.105 347.271 458.359 338.364 449.346C329.312 440.772 321.053 431.843 306.301 424.318C301.716 421.96 297.468 420.502 293.753 418.876C271.314 409.029 260.64 415.835 234.751 401.153C224.659 395.367 215.539 387.439 207.723 377.659C186.803 352.346 177.777 311.992 142.191 275.986C140.11 273.909 137.926 271.809 135.63 269.725C117.151 253.006 87.6776 233.603 41.8744 227.514" stroke="url(#paint28_linear_680_29351)" stroke-miterlimit="10"/>
<path d="M914.127 319.938C887.511 321.6 865.538 321.686 849.955 321.292C802.611 319.807 793.639 313.061 771.156 322.406C747.602 332.105 740.822 346.56 717.714 349.596C704.488 351.245 691.516 349.001 679.785 343.034C657.424 332.505 661.009 308.894 642.635 287.49C620.188 261.336 589.071 259.653 583.992 260.966C555.654 268.688 528.8 287.41 507.17 314.527C504.187 318.393 501.969 321.96 500.286 324.394C455.047 388.276 466.364 446.051 431.969 465.129C410.311 477.109 385.628 466.381 372.559 461.664C361.313 457.529 350.834 451.121 341.48 442.658C332.086 434.705 323.424 426.795 308.651 420.457C303.941 418.441 299.594 417.351 295.879 415.726C273.474 405.865 263.79 410.491 238.876 394.242C229.108 387.709 220.292 379.281 212.693 369.213C192.789 343.987 183.102 302.392 146.993 265.281C144.906 263.162 142.7 261.023 140.375 258.863C121.781 241.83 91.9422 221.789 45.5482 215.237" stroke="url(#paint29_linear_680_29351)" stroke-miterlimit="10"/>
<path d="M912.799 322.178C886.708 323.981 864.986 324.391 849.325 324.205C803.225 323.373 793.813 316.999 771.472 326.398C748.379 335.975 741.35 350.024 718.895 353.187C705.919 354.918 693.157 353 681.494 347.568C659.182 338.387 662.305 315.452 644.137 294.773C622.12 269.519 591.764 270.682 586.663 268.145C553.651 269.424 526.209 299.642 511.48 317.349C508.524 320.892 506.38 324.27 504.66 326.532C459.79 385.789 470.06 440.818 436.577 458.335C414.808 469.714 389.995 458.669 376.394 453.914C365.028 449.828 354.315 443.758 344.526 435.858C334.775 428.523 325.752 421.662 310.916 416.482C306.102 414.792 301.651 414.089 297.907 412.457C275.531 402.604 266.856 404.971 242.81 387.212C232.626 379.676 224.959 370.45 217.48 360.609C198.541 335.561 188.329 292.532 151.593 254.435C149.505 252.274 147.278 250.089 144.913 247.88C126.199 230.49 96.0098 209.814 49.0248 202.799" stroke="url(#paint30_linear_680_29351)" stroke-miterlimit="10"/>
<path d="M911.452 324.446C885.938 326.359 864.424 327.084 848.663 326.998C803.84 326.806 794.039 320.92 771.716 330.24C749.075 339.735 741.906 353.382 719.974 356.623C707.277 358.414 694.758 356.788 683.216 351.849C661.115 343.784 663.614 321.757 645.663 301.826C624.015 277.807 594.859 278.523 589.288 275.263C557.376 275.99 530.495 303.806 515.759 320.114C512.826 323.354 510.736 326.559 509.026 328.638C464.55 383.236 473.725 435.528 441.17 451.549C419.289 462.327 394.338 450.942 380.224 446.193C365.85 441.365 356.398 434.962 347.553 429.087C337.445 422.37 328.533 413.93 313.181 412.519C308.632 412.149 304.207 411.04 300.007 409.217C277.647 399.367 269.986 399.579 246.852 380.198C237.166 372.097 229.8 362.302 222.315 352.007C204.328 327.196 193.577 282.79 156.256 243.593C154.148 241.387 151.902 239.15 149.519 236.882C130.691 219.178 100.15 197.868 52.5642 190.366" stroke="url(#paint31_linear_680_29351)" stroke-miterlimit="10"/>
<path d="M910.1 326.737C885.058 328.757 863.853 329.819 848.102 329.962C804.497 330.335 794.242 324.88 771.998 334.259C749.755 343.639 742.435 356.861 721.102 360.258C702.515 363.211 688.652 358.519 684.865 356.323C664.691 344.543 664.868 328.238 647.119 309.052C625.88 286.093 597.882 286.413 591.881 282.459C561.079 282.657 534.792 307.997 519.996 322.934C517.1 325.874 515.065 328.907 513.376 330.826C469.293 380.764 477.342 430.251 445.697 444.855C423.676 455.025 398.629 443.31 383.978 438.542C369.327 433.774 359.673 427.715 350.523 422.367C340.072 416.271 330.625 408.553 315.38 408.646C310.768 408.728 306.266 407.851 302.047 406.049C279.715 396.205 273.056 394.26 250.842 373.279C241.641 364.609 234.623 354.235 227.203 343.585C210.122 319.144 198.854 273.202 160.962 232.91C158.843 230.66 156.577 228.377 154.164 226.061C135.211 208.02 104.319 186.075 56.1467 178.091" stroke="url(#paint32_linear_680_29351)" stroke-miterlimit="10"/>
<path d="M908.76 328.926C884.234 331.125 863.291 332.535 847.494 332.811C805.16 333.72 794.452 328.758 772.297 338.157C750.548 347.402 742.981 360.281 722.226 363.789C704.111 366.849 690.502 362.873 686.644 360.721C666.772 349.586 666.263 334.667 648.701 316.223C627.876 294.303 601.085 294.281 594.612 289.542C564.911 289.188 539.292 311.925 524.382 325.664C522.125 327.937 519.946 330.345 517.854 332.878C474.194 378.162 481.077 424.814 450.425 438.04C428.253 447.58 403.116 435.515 387.934 430.77C373.336 426.179 363.165 420.352 353.69 415.547C342.882 410.069 332.869 403.209 317.781 404.654C313.089 405.196 308.474 404.553 304.195 402.76C281.883 392.9 276.23 388.84 254.93 366.216C246.2 356.975 239.55 346.068 232.155 334.971C216.001 310.741 204.19 263.442 165.727 222.053C163.597 219.76 161.31 217.431 158.867 215.067C139.833 196.7 108.562 174.113 59.7837 165.662" stroke="url(#paint33_linear_680_29351)" stroke-miterlimit="10"/>
<path d="M907.436 331.158C883.448 333.439 862.784 335.118 846.887 335.7C805.83 337.186 794.674 332.698 772.533 342.101C751.231 351.221 743.479 363.688 723.321 367.291C705.588 370.437 692.308 367.194 688.319 365.074C668.721 354.639 667.48 341.034 650.184 323.329C629.768 302.468 604.1 302.064 597.217 296.676C568.631 295.774 543.666 316.11 528.64 328.383C526.418 330.435 524.271 332.631 522.21 334.962C478.948 375.566 484.674 419.344 455.007 431.231C432.68 440.16 407.458 427.789 391.753 423.028C376.996 418.524 366.495 412.992 356.711 408.734C345.062 403.751 332.714 401.035 320.036 400.668C314.657 400.371 309.912 401.102 306.219 399.585C283.94 389.712 279.285 383.576 258.905 359.29C250.699 349.51 244.358 337.995 236.963 326.487C221.67 302.617 209.402 253.795 170.308 211.297C168.173 208.982 165.856 206.584 163.377 204.15C144.213 185.404 112.567 162.218 63.2417 153.314" stroke="url(#paint34_linear_680_29351)" stroke-miterlimit="10"/>
<path d="M905.8 334.32C882.346 336.701 861.924 338.743 845.987 339.501C806.264 341.517 794.66 337.503 772.683 347.004C751.811 355.997 743.885 368.074 724.305 371.788C707.102 375.054 694.037 372.497 689.912 370.429C670.546 360.745 668.694 348.4 651.556 331.429C631.564 311.631 607.049 310.852 599.736 304.77C572.22 303.309 548.062 321.115 532.804 332.163C530.617 333.988 528.499 335.965 526.462 338.083C483.716 374.035 488.141 414.886 459.484 425.461C436.973 433.772 411.695 421.1 395.454 416.32C380.563 411.929 369.717 406.689 359.622 402.977C348.115 398.738 336.769 397.538 322.137 397.729C316.596 397.807 311.79 398.874 308.134 397.262C285.885 387.395 282.213 379.18 262.76 353.193C255.05 342.867 249.052 330.793 241.681 318.838C227.227 295.364 214.5 245.019 174.899 201.419C172.748 199.039 170.42 196.618 167.91 194.116C148.623 175.095 116.679 151.245 66.7087 141.844" stroke="url(#paint35_linear_680_29351)" stroke-miterlimit="10"/>
<path d="M903.162 342.627C880.238 345.129 860.096 347.44 844.082 348.469C805.564 350.964 793.49 347.521 771.623 356.945C751.198 365.813 743.078 377.517 724.081 381.322C707.348 384.696 694.558 382.838 690.283 380.818C671.139 371.925 668.671 360.796 651.734 344.571C632.188 325.738 608.799 324.7 601.051 317.882C574.652 315.996 551.996 334.616 535.753 340.938C533.281 343.173 531.174 344.956 529.533 346.187C487.263 377.456 490.38 415.419 462.762 424.688C440.061 432.339 414.727 419.367 397.959 414.59C382.934 410.313 371.743 405.365 361.347 402.16C349.484 398.539 337.639 398.583 323.14 399.75C317.437 400.202 312.57 401.604 308.933 399.976C286.698 390.113 284.002 379.92 265.51 352.156C258.271 341.321 252.622 328.668 245.279 316.247C231.645 293.185 218.482 241.282 178.31 196.585C176.143 194.188 173.793 191.707 171.26 189.144C151.826 169.885 119.487 145.39 68.9523 135.615" stroke="url(#paint36_linear_680_29351)" stroke-miterlimit="10"/>
<path d="M900.674 350.075C878.236 352.687 858.368 355.287 842.286 356.547C805.038 359.515 792.43 356.651 770.707 366.189C750.733 374.912 742.419 386.244 724.015 390.163C707.757 393.624 695.259 392.388 690.801 390.491C671.857 382.424 668.79 372.496 651.997 357.002C632.817 339.281 610.643 337.799 602.45 330.284C577.188 327.752 555.175 344.359 538.811 348.968C536.825 350.644 534.777 352.177 532.678 353.557C490.92 380.194 492.728 415.063 466.129 423.186C443.222 430.174 417.863 416.907 400.563 412.154C385.394 407.968 373.858 403.311 363.159 400.695C350.938 397.692 338.57 399.015 324.17 401.11C318.315 401.959 313.377 403.674 309.762 401.948C287.576 392.076 285.844 379.819 268.294 350.357C261.586 339.026 256.222 325.8 248.952 312.923C236.127 290.312 222.554 236.815 181.815 191.003C179.67 188.459 177.269 186.022 174.703 183.424C155.186 163.714 122.523 138.673 71.3736 128.264" stroke="url(#paint37_linear_680_29351)" stroke-miterlimit="10"/>
<path d="M898.128 357.528C876.233 360.264 856.626 363.149 840.496 364.686C804.531 368.069 791.541 365.796 769.829 375.358C750.3 383.956 741.792 394.914 723.971 398.925C708.155 402.486 696.316 400.393 691.353 400.108C671.261 398.997 668.947 384.12 652.411 369.405C633.671 352.811 612.633 350.889 603.999 342.656C579.838 339.572 558.515 354.095 541.956 356.974C540 358.448 537.986 359.763 535.926 360.908C494.697 382.895 495.164 414.684 469.529 421.628C446.436 427.936 421.027 414.411 403.19 409.639C387.872 405.563 376.002 401.221 364.997 399.132C352.419 396.747 339.549 399.395 325.229 402.432C319.207 403.675 314.232 405.691 310.59 404.082C288.424 394.193 287.641 379.932 271.078 348.721C264.782 336.866 259.81 323.072 252.539 309.721C240.55 287.588 226.525 232.467 185.238 185.461C183.046 182.989 180.661 180.391 178.082 177.667C158.455 157.623 125.444 131.866 73.6907 121.053" stroke="url(#paint38_linear_680_29351)" stroke-miterlimit="10"/>
<path d="M895.587 364.984C874.204 367.918 854.909 370.998 838.692 372.782C804.009 376.58 790.555 374.921 768.927 384.523C749.848 392.977 741.165 403.483 723.896 407.784C708.536 411.449 696.992 409.895 691.873 409.822C672.124 409.447 669.073 395.842 652.724 381.868C634.434 366.219 614.508 364.036 605.448 355.09C582.397 351.477 561.685 363.856 545.104 365.064C543.177 366.342 541.195 367.438 539.176 368.344C498.503 385.707 497.539 414.396 473.059 420.204C449.716 425.776 424.316 412.007 405.962 407.262C390.5 403.276 378.28 399.245 366.966 397.703C354.031 395.936 340.65 399.948 326.445 403.772C320.262 405.451 315.22 407.76 311.597 406.135C289.46 396.253 289.595 380 273.977 347.01C268.153 334.646 263.524 320.291 256.302 306.458C245.011 284.793 230.672 228.058 188.783 180.093C186.586 177.551 184.171 174.947 181.539 172.279C161.782 151.918 128.435 125.529 76.0759 114.249" stroke="url(#paint39_linear_680_29351)" stroke-miterlimit="10"/>
<path d="M893.062 372.428C872.276 375.394 853.193 378.831 836.899 380.885C803.464 385.049 789.576 384.073 768.04 393.675C749.393 402.001 740.508 412.236 723.845 416.53C708.956 420.302 697.707 419.288 692.416 419.422C673.003 419.884 669.227 407.43 653.075 394.221C635.214 379.615 616.436 377.076 606.936 367.413C584.985 363.248 565.006 373.553 548.231 373.031C546.331 374.103 544.384 374.975 542.41 375.636C502.362 388.475 499.943 413.831 476.514 418.623C453.085 423.416 427.522 409.548 408.64 404.744C393.048 400.852 380.484 397.113 368.83 396.11C355.553 394.964 341.688 400.223 327.539 405.027C321.194 407.142 316.095 409.705 312.483 408.103C290.379 398.208 291.407 379.999 276.861 345.217C271.475 332.356 267.19 317.443 260.02 303.108C249.473 281.981 234.77 223.58 192.347 174.425C190.143 171.868 187.689 169.255 185.054 166.415C165.235 145.649 131.523 118.622 78.5546 106.957" stroke="url(#paint40_linear_680_29351)" stroke-miterlimit="10"/>
<path d="M890.527 379.848C870.226 382.925 851.451 386.637 835.085 388.942C802.986 393.492 788.595 393.162 767.143 402.804C748.943 411.005 739.839 420.841 723.816 425.177C709.368 429.05 698.414 428.576 692.967 428.921C673.897 430.119 669.398 418.94 653.419 406.469C636.005 392.89 618.367 390.034 608.455 379.661C587.624 374.928 568.321 383.146 551.409 380.907C549.524 381.77 547.604 382.428 545.671 382.872C506.094 391.192 502.331 413.2 479.963 417C456.166 421.03 430.757 406.889 411.312 402.183C395.594 398.365 382.681 394.938 370.747 394.488C357.113 393.96 342.744 400.688 328.689 406.233C322.167 408.863 317.037 411.624 313.429 410.003C291.336 400.131 293.261 379.946 279.744 343.362C274.811 330.008 270.807 314.603 263.765 299.701C253.933 279.107 238.895 219.047 195.906 168.776C193.681 166.174 191.231 163.451 188.556 160.609C168.571 139.62 134.512 111.939 80.9606 99.7099" stroke="url(#paint41_linear_680_29351)" stroke-miterlimit="10"/>
<path d="M887.991 387.33C868.219 390.527 849.729 394.489 833.281 397.084C802.468 401.967 787.595 402.33 766.237 412.034C748.491 420.071 739.219 429.56 723.749 433.981C713.678 436.628 703.555 438.166 693.495 438.58C674.773 440.494 669.551 430.59 653.754 418.88C636.788 406.328 620.223 403.037 609.898 392.035C590.172 386.793 571.539 392.881 554.487 388.945C552.623 389.595 550.738 390.027 548.856 390.235C509.958 394.063 504.689 412.624 483.407 415.457C459.367 418.651 433.849 404.855 413.998 399.687C398.221 395.589 384.884 392.867 372.63 392.94C358.683 393.041 343.779 401.168 329.806 407.513C323.15 410.524 317.93 413.614 314.337 411.996C292.278 402.111 295.062 379.984 282.592 341.582C278.107 327.754 274.471 311.754 267.462 296.366C258.354 276.327 242.987 214.588 199.43 163.202C197.182 160.635 194.733 157.796 192.034 154.901C171.933 133.536 137.519 105.239 83.3764 92.5472" stroke="url(#paint42_linear_680_29351)" stroke-miterlimit="10"/>
<path d="M885.469 394.798C866.154 398.099 848.01 402.304 831.505 405.153C801.986 410.33 786.641 411.408 765.352 421.148C748.087 429.048 738.601 438.18 723.729 442.696C713.858 445.521 703.928 447.388 694.023 448.283C675.629 450.868 669.709 442.265 654.087 431.355C637.576 419.791 622.178 416.272 611.366 404.481C592.745 398.667 574.787 402.667 557.614 397.018C555.769 397.446 553.918 397.659 552.085 397.653C513.758 397.066 507.034 412.089 486.843 413.999C462.558 416.294 437.063 402.401 416.661 397.272C400.735 393.283 387.069 390.857 374.505 391.477C360.171 392.188 344.836 401.739 330.9 408.874C324.123 412.35 318.816 415.688 315.237 414.074C293.197 404.173 296.841 380.102 285.448 339.888C281.385 325.56 278.069 309.037 271.161 293.137C262.715 273.66 247.051 210.23 202.918 157.705C200.677 155.037 198.179 152.208 195.449 149.244C175.22 127.562 140.425 98.6233 85.7256 85.4551" stroke="url(#paint43_linear_680_29351)" stroke-miterlimit="10"/>
<path d="M882.949 402.264C864.227 405.679 846.279 410.113 829.694 413.315C801.509 418.816 785.633 420.595 764.443 430.379C747.594 438.146 737.931 446.971 723.654 451.52C714.005 454.433 704.296 456.54 694.59 457.828C676.512 461.06 669.885 453.798 654.49 443.659C638.413 433.119 624.153 429.283 612.906 416.755C595.395 410.412 578.117 412.305 560.797 404.916C558.971 405.13 557.154 405.124 555.371 404.896C517.605 399.934 509.501 411.293 490.355 412.35C465.83 413.727 440.352 399.755 419.392 394.705C403.336 390.811 389.324 388.676 376.451 389.842C361.76 391.172 345.964 402.139 332.08 410.066C325.162 414.025 319.796 417.556 316.209 415.98C294.198 406.086 298.661 380.043 288.359 338.021C284.73 323.215 281.671 306.175 274.932 289.738C267.098 270.831 251.179 205.801 206.487 152.059C204.24 149.349 201.722 146.474 198.957 143.461C178.613 121.465 143.501 91.8791 88.1532 78.2963" stroke="url(#paint44_linear_680_29351)" stroke-miterlimit="10"/>
<path d="M880.433 409.723C862.236 413.278 844.54 417.892 827.905 421.453C800.95 427.192 784.663 429.762 763.561 439.565C747.147 447.185 737.31 455.621 723.622 460.303C714.173 463.378 704.663 465.768 695.137 467.463C677.377 471.343 670.077 465.408 654.801 456.036C639.18 446.484 626.041 442.347 614.348 429.123C597.938 422.228 581.34 422.013 563.875 412.947C562.079 412.861 560.303 412.629 558.556 412.252C520.687 405.971 511.842 410.582 493.761 410.833C469.023 411.174 443.61 396.848 422.04 392.235C405.808 388.773 391.479 386.607 378.295 388.32C363.248 390.267 347.015 402.677 333.158 411.372C326.1 415.813 320.647 419.59 317.079 417.999C295.083 408.108 300.356 380.131 291.175 336.308C287.97 321.002 285.226 303.458 278.59 286.428C271.458 268.112 255.22 201.283 210.018 146.52C207.747 143.757 205.217 140.845 202.426 137.784C181.981 115.416 146.499 85.2115 90.5738 71.1069" stroke="url(#paint45_linear_680_29351)" stroke-miterlimit="10"/>
<path d="M877.894 417.177C860.231 420.833 842.813 425.655 826.102 429.547C800.426 435.515 783.683 438.866 762.66 448.728C746.698 456.204 736.676 464.29 723.556 469.06C711.409 473.496 701.988 475.467 695.658 477.113C678.208 481.599 670.231 477.011 655.125 468.459C641.477 460.652 628.346 451.646 615.813 441.496C601.98 430.746 587.461 419.881 566.994 420.967C565.175 420.893 563.414 420.437 561.777 419.617C525.038 406.048 514.228 409.842 497.189 409.322C472.24 408.547 446.816 394.34 424.695 389.767C408.279 386.366 393.655 384.544 380.166 386.784C364.755 389.45 348.088 403.222 334.258 412.683C327.074 417.61 321.524 421.612 317.96 420C296.013 410.1 302.072 380.164 294.056 334.549C291.273 318.744 288.792 300.724 282.33 283.137C275.867 265.549 259.254 196.969 213.579 140.948C211.298 138.189 208.698 135.193 205.926 132.075C185.352 109.39 149.534 78.5533 92.9926 63.9592" stroke="url(#paint46_linear_680_29351)" stroke-miterlimit="10"/>
<path d="M875.372 424.628C858.239 428.404 841.115 433.293 824.289 437.694C799.906 443.893 782.688 448.041 761.764 457.946C746.178 465.261 736.032 473.01 723.509 477.875C711.814 482.434 702.602 484.844 696.2 486.74C679.047 491.828 670.426 488.574 655.475 480.839C640.785 473.245 631.601 465.731 617.294 453.865C604.409 443.166 589.227 438.216 570.119 428.961C568.363 428.109 566.574 427.744 565.001 426.975C528.741 409.115 516.645 409.039 500.638 407.787C475.516 405.801 450.023 391.826 427.386 387.279C410.826 383.969 395.853 382.458 382.063 385.205C366.312 388.411 349.211 403.688 335.389 413.932C328.079 419.344 322.372 423.558 318.882 421.963C296.964 412.069 303.799 380.15 296.902 332.672C294.528 316.363 292.286 297.905 286.024 279.705C280.123 262.574 263.314 192.407 217.087 135.274C214.785 132.469 212.224 129.44 209.376 126.244C188.688 103.245 152.505 71.7702 95.3916 56.6966" stroke="url(#paint47_linear_680_29351)" stroke-miterlimit="10"/>
<path d="M872.76 432.061C856.157 435.957 839.277 441.066 822.422 445.727C799.307 452.133 781.657 457.026 760.799 467.049C745.723 474.232 735.32 481.614 723.375 486.59C712.155 491.237 703.217 494.079 696.665 496.291C679.794 501.977 670.53 500.057 655.729 493.158C641.519 486.516 633.255 479.108 618.682 466.236C606.7 455.578 592.277 448.58 573.161 436.979C571.46 435.955 569.693 435.286 568.13 434.335C532.317 412.196 518.11 411.806 503.993 406.255C479.909 396.959 455.178 389.801 429.959 384.828C413.259 381.589 397.952 380.393 383.799 383.716C367.691 387.54 350.184 404.266 336.403 415.28C328.982 421.181 323.226 425.61 319.688 424.024C297.789 414.114 305.409 380.236 299.626 331.058C297.656 314.265 295.623 295.36 289.597 276.536C284.3 260.015 267.285 188.095 220.487 129.865C218.179 127.018 215.642 123.954 212.715 120.698C191.906 97.3427 155.387 65.2367 97.6637 49.7161" stroke="url(#paint48_linear_680_29351)" stroke-miterlimit="10"/>
<path d="M870.8 437.396C854.725 441.413 838.112 446.644 821.135 451.709C799.282 458.279 781.189 464.098 760.359 474.066C745.736 481.024 735.128 488.154 723.77 493.201C713.016 497.974 704.337 501.245 697.678 503.721C681.049 509.976 671.186 509.4 656.535 503.337C642.791 497.644 635.38 490.43 620.642 476.308C609.539 465.664 595.799 456.682 576.761 442.694C575.104 441.474 573.4 440.532 571.837 439.375C536.431 412.991 521.195 407.802 507.917 402.441C483.654 392.595 458.656 385.109 433.115 380.039C416.285 376.893 400.628 376.009 386.225 379.891C369.736 384.369 351.85 402.49 338.025 414.173C330.508 420.565 324.68 425.245 321.102 423.63C299.237 413.707 307.599 377.858 303 326.873C301.442 309.557 299.566 290.236 293.819 270.796C289.101 254.859 271.891 181.209 224.527 121.864C222.213 118.974 219.597 115.85 216.693 112.559C195.775 88.8704 158.89 56.1263 100.58 40.1229" stroke="url(#paint49_linear_680_29351)" stroke-miterlimit="10"/>
<path d="M869.363 440.173C853.819 444.31 837.456 449.598 820.494 455.14C799.904 461.872 781.321 468.486 760.684 478.559C746.483 485.428 735.715 492.171 724.944 497.29C714.642 502.187 706.23 505.847 699.424 508.701C683.037 515.525 672.578 516.274 658.089 511.07C644.814 506.306 638.166 499.409 623.331 484.01C613.074 473.456 599.986 462.423 581.104 446.043C579.473 444.645 577.816 443.425 576.283 442.069C541.235 411.387 525.101 401.369 512.574 396.24C488.181 386.278 461.269 377.326 437.009 372.904C420.044 369.81 404.049 369.259 389.32 373.685C372.498 378.745 354.216 398.338 340.333 410.892C332.7 417.793 326.724 422.644 323.205 421.043C301.351 411.143 310.477 373.289 307.039 320.531C305.89 302.712 304.136 282.987 298.721 262.903C294.563 247.566 277.173 172.189 229.242 111.729C226.904 108.812 224.286 105.627 221.352 102.267C200.304 78.2609 163.083 44.8852 104.181 28.3567" stroke="url(#paint50_linear_680_29351)" stroke-miterlimit="10"/>
<path d="M867.905 442.803C852.88 447.038 836.752 452.379 819.752 458.426C799.924 465.296 780.261 473.47 760.845 482.914C747.076 489.654 736.193 496.084 725.94 501.239C716.11 506.304 707.955 510.331 701.014 513.504C684.85 520.913 673.816 522.971 659.483 518.645C646.667 514.787 640.712 508.315 625.861 491.556C616.427 480.921 603.945 467.97 585.274 449.233C583.687 447.638 582.077 446.142 580.555 444.604C545.879 409.627 529.215 393.772 517.072 389.882C491.692 381.813 465.549 369.952 440.73 365.608C423.629 362.566 407.286 362.389 392.252 367.341C375.073 373.019 356.396 394.146 342.485 407.434C334.771 414.831 328.668 419.9 325.145 418.318C303.328 408.386 313.245 368.552 310.938 314.017C310.374 293.656 307.869 273.769 303.477 254.794C299.873 240.015 282.314 162.934 233.831 101.361C231.487 98.4024 228.848 95.1712 225.879 91.762C204.721 67.4228 167.135 33.4089 107.633 16.4563" stroke="url(#paint51_linear_680_29351)" stroke-miterlimit="10"/>
<path d="M866.491 445.324C830.918 456.021 795.681 470.005 761.065 487.163C705.374 514.787 687.831 532.554 660.94 526.095C641.358 521.378 639.247 509.221 589.522 452.3C552.125 409.488 533.41 388.151 521.629 383.418C479.251 366.614 433.151 347.258 395.248 360.871C367.926 370.68 337.002 419.763 327.184 415.311C298.087 402.08 326.696 331.932 308.287 246.537C305.222 232.312 287.503 153.55 238.455 90.8616C219.415 66.5306 179.701 24.2413 111.132 4.36499" stroke="url(#paint52_linear_680_29351)" stroke-miterlimit="10"/>
<defs>
<linearGradient id="paint0_linear_680_29351" x1="499.178" y1="131.585" x2="448.384" y2="355.146" gradientUnits="userSpaceOnUse">
<stop stop-color="#66CBFF"/>
<stop offset="0.5" stop-color="#00A9FF"/>
<stop offset="1" stop-color="#0277D9"/>
</linearGradient>
<linearGradient id="paint1_linear_680_29351" x1="497.915" y1="138.996" x2="448.467" y2="356.631" gradientUnits="userSpaceOnUse">
<stop stop-color="#66CBFF"/>
<stop offset="0.5" stop-color="#00A9FF"/>
<stop offset="1" stop-color="#0277D9"/>
</linearGradient>
<linearGradient id="paint2_linear_680_29351" x1="496.666" y1="146.435" x2="448.573" y2="358.104" gradientUnits="userSpaceOnUse">
<stop stop-color="#66CBFF"/>
<stop offset="0.5" stop-color="#00A9FF"/>
<stop offset="1" stop-color="#0277D9"/>
</linearGradient>
<linearGradient id="paint3_linear_680_29351" x1="495.476" y1="153.779" x2="448.706" y2="359.628" gradientUnits="userSpaceOnUse">
<stop stop-color="#66CBFF"/>
<stop offset="0.5" stop-color="#00A9FF"/>
<stop offset="1" stop-color="#0277D9"/>
</linearGradient>
<linearGradient id="paint4_linear_680_29351" x1="494.26" y1="161.164" x2="448.826" y2="361.134" gradientUnits="userSpaceOnUse">
<stop stop-color="#66CBFF"/>
<stop offset="0.5" stop-color="#00A9FF"/>
<stop offset="1" stop-color="#0277D9"/>
</linearGradient>
<linearGradient id="paint5_linear_680_29351" x1="493.042" y1="168.558" x2="448.947" y2="362.634" gradientUnits="userSpaceOnUse">
<stop stop-color="#66CBFF"/>
<stop offset="0.5" stop-color="#00A9FF"/>
<stop offset="1" stop-color="#0277D9"/>
</linearGradient>
<linearGradient id="paint6_linear_680_29351" x1="491.832" y1="175.938" x2="449.069" y2="364.154" gradientUnits="userSpaceOnUse">
<stop stop-color="#66CBFF"/>
<stop offset="0.5" stop-color="#00A9FF"/>
<stop offset="1" stop-color="#0277D9"/>
</linearGradient>
<linearGradient id="paint7_linear_680_29351" x1="490.565" y1="183.318" x2="449.133" y2="365.671" gradientUnits="userSpaceOnUse">
<stop stop-color="#66CBFF"/>
<stop offset="0.5" stop-color="#00A9FF"/>
<stop offset="1" stop-color="#0277D9"/>
</linearGradient>
<linearGradient id="paint8_linear_680_29351" x1="489.306" y1="190.688" x2="449.217" y2="367.133" gradientUnits="userSpaceOnUse">
<stop stop-color="#66CBFF"/>
<stop offset="0.5" stop-color="#00A9FF"/>
<stop offset="1" stop-color="#0277D9"/>
</linearGradient>
<linearGradient id="paint9_linear_680_29351" x1="488.064" y1="198.037" x2="449.297" y2="368.66" gradientUnits="userSpaceOnUse">
<stop stop-color="#66CBFF"/>
<stop offset="0.5" stop-color="#00A9FF"/>
<stop offset="1" stop-color="#0277D9"/>
</linearGradient>
<linearGradient id="paint10_linear_680_29351" x1="486.92" y1="205.403" x2="449.481" y2="370.18" gradientUnits="userSpaceOnUse">
<stop stop-color="#66CBFF"/>
<stop offset="0.5" stop-color="#00A9FF"/>
<stop offset="1" stop-color="#0277D9"/>
</linearGradient>
<linearGradient id="paint11_linear_680_29351" x1="485.625" y1="212.77" x2="449.509" y2="371.726" gradientUnits="userSpaceOnUse">
<stop stop-color="#66CBFF"/>
<stop offset="0.5" stop-color="#00A9FF"/>
<stop offset="1" stop-color="#0277D9"/>
</linearGradient>
<linearGradient id="paint12_linear_680_29351" x1="484.419" y1="220.112" x2="449.63" y2="373.232" gradientUnits="userSpaceOnUse">
<stop stop-color="#66CBFF"/>
<stop offset="0.5" stop-color="#00A9FF"/>
<stop offset="1" stop-color="#0277D9"/>
</linearGradient>
<linearGradient id="paint13_linear_680_29351" x1="484.161" y1="223.289" x2="448.813" y2="378.868" gradientUnits="userSpaceOnUse">
<stop stop-color="#66CBFF"/>
<stop offset="0.5" stop-color="#00A9FF"/>
<stop offset="1" stop-color="#0277D9"/>
</linearGradient>
<linearGradient id="paint14_linear_680_29351" x1="484.339" y1="224.629" x2="447.611" y2="386.279" gradientUnits="userSpaceOnUse">
<stop stop-color="#66CBFF"/>
<stop offset="0.5" stop-color="#00A9FF"/>
<stop offset="1" stop-color="#0277D9"/>
</linearGradient>
<linearGradient id="paint15_linear_680_29351" x1="484.444" y1="225.909" x2="446.166" y2="394.382" gradientUnits="userSpaceOnUse">
<stop stop-color="#66CBFF"/>
<stop offset="0.5" stop-color="#00A9FF"/>
<stop offset="1" stop-color="#0277D9"/>
</linearGradient>
<linearGradient id="paint16_linear_680_29351" x1="484.767" y1="226.392" x2="444.755" y2="402.498" gradientUnits="userSpaceOnUse">
<stop stop-color="#66CBFF"/>
<stop offset="0.5" stop-color="#00A9FF"/>
<stop offset="1" stop-color="#0277D9"/>
</linearGradient>
<linearGradient id="paint17_linear_680_29351" x1="485.46" y1="225.379" x2="442.965" y2="412.414" gradientUnits="userSpaceOnUse">
<stop stop-color="#66CBFF"/>
<stop offset="0.5" stop-color="#00A9FF"/>
<stop offset="1" stop-color="#0277D9"/>
</linearGradient>
<linearGradient id="paint18_linear_680_29351" x1="486.122" y1="224.353" x2="441.148" y2="422.297" gradientUnits="userSpaceOnUse">
<stop stop-color="#66CBFF"/>
<stop offset="0.5" stop-color="#00A9FF"/>
<stop offset="1" stop-color="#0277D9"/>
</linearGradient>
<linearGradient id="paint19_linear_680_29351" x1="486.815" y1="223.347" x2="439.338" y2="432.305" gradientUnits="userSpaceOnUse">
<stop stop-color="#66CBFF"/>
<stop offset="0.5" stop-color="#00A9FF"/>
<stop offset="1" stop-color="#0277D9"/>
</linearGradient>
<linearGradient id="paint20_linear_680_29351" x1="487.516" y1="222.316" x2="437.581" y2="442.093" gradientUnits="userSpaceOnUse">
<stop stop-color="#66CBFF"/>
<stop offset="0.5" stop-color="#00A9FF"/>
<stop offset="1" stop-color="#0277D9"/>
</linearGradient>
<linearGradient id="paint21_linear_680_29351" x1="488.16" y1="221.309" x2="435.762" y2="451.928" gradientUnits="userSpaceOnUse">
<stop stop-color="#66CBFF"/>
<stop offset="0.5" stop-color="#00A9FF"/>
<stop offset="1" stop-color="#0277D9"/>
</linearGradient>
<linearGradient id="paint22_linear_680_29351" x1="488.832" y1="220.289" x2="433.939" y2="461.887" gradientUnits="userSpaceOnUse">
<stop stop-color="#66CBFF"/>
<stop offset="0.5" stop-color="#00A9FF"/>
<stop offset="1" stop-color="#0277D9"/>
</linearGradient>
<linearGradient id="paint23_linear_680_29351" x1="489.47" y1="219.256" x2="432.114" y2="471.699" gradientUnits="userSpaceOnUse">
<stop stop-color="#66CBFF"/>
<stop offset="0.5" stop-color="#00A9FF"/>
<stop offset="1" stop-color="#0277D9"/>
</linearGradient>
<linearGradient id="paint24_linear_680_29351" x1="490.171" y1="218.244" x2="430.312" y2="481.7" gradientUnits="userSpaceOnUse">
<stop stop-color="#66CBFF"/>
<stop offset="0.5" stop-color="#00A9FF"/>
<stop offset="1" stop-color="#0277D9"/>
</linearGradient>
<linearGradient id="paint25_linear_680_29351" x1="490.857" y1="217.229" x2="428.516" y2="491.615" gradientUnits="userSpaceOnUse">
<stop stop-color="#66CBFF"/>
<stop offset="0.5" stop-color="#00A9FF"/>
<stop offset="1" stop-color="#0277D9"/>
</linearGradient>
<linearGradient id="paint26_linear_680_29351" x1="491.554" y1="216.213" x2="426.73" y2="501.527" gradientUnits="userSpaceOnUse">
<stop stop-color="#66CBFF"/>
<stop offset="0.5" stop-color="#00A9FF"/>
<stop offset="1" stop-color="#0277D9"/>
</linearGradient>
<linearGradient id="paint27_linear_680_29351" x1="490.954" y1="218.64" x2="428.52" y2="493.428" gradientUnits="userSpaceOnUse">
<stop stop-color="#66CBFF"/>
<stop offset="0.5" stop-color="#00A9FF"/>
<stop offset="1" stop-color="#0277D9"/>
</linearGradient>
<linearGradient id="paint28_linear_680_29351" x1="490.385" y1="221.086" x2="430.344" y2="485.346" gradientUnits="userSpaceOnUse">
<stop stop-color="#66CBFF"/>
<stop offset="0.5" stop-color="#00A9FF"/>
<stop offset="1" stop-color="#0277D9"/>
</linearGradient>
<linearGradient id="paint29_linear_680_29351" x1="489.846" y1="223.539" x2="432.186" y2="477.318" gradientUnits="userSpaceOnUse">
<stop stop-color="#66CBFF"/>
<stop offset="0.5" stop-color="#00A9FF"/>
<stop offset="1" stop-color="#0277D9"/>
</linearGradient>
<linearGradient id="paint30_linear_680_29351" x1="489.216" y1="225.938" x2="433.948" y2="469.192" gradientUnits="userSpaceOnUse">
<stop stop-color="#66CBFF"/>
<stop offset="0.5" stop-color="#00A9FF"/>
<stop offset="1" stop-color="#0277D9"/>
</linearGradient>
<linearGradient id="paint31_linear_680_29351" x1="488.604" y1="228.373" x2="435.731" y2="461.087" gradientUnits="userSpaceOnUse">
<stop stop-color="#66CBFF"/>
<stop offset="0.5" stop-color="#00A9FF"/>
<stop offset="1" stop-color="#0277D9"/>
</linearGradient>
<linearGradient id="paint32_linear_680_29351" x1="488.025" y1="230.839" x2="437.527" y2="453.1" gradientUnits="userSpaceOnUse">
<stop stop-color="#66CBFF"/>
<stop offset="0.5" stop-color="#00A9FF"/>
<stop offset="1" stop-color="#0277D9"/>
</linearGradient>
<linearGradient id="paint33_linear_680_29351" x1="487.472" y1="233.208" x2="439.365" y2="444.946" gradientUnits="userSpaceOnUse">
<stop stop-color="#66CBFF"/>
<stop offset="0.5" stop-color="#00A9FF"/>
<stop offset="1" stop-color="#0277D9"/>
</linearGradient>
<linearGradient id="paint34_linear_680_29351" x1="486.847" y1="235.599" x2="441.12" y2="436.859" gradientUnits="userSpaceOnUse">
<stop stop-color="#66CBFF"/>
<stop offset="0.5" stop-color="#00A9FF"/>
<stop offset="1" stop-color="#0277D9"/>
</linearGradient>
<linearGradient id="paint35_linear_680_29351" x1="486.486" y1="237.062" x2="442.693" y2="429.807" gradientUnits="userSpaceOnUse">
<stop stop-color="#66CBFF"/>
<stop offset="0.5" stop-color="#00A9FF"/>
<stop offset="1" stop-color="#0277D9"/>
</linearGradient>
<linearGradient id="paint36_linear_680_29351" x1="487.971" y1="230.7" x2="442.576" y2="430.494" gradientUnits="userSpaceOnUse">
<stop stop-color="#66CBFF"/>
<stop offset="0.5" stop-color="#00A9FF"/>
<stop offset="1" stop-color="#0277D9"/>
</linearGradient>
<linearGradient id="paint37_linear_680_29351" x1="489.644" y1="223.238" x2="442.166" y2="432.203" gradientUnits="userSpaceOnUse">
<stop stop-color="#66CBFF"/>
<stop offset="0.5" stop-color="#00A9FF"/>
<stop offset="1" stop-color="#0277D9"/>
</linearGradient>
<linearGradient id="paint38_linear_680_29351" x1="491.227" y1="215.884" x2="441.673" y2="433.986" gradientUnits="userSpaceOnUse">
<stop stop-color="#66CBFF"/>
<stop offset="0.5" stop-color="#00A9FF"/>
<stop offset="1" stop-color="#0277D9"/>
</linearGradient>
<linearGradient id="paint39_linear_680_29351" x1="492.806" y1="208.918" x2="441.277" y2="435.716" gradientUnits="userSpaceOnUse">
<stop stop-color="#66CBFF"/>
<stop offset="0.5" stop-color="#00A9FF"/>
<stop offset="1" stop-color="#0277D9"/>
</linearGradient>
<linearGradient id="paint40_linear_680_29351" x1="494.496" y1="201.456" x2="440.892" y2="437.383" gradientUnits="userSpaceOnUse">
<stop stop-color="#66CBFF"/>
<stop offset="0.5" stop-color="#00A9FF"/>
<stop offset="1" stop-color="#0277D9"/>
</linearGradient>
<linearGradient id="paint41_linear_680_29351" x1="496.136" y1="194.04" x2="440.485" y2="438.975" gradientUnits="userSpaceOnUse">
<stop stop-color="#66CBFF"/>
<stop offset="0.5" stop-color="#00A9FF"/>
<stop offset="1" stop-color="#0277D9"/>
</linearGradient>
<linearGradient id="paint42_linear_680_29351" x1="497.779" y1="186.701" x2="440.078" y2="440.663" gradientUnits="userSpaceOnUse">
<stop stop-color="#66CBFF"/>
<stop offset="0.5" stop-color="#00A9FF"/>
<stop offset="1" stop-color="#0277D9"/>
</linearGradient>
<linearGradient id="paint43_linear_680_29351" x1="499.385" y1="179.441" x2="439.633" y2="442.429" gradientUnits="userSpaceOnUse">
<stop stop-color="#66CBFF"/>
<stop offset="0.5" stop-color="#00A9FF"/>
<stop offset="1" stop-color="#0277D9"/>
</linearGradient>
<linearGradient id="paint44_linear_680_29351" x1="501.041" y1="172.106" x2="439.261" y2="444.018" gradientUnits="userSpaceOnUse">
<stop stop-color="#66CBFF"/>
<stop offset="0.5" stop-color="#00A9FF"/>
<stop offset="1" stop-color="#0277D9"/>
</linearGradient>
<linearGradient id="paint45_linear_680_29351" x1="502.696" y1="164.743" x2="438.851" y2="445.746" gradientUnits="userSpaceOnUse">
<stop stop-color="#66CBFF"/>
<stop offset="0.5" stop-color="#00A9FF"/>
<stop offset="1" stop-color="#0277D9"/>
</linearGradient>
<linearGradient id="paint46_linear_680_29351" x1="504.335" y1="157.418" x2="438.438" y2="447.454" gradientUnits="userSpaceOnUse">
<stop stop-color="#66CBFF"/>
<stop offset="0.5" stop-color="#00A9FF"/>
<stop offset="1" stop-color="#0277D9"/>
</linearGradient>
<linearGradient id="paint47_linear_680_29351" x1="505.984" y1="149.985" x2="438.022" y2="449.109" gradientUnits="userSpaceOnUse">
<stop stop-color="#66CBFF"/>
<stop offset="0.5" stop-color="#00A9FF"/>
<stop offset="1" stop-color="#0277D9"/>
</linearGradient>
<linearGradient id="paint48_linear_680_29351" x1="507.491" y1="142.831" x2="437.505" y2="450.864" gradientUnits="userSpaceOnUse">
<stop stop-color="#66CBFF"/>
<stop offset="0.5" stop-color="#00A9FF"/>
<stop offset="1" stop-color="#0277D9"/>
</linearGradient>
<linearGradient id="paint49_linear_680_29351" x1="509.701" y1="133.077" x2="436.66" y2="454.556" gradientUnits="userSpaceOnUse">
<stop stop-color="#66CBFF"/>
<stop offset="0.5" stop-color="#00A9FF"/>
<stop offset="1" stop-color="#0277D9"/>
</linearGradient>
<linearGradient id="paint50_linear_680_29351" x1="512.478" y1="121.124" x2="435.263" y2="460.972" gradientUnits="userSpaceOnUse">
<stop stop-color="#66CBFF"/>
<stop offset="0.5" stop-color="#00A9FF"/>
<stop offset="1" stop-color="#0277D9"/>
</linearGradient>
<linearGradient id="paint51_linear_680_29351" x1="515.165" y1="109.05" x2="433.723" y2="467.503" gradientUnits="userSpaceOnUse">
<stop stop-color="#66CBFF"/>
<stop offset="0.5" stop-color="#00A9FF"/>
<stop offset="1" stop-color="#0277D9"/>
</linearGradient>
<linearGradient id="paint52_linear_680_29351" x1="517.907" y1="96.7862" x2="432.175" y2="474.122" gradientUnits="userSpaceOnUse">
<stop stop-color="#66CBFF"/>
<stop offset="0.5" stop-color="#00A9FF"/>
<stop offset="1" stop-color="#0277D9"/>
</linearGradient>
</defs>
</svg>
